0
SECTION
2
HEADER
9
$ACADVER
1
AC1006
0
ENDSEC
0
SECTION
2
TABLES
0
TABLE
2
LAYER
70
1
0
LAYER
70
0
62
1
6
CONTINUOUS
2
0
0
ENDTAB
0
ENDSEC
0
SECTION
2
BLOCKS
0
ENDSEC
0
SECTION
2
ENTITIES
0
LWPOLYLINE
8
0
90
12
70
1
43
0
10
-28.4417
20
-24.2143
10
-28.4417
20
-24.1393
10
-28.5167
20
-24.1393
10
-28.5167
20
-24.0893
10
-28.4417
20
-24.0893
10
-28.4417
20
-22.8643
10
-28.3917
20
-22.8643
10
-28.3917
20
-24.0893
10
-27.1667
20
-24.0893
10
-27.1667
20
-24.1393
10
-28.3917
20
-24.1393
10
-28.3917
20
-24.2143
0
LWPOLYLINE
8
0
90
4
70
1
43
0
10
-28.5167
20
5.8607
10
-28.5167
20
5.9107
10
-25.9167
20
5.9107
10
-25.9167
20
5.8607
0
ENDSEC
0
EOF
