0
SECTION
2
HEADER
9
$ACADVER
1
AC1006
0
ENDSEC
0
SECTION
2
TABLES
0
TABLE
2
LAYER
70
1
0
LAYER
70
0
62
1
6
CONTINUOUS
2
0
0
ENDTAB
0
ENDSEC
0
SECTION
2
BLOCKS
0
ENDSEC
0
SECTION
2
ENTITIES
0
LWPOLYLINE
8
0
90
6
70
1
43
0
10
-44.975
20
-16.770348
10
-44.992273
20
-16.724097
10
-45.025
20
-16.635637
10
-45.025
20
16.635637
10
-44.992273
20
16.724097
10
-44.975
20
16.770348
0
LWPOLYLINE
8
0
90
6
70
1
43
0
10
44.975
20
-16.770348
10
44.975
20
16.770348
10
44.992273
20
16.724097
10
45.025
20
16.635637
10
45.025
20
-16.635637
10
44.992273
20
-16.724097
0
LWPOLYLINE
8
0
90
4
70
1
43
0
10
-34.975
20
-32.874727
10
-35.025
20
-32.821397
10
-35.025
20
32.821397
10
-34.975
20
32.874727
0
LWPOLYLINE
8
0
90
4
70
1
43
0
10
34.975
20
-32.874727
10
34.975
20
32.874727
10
35.025
20
32.821397
10
35.025
20
-32.821397
0
LWPOLYLINE
8
0
90
4
70
1
43
0
10
-24.975
20
-40.990784
10
-25.025
20
-40.960291
10
-25.025
20
40.960291
10
-24.975
20
40.990784
0
LWPOLYLINE
8
0
90
4
70
1
43
0
10
24.975
20
-40.990784
10
24.975
20
40.990784
10
25.025
20
40.960291
10
25.025
20
-40.960291
0
LWPOLYLINE
8
0
90
4
70
1
43
0
10
-15.025
20
-45.285701
10
-15.025
20
45.587779
10
-14.975
20
45.604212
10
-14.975
20
-45.285701
0
LWPOLYLINE
8
0
90
4
70
1
43
0
10
14.975
20
-45.285701
10
14.975
20
45.604212
10
15.025
20
45.587779
10
15.025
20
-45.285701
0
LWPOLYLINE
8
0
90
5
70
1
43
0
10
-5.025
20
-45.285701
10
-5.025
20
47.736213
10
-4.997838
20
47.739099
10
-4.975
20
47.741455
10
-4.975
20
-45.285701
0
LWPOLYLINE
8
0
90
5
70
1
43
0
10
4.975
20
-45.285701
10
4.975
20
47.741455
10
4.997838
20
47.739099
10
5.025
20
47.736213
10
5.025
20
-45.285701
0
ENDSEC
0
EOF
