0
SECTION
2
HEADER
9
$ACADVER
1
AC1006
0
ENDSEC
0
SECTION
2
TABLES
0
TABLE
2
LAYER
70
1
0
LAYER
70
0
62
1
6
CONTINUOUS
2
0
0
ENDTAB
0
ENDSEC
0
SECTION
2
BLOCKS
0
ENDSEC
0
SECTION
2
ENTITIES
0
LWPOLYLINE
8
0
90
4
70
1
43
0
10
-22.5
20
-43.528661
10
-22.566397
20
-43.494341
10
-22.62
20
-43.466425
10
-22.5
20
-43.466425
0
LWPOLYLINE
8
0
90
4
70
1
43
0
10
22.5
20
-43.528661
10
22.5
20
-43.466425
10
22.62
20
-43.466425
10
22.566397
20
-43.494341
0
LWPOLYLINE
8
0
90
4
70
1
43
0
10
23
20
-43.266565
10
23
20
-43.202575
10
23.12
20
-43.202575
10
23.09844
20
-43.214142
0
LWPOLYLINE
8
0
90
4
70
1
43
0
10
-23.12
20
-43.202575
10
-23.230911
20
-43.143074
10
-23.24
20
-43.138162
10
-23.12
20
-43.138162
0
LWPOLYLINE
8
0
90
4
70
1
43
0
10
-22.62
20
-41.62
10
-22.62
20
-41.5
10
22.62
20
-41.5
10
22.62
20
-41.62
0
LWPOLYLINE
8
0
90
5
70
1
43
0
10
-42.840053
20
-23.785
10
-42.854746
20
-23.758593
10
-42.906447
20
-23.665
10
-23.12
20
-23.665
10
-23.12
20
-23.785
0
LWPOLYLINE
8
0
90
5
70
1
43
0
10
23
20
-23.785
10
23
20
-23.665
10
42.906447
20
-23.665
10
42.854746
20
-23.758593
10
42.840053
20
-23.785
0
LWPOLYLINE
8
0
90
4
70
1
43
0
10
43.12
20
-23.09844
10
43.12
20
-23.049884
10
43.24
20
-23.049884
10
43.214142
20
-23.09844
0
LWPOLYLINE
8
0
90
5
70
1
43
0
10
-43.284804
20
-22.965752
10
-43.355058
20
-22.832848
10
-43.36
20
-22.823429
10
-43.24
20
-22.823429
10
-43.24
20
-22.965752
0
LWPOLYLINE
8
0
90
4
70
1
43
0
10
-22.62
20
-6.5
10
-22.62
20
-6.38
10
22.62
20
-6.38
10
22.62
20
-6.5
0
LWPOLYLINE
8
0
90
4
70
1
43
0
10
-20.24
20
-5.54
10
-20.24
20
-5.42
10
20.12
20
-5.42
10
20.12
20
-5.54
0
LWPOLYLINE
8
0
90
5
70
1
43
0
10
-43.36
20
22.823429
10
-43.355058
20
22.832848
10
-43.284804
20
22.965752
10
-43.24
20
22.965752
10
-43.24
20
22.823429
0
LWPOLYLINE
8
0
90
4
70
1
43
0
10
43.12
20
23.049884
10
43.12
20
23.09844
10
43.214142
20
23.09844
10
43.24
20
23.049884
0
LWPOLYLINE
8
0
90
5
70
1
43
0
10
-42.415003
20
24.535
10
-42.410168
20
24.543384
10
-42.345345
20
24.655
10
-23.12
20
24.655
10
-23.12
20
24.535
0
LWPOLYLINE
8
0
90
5
70
1
43
0
10
23
20
24.535
10
23
20
24.655
10
42.345345
20
24.655
10
42.410168
20
24.543384
10
42.415003
20
24.535
0
LWPOLYLINE
8
0
90
8
70
1
43
0
10
-23.892909
20
42.78
10
-23.889958
20
42.781654
10
-23.758593
20
42.854746
10
-23.67667
20
42.9
10
23.67667
20
42.9
10
23.758593
20
42.854746
10
23.889958
20
42.781654
10
23.892909
20
42.78
0
LWPOLYLINE
8
0
90
4
70
1
43
0
10
-23.24
20
43.138162
10
-23.230911
20
43.143074
10
-23.12
20
43.202575
10
-23.12
20
43.138162
0
LWPOLYLINE
8
0
90
4
70
1
43
0
10
23
20
43.202575
10
23
20
43.266565
10
23.09844
20
43.214142
10
23.12
20
43.202575
0
LWPOLYLINE
8
0
90
4
70
1
43
0
10
-20.24
20
44.624418
10
-20.131315
20
44.673596
10
-20.12
20
44.678674
10
-20.12
20
44.624418
0
LWPOLYLINE
8
0
90
3
70
1
43
0
10
20
20
44.678674
10
20
20
44.732528
10
20.12
20
44.678674
0
LWPOLYLINE
8
0
90
3
70
1
43
0
10
-0.12
20
48.999816
10
0
20
49
10
0
20
48.999816
0
ENDSEC
0
EOF
