0
SECTION
2
HEADER
9
$ACADVER
1
AC1006
0
ENDSEC
0
SECTION
2
TABLES
0
TABLE
2
LAYER
70
1
0
LAYER
70
0
62
1
6
CONTINUOUS
2
0
0
ENDTAB
0
ENDSEC
0
SECTION
2
BLOCKS
0
ENDSEC
0
SECTION
2
ENTITIES
0
LWPOLYLINE
8
0
90
4
70
1
43
0
10
-22.62
20
-44.59103
10
-22.62
20
-41.62
10
-22.5
20
-41.62
10
-22.5
20
-44.59103
0
LWPOLYLINE
8
0
90
4
70
1
43
0
10
22.5
20
-44.59103
10
22.5
20
-41.62
10
22.62
20
-41.62
10
22.62
20
-44.59103
0
LWPOLYLINE
8
0
90
3
70
1
43
0
10
-43.24
20
-25.105958
10
-43.353128
20
-24.911852
10
-43.24
20
-24.911852
0
LWPOLYLINE
8
0
90
4
70
1
43
0
10
-43.36
20
-24.899721
10
-43.36
20
-23.785
10
-43.24
20
-23.785
10
-43.24
20
-24.899721
0
LWPOLYLINE
8
0
90
4
70
1
43
0
10
-23.24
20
-44.271436
10
-23.24
20
-23.785
10
-23.12
20
-23.785
10
-23.12
20
-44.271436
0
LWPOLYLINE
8
0
90
4
70
1
43
0
10
23
20
-44.333696
10
23
20
-23.785
10
23.12
20
-23.785
10
23.12
20
-44.333696
0
LWPOLYLINE
8
0
90
4
70
1
43
0
10
43.12
20
-25.311854
10
43.12
20
-23.785
10
43.24
20
-23.785
10
43.24
20
-25.105958
0
LWPOLYLINE
8
0
90
4
70
1
43
0
10
-22.62
20
-41.5
10
-22.62
20
-6.5
10
-22.5
20
-6.5
10
-22.5
20
-41.5
0
LWPOLYLINE
8
0
90
4
70
1
43
0
10
22.5
20
-41.5
10
22.5
20
-6.5
10
22.62
20
-6.5
10
22.62
20
-41.5
0
LWPOLYLINE
8
0
90
4
70
1
43
0
10
-43.36
20
-23.665
10
-43.36
20
24.535
10
-43.24
20
24.535
10
-43.24
20
-23.665
0
LWPOLYLINE
8
0
90
4
70
1
43
0
10
-23.24
20
-23.665
10
-23.24
20
24.535
10
-23.12
20
24.535
10
-23.12
20
-23.665
0
LWPOLYLINE
8
0
90
4
70
1
43
0
10
23
20
-23.665
10
23
20
24.535
10
23.12
20
24.535
10
23.12
20
-23.665
0
LWPOLYLINE
8
0
90
4
70
1
43
0
10
43.12
20
-23.665
10
43.12
20
24.535
10
43.24
20
24.535
10
43.24
20
-23.665
0
LWPOLYLINE
8
0
90
4
70
1
43
0
10
-43.36
20
24.655
10
-43.36
20
24.899721
10
-43.24
20
24.899721
10
-43.24
20
24.655
0
LWPOLYLINE
8
0
90
3
70
1
43
0
10
-43.353128
20
24.911852
10
-43.24
20
25.105958
10
-43.24
20
24.911852
0
LWPOLYLINE
8
0
90
4
70
1
43
0
10
43.12
20
24.655
10
43.12
20
25.311854
10
43.24
20
25.105958
10
43.24
20
24.655
0
LWPOLYLINE
8
0
90
4
70
1
43
0
10
-23.24
20
24.655
10
-23.24
20
42.78
10
-23.12
20
42.78
10
-23.12
20
24.655
0
LWPOLYLINE
8
0
90
4
70
1
43
0
10
-20.24
20
-5.42
10
-20.24
20
42.78
10
-20.12
20
42.78
10
-20.12
20
-5.42
0
LWPOLYLINE
8
0
90
4
70
1
43
0
10
-0.12
20
-5.42
10
-0.12
20
42.78
10
0
20
42.78
10
0
20
-5.42
0
LWPOLYLINE
8
0
90
4
70
1
43
0
10
20
20
-5.42
10
20
20
42.78
10
20.12
20
42.78
10
20.12
20
-5.42
0
LWPOLYLINE
8
0
90
4
70
1
43
0
10
23
20
24.655
10
23
20
42.78
10
23.12
20
42.78
10
23.12
20
24.655
0
LWPOLYLINE
8
0
90
4
70
1
43
0
10
-23.24
20
42.9
10
-23.24
20
44.271436
10
-23.12
20
44.271436
10
-23.12
20
42.9
0
LWPOLYLINE
8
0
90
4
70
1
43
0
10
23
20
42.9
10
23
20
44.333696
10
23.12
20
44.333696
10
23.12
20
42.9
0
LWPOLYLINE
8
0
90
4
70
1
43
0
10
-20.24
20
42.9
10
-20.24
20
45.720269
10
-20.12
20
45.720269
10
-20.12
20
42.9
0
LWPOLYLINE
8
0
90
4
70
1
43
0
10
20
20
42.9
10
20
20
45.773461
10
20.12
20
45.773461
10
20.12
20
42.9
0
LWPOLYLINE
8
0
90
4
70
1
43
0
10
-0.12
20
42.9
10
-0.12
20
50
10
0
20
50
10
0
20
42.9
0
ENDSEC
0
EOF
