0
SECTION
2
HEADER
9
$ACADVER
1
AC1006
0
ENDSEC
0
SECTION
2
TABLES
0
TABLE
2
LAYER
70
1
0
LAYER
70
0
62
1
6
CONTINUOUS
2
0
0
ENDTAB
0
ENDSEC
0
SECTION
2
BLOCKS
0
ENDSEC
0
SECTION
2
ENTITIES
0
LWPOLYLINE
8
0
90
4
70
1
43
0
10
22.9
20
-4.625
10
22.9
20
-4.575
10
25.5
20
-4.575
10
25.5
20
-4.625
0
LWPOLYLINE
8
0
90
12
70
1
43
0
10
25.375
20
24.15
10
25.375
20
25.375
10
24.15
20
25.375
10
24.15
20
25.425
10
25.375
20
25.425
10
25.375
20
25.5
10
25.425
20
25.5
10
25.425
20
25.425
10
25.5
20
25.425
10
25.5
20
25.375
10
25.425
20
25.375
10
25.425
20
24.15
0
ENDSEC
0
EOF
