0
SECTION
2
HEADER
9
$ACADVER
1
AC1006
9
$INSBASE
10
0.000000
20
0.000000
30
0.000000
9
$EXTMIN
10
-26.000000
20
-26.000000
30
0.000000
9
$EXTMAX
10
26.000000
20
26.000000
30
0.000000
9
$LIMMIN
10
-26.000000
20
-26.000000
9
$LIMMAX
10
26.000000
20
26.000000
0
ENDSEC
0
SECTION
2
TABLES
0
TABLE
2
LAYER
70
2
0
LAYER
70
0
62
1
6
CONTINUOUS
2
0
0
LAYER
70
0
62
2
6
CONTINUOUS
2
REGISTRATION_DO_NOT_EXPOSE
0
ENDTAB
0
ENDSEC
0
SECTION
2
BLOCKS
0
ENDSEC
0
SECTION
2
ENTITIES
0
LWPOLYLINE
8
0
90
12
70
1
43
0
10
-25.425
20
-26
10
-25.425
20
-25.425
10
-26
20
-25.425
10
-26
20
-25.375
10
-25.425
20
-25.375
10
-25.425
20
-24.15
10
-25.375
20
-24.15
10
-25.375
20
-25.375
10
-24.15
20
-25.375
10
-24.15
20
-25.425
10
-25.375
20
-25.425
10
-25.375
20
-26
0
LWPOLYLINE
8
0
90
4
70
1
43
0
10
-26
20
-10.425
10
-26
20
-10.375
10
20.187779
20
-10.375
10
20.204212
20
-10.425
0
LWPOLYLINE
8
0
90
5
70
1
43
0
10
-26
20
19.575
10
-26
20
19.625
10
-8.764363
20
19.625
10
-8.675903
20
19.592273
10
-8.629652
20
19.575
0
LWPOLYLINE
8
REGISTRATION_DO_NOT_EXPOSE
90
4
70
1
43
0
10
-26
20
-26
10
-26
20
-25.95
10
-25.95
20
-25.95
10
-25.95
20
-26
0
LWPOLYLINE
8
REGISTRATION_DO_NOT_EXPOSE
90
4
70
1
43
0
10
-26
20
25.95
10
-26
20
26
10
-25.95
20
26
10
-25.95
20
25.95
0
LWPOLYLINE
8
REGISTRATION_DO_NOT_EXPOSE
90
4
70
1
43
0
10
25.95
20
-26
10
25.95
20
-25.95
10
26
20
-25.95
10
26
20
-26
0
LWPOLYLINE
8
REGISTRATION_DO_NOT_EXPOSE
90
4
70
1
43
0
10
25.95
20
25.95
10
25.95
20
26
10
26
20
26
10
26
20
25.95
0
ENDSEC
0
EOF
