0
SECTION
2
HEADER
9
$ACADVER
1
AC1006
0
ENDSEC
0
SECTION
2
TABLES
0
TABLE
2
LAYER
70
1
0
LAYER
70
0
62
1
6
CONTINUOUS
2
0
0
ENDTAB
0
ENDSEC
0
SECTION
2
BLOCKS
0
ENDSEC
0
SECTION
2
ENTITIES
0
LWPOLYLINE
8
0
90
5
70
1
43
0
10
-19.3
20
-45.58239
10
-19.362934
20
-45.555755
10
-19.4
20
-45.539933
10
-19.4
20
-41.938
10
-19.3
20
-41.938
0
LWPOLYLINE
8
0
90
5
70
1
43
0
10
19.3
20
-45.58239
10
19.3
20
-41.938
10
19.4
20
-41.938
10
19.4
20
-45.539933
10
19.362934
20
-45.555755
0
LWPOLYLINE
8
0
90
4
70
1
43
0
10
-19.4
20
-41.838
10
-19.4
20
-31.438
10
-19.3
20
-31.438
10
-19.3
20
-41.838
0
LWPOLYLINE
8
0
90
4
70
1
43
0
10
19.3
20
-41.838
10
19.3
20
-31.438
10
19.4
20
-31.438
10
19.4
20
-41.838
0
LWPOLYLINE
8
0
90
5
70
1
43
0
10
-38.65
20
-30.926149
10
-38.741205
20
-30.811833
10
-38.75
20
-30.80074
10
-38.75
20
-20.938
10
-38.65
20
-20.938
0
LWPOLYLINE
8
0
90
4
70
1
43
0
10
-0.05
20
-31.338
10
-0.05
20
-20.938
10
0.05
20
-20.938
10
0.05
20
-31.338
0
LWPOLYLINE
8
0
90
5
70
1
43
0
10
38.65
20
-30.926149
10
38.65
20
-20.938
10
38.75
20
-20.938
10
38.75
20
-30.80074
10
38.741205
20
-30.811833
0
LWPOLYLINE
8
0
90
4
70
1
43
0
10
-38.75
20
-20.838
10
-38.75
20
-10.438
10
-38.65
20
-10.438
10
-38.65
20
-20.838
0
LWPOLYLINE
8
0
90
4
70
1
43
0
10
-0.05
20
-20.838
10
-0.05
20
-10.438
10
0.05
20
-10.438
10
0.05
20
-20.838
0
LWPOLYLINE
8
0
90
4
70
1
43
0
10
38.65
20
-20.838
10
38.65
20
-10.438
10
38.75
20
-10.438
10
38.75
20
-20.838
0
LWPOLYLINE
8
0
90
4
70
1
43
0
10
-38.75
20
-10.338
10
-38.75
20
0.062
10
-38.65
20
0.062
10
-38.65
20
-10.338
0
LWPOLYLINE
8
0
90
4
70
1
43
0
10
-0.05
20
-10.338
10
-0.05
20
0.062
10
0.05
20
0.062
10
0.05
20
-10.338
0
LWPOLYLINE
8
0
90
4
70
1
43
0
10
38.65
20
-10.338
10
38.65
20
0.062
10
38.75
20
0.062
10
38.75
20
-10.338
0
LWPOLYLINE
8
0
90
4
70
1
43
0
10
-38.75
20
0.162
10
-38.75
20
10.562
10
-38.65
20
10.562
10
-38.65
20
0.162
0
LWPOLYLINE
8
0
90
4
70
1
43
0
10
-0.05
20
0.162
10
-0.05
20
10.562
10
0.05
20
10.562
10
0.05
20
0.162
0
LWPOLYLINE
8
0
90
4
70
1
43
0
10
38.65
20
0.162
10
38.65
20
10.562
10
38.75
20
10.562
10
38.75
20
0.162
0
LWPOLYLINE
8
0
90
4
70
1
43
0
10
-38.75
20
10.662
10
-38.75
20
21.062
10
-38.65
20
21.062
10
-38.65
20
10.662
0
LWPOLYLINE
8
0
90
4
70
1
43
0
10
-0.05
20
10.662
10
-0.05
20
21.062
10
0.05
20
21.062
10
0.05
20
10.662
0
LWPOLYLINE
8
0
90
4
70
1
43
0
10
38.65
20
10.662
10
38.65
20
21.062
10
38.75
20
21.062
10
38.75
20
10.662
0
LWPOLYLINE
8
0
90
5
70
1
43
0
10
-38.75
20
21.162
10
-38.75
20
30.80074
10
-38.741205
20
30.811833
10
-38.65
20
30.926149
10
-38.65
20
21.162
0
LWPOLYLINE
8
0
90
5
70
1
43
0
10
38.65
20
21.162
10
38.65
20
30.926149
10
38.741205
20
30.811833
10
38.75
20
30.80074
10
38.75
20
21.162
0
LWPOLYLINE
8
0
90
4
70
1
43
0
10
-0.05
20
21.162
10
-0.05
20
31.562
10
0.05
20
31.562
10
0.05
20
21.162
0
LWPOLYLINE
8
0
90
4
70
1
43
0
10
-19.4
20
31.662
10
-19.4
20
42.062
10
-19.3
20
42.062
10
-19.3
20
31.662
0
LWPOLYLINE
8
0
90
4
70
1
43
0
10
19.3
20
31.662
10
19.3
20
42.062
10
19.4
20
42.062
10
19.4
20
31.662
0
LWPOLYLINE
8
0
90
5
70
1
43
0
10
-19.4
20
42.162
10
-19.4
20
45.539933
10
-19.362934
20
45.555755
10
-19.3
20
45.58239
10
-19.3
20
42.162
0
LWPOLYLINE
8
0
90
5
70
1
43
0
10
19.3
20
42.162
10
19.3
20
45.58239
10
19.362934
20
45.555755
10
19.4
20
45.539933
10
19.4
20
42.162
0
ENDSEC
0
EOF
