0
SECTION
2
HEADER
9
$ACADVER
1
AC1006
0
ENDSEC
0
SECTION
2
TABLES
0
TABLE
2
LAYER
70
1
0
LAYER
70
0
62
1
6
CONTINUOUS
2
0
0
ENDTAB
0
ENDSEC
0
SECTION
2
BLOCKS
0
ENDSEC
0
SECTION
2
ENTITIES
0
LWPOLYLINE
8
0
90
6
70
1
43
0
10
-26.295407
20
-41.938
10
-26.353955
20
-41.901301
10
-26.454258
20
-41.838
10
26.454258
20
-41.838
10
26.353955
20
-41.901301
10
26.295407
20
-41.938
0
LWPOLYLINE
8
0
90
6
70
1
43
0
10
-38.234765
20
-31.438
10
-38.264017
20
-31.402468
10
-38.316759
20
-31.338
10
38.316759
20
-31.338
10
38.264017
20
-31.402468
10
38.234765
20
-31.438
0
LWPOLYLINE
8
0
90
6
70
1
43
0
10
-44.853593
20
-20.938
10
-44.876487
20
-20.889013
10
-44.900138
20
-20.838
10
44.900138
20
-20.838
10
44.876487
20
-20.889013
10
44.853593
20
-20.938
0
LWPOLYLINE
8
0
90
6
70
1
43
0
10
-48.386918
20
-10.438
10
-48.395029
20
-10.400536
10
-48.408368
20
-10.338
10
48.408368
20
-10.338
10
48.395029
20
-10.400536
10
48.386918
20
-10.438
0
LWPOLYLINE
8
0
90
5
70
1
43
0
10
-48.683331
20
0.062
10
-48.683331
20
0.162
10
49.49972
20
0.162
10
49.499767
20
0.151864
10
49.499905
20
0.062
0
LWPOLYLINE
8
0
90
4
70
1
43
0
10
-48.360028
20
10.562
10
-48.338055
20
10.662
10
48.338055
20
10.662
10
48.360028
20
10.562
0
LWPOLYLINE
8
0
90
4
70
1
43
0
10
-44.795511
20
21.062
10
-44.748401
20
21.162
10
44.748401
20
21.162
10
44.795511
20
21.062
0
LWPOLYLINE
8
0
90
6
70
1
43
0
10
-38.132464
20
31.562
10
-38.070615
20
31.63666
10
-38.049492
20
31.662
10
38.049492
20
31.662
10
38.070615
20
31.63666
10
38.132464
20
31.562
0
LWPOLYLINE
8
0
90
8
70
1
43
0
10
-26.096707
20
42.062
10
-26.096357
20
42.062218
10
-25.967189
20
42.142082
10
-25.934753
20
42.162
10
25.934753
20
42.162
10
25.967189
20
42.142082
10
26.096357
20
42.062218
10
26.096707
20
42.062
0
ENDSEC
0
EOF
