0
SECTION
2
HEADER
9
$ACADVER
1
AC1006
0
ENDSEC
0
SECTION
2
TABLES
0
TABLE
2
LAYER
70
2
0
LAYER
70
0
62
1
6
CONTINUOUS
2
0
0
LAYER
70
0
62
2
6
CONTINUOUS
2
REGISTRATION_DO_NOT_EXPOSE
0
ENDTAB
0
ENDSEC
0
SECTION
2
BLOCKS
0
ENDSEC
0
SECTION
2
ENTITIES
0
LWPOLYLINE
8
0
90
5
70
1
43
0
10
-25
20
-21.703
10
-25
20
-21.653
10
-4.247652
20
-21.653
10
-4.293903
20
-21.670273
10
-4.382363
20
-21.703
0
LWPOLYLINE
8
0
90
4
70
1
43
0
10
-25
20
8.297
10
-25
20
8.347
10
24.586212
20
8.347
10
24.569779
20
8.297
0
LWPOLYLINE
8
0
90
12
70
1
43
0
10
-21.043
20
22.072
10
-21.043
20
23.297
10
-22.268
20
23.297
10
-22.268
20
23.347
10
-21.043
20
23.347
10
-21.043
20
24.572
10
-20.993
20
24.572
10
-20.993
20
23.347
10
-19.768
20
23.347
10
-19.768
20
23.297
10
-20.993
20
23.297
10
-20.993
20
22.072
0
LWPOLYLINE
8
REGISTRATION_DO_NOT_EXPOSE
90
4
70
1
43
0
10
-30
20
-30
10
-30
20
-29.95
10
-29.95
20
-29.95
10
-29.95
20
-30
0
LWPOLYLINE
8
REGISTRATION_DO_NOT_EXPOSE
90
4
70
1
43
0
10
-30
20
29.95
10
-30
20
30
10
-29.95
20
30
10
-29.95
20
29.95
0
LWPOLYLINE
8
REGISTRATION_DO_NOT_EXPOSE
90
4
70
1
43
0
10
29.95
20
-30
10
29.95
20
-29.95
10
30
20
-29.95
10
30
20
-30
0
LWPOLYLINE
8
REGISTRATION_DO_NOT_EXPOSE
90
4
70
1
43
0
10
29.95
20
29.95
10
29.95
20
30
10
30
20
30
10
30
20
29.95
0
ENDSEC
0
EOF
