0
SECTION
2
HEADER
9
$ACADVER
1
AC1006
0
ENDSEC
0
SECTION
2
TABLES
0
TABLE
2
LAYER
70
2
0
LAYER
70
0
62
1
6
CONTINUOUS
2
0
0
LAYER
70
0
62
2
6
CONTINUOUS
2
REGISTRATION_DO_NOT_EXPOSE
0
ENDTAB
0
ENDSEC
0
SECTION
2
BLOCKS
0
ENDSEC
0
SECTION
2
ENTITIES
0
LWPOLYLINE
8
0
90
5
70
1
43
0
10
23.957
20
6.551652
10
23.957
20
25
10
24.007
20
25
10
24.007
20
6.686363
10
23.974273
20
6.597903
0
LWPOLYLINE
8
0
90
4
70
1
43
0
10
13.957
20
-9.552727
10
13.957
20
25
10
14.007
20
25
10
14.007
20
-9.499397
0
LWPOLYLINE
8
0
90
4
70
1
43
0
10
3.957
20
-17.668784
10
3.957
20
25
10
4.007
20
25
10
4.007
20
-17.638291
0
LWPOLYLINE
8
0
90
4
70
1
43
0
10
-6.043
20
-21.963701
10
-6.043
20
25
10
-5.993
20
25
10
-5.993
20
-21.963701
0
LWPOLYLINE
8
0
90
4
70
1
43
0
10
-16.043
20
-21.963701
10
-16.043
20
25
10
-15.993
20
25
10
-15.993
20
-21.963701
0
LWPOLYLINE
8
REGISTRATION_DO_NOT_EXPOSE
90
4
70
1
43
0
10
-30
20
-30
10
-30
20
-29.95
10
-29.95
20
-29.95
10
-29.95
20
-30
0
LWPOLYLINE
8
REGISTRATION_DO_NOT_EXPOSE
90
4
70
1
43
0
10
-30
20
29.95
10
-30
20
30
10
-29.95
20
30
10
-29.95
20
29.95
0
LWPOLYLINE
8
REGISTRATION_DO_NOT_EXPOSE
90
4
70
1
43
0
10
29.95
20
-30
10
29.95
20
-29.95
10
30
20
-29.95
10
30
20
-30
0
LWPOLYLINE
8
REGISTRATION_DO_NOT_EXPOSE
90
4
70
1
43
0
10
29.95
20
29.95
10
29.95
20
30
10
30
20
30
10
30
20
29.95
0
ENDSEC
0
EOF
