0
SECTION
2
HEADER
9
$ACADVER
1
AC1006
0
ENDSEC
0
SECTION
2
TABLES
0
TABLE
2
LAYER
70
1
0
LAYER
70
0
62
1
6
CONTINUOUS
2
0
0
ENDTAB
0
ENDSEC
0
SECTION
2
BLOCKS
0
ENDSEC
0
SECTION
2
ENTITIES
0
LWPOLYLINE
8
0
90
12
70
1
43
0
10
-0.25
20
-31.25
10
-0.25
20
-30.25
10
-1.25
20
-30.25
10
-1.25
20
-29.75
10
-0.25
20
-29.75
10
-0.25
20
-28.75
10
0.25
20
-28.75
10
0.25
20
-29.75
10
1.25
20
-29.75
10
1.25
20
-30.25
10
0.25
20
-30.25
10
0.25
20
-31.25
0
LWPOLYLINE
8
0
90
4
70
1
43
0
10
-34.356403
20
-15.025
10
-34.377836
20
-14.975
10
34.377836
20
-14.975
10
34.356403
20
-15.025
0
LWPOLYLINE
8
0
90
12
70
1
43
0
10
-30.25
20
-1.25
10
-30.25
20
-0.25
10
-31.25
20
-0.25
10
-31.25
20
0.25
10
-30.25
20
0.25
10
-30.25
20
1.25
10
-29.75
20
1.25
10
-29.75
20
0.25
10
-28.75
20
0.25
10
-28.75
20
-0.25
10
-29.75
20
-0.25
10
-29.75
20
-1.25
0
LWPOLYLINE
8
0
90
12
70
1
43
0
10
-0.25
20
-1.25
10
-0.25
20
-0.25
10
-1.25
20
-0.25
10
-1.25
20
0.25
10
-0.25
20
0.25
10
-0.25
20
1.25
10
0.25
20
1.25
10
0.25
20
0.25
10
1.25
20
0.25
10
1.25
20
-0.25
10
0.25
20
-0.25
10
0.25
20
-1.25
0
LWPOLYLINE
8
0
90
12
70
1
43
0
10
29.75
20
-1.25
10
29.75
20
-0.25
10
28.75
20
-0.25
10
28.75
20
0.25
10
29.75
20
0.25
10
29.75
20
1.25
10
30.25
20
1.25
10
30.25
20
0.25
10
31.25
20
0.25
10
31.25
20
-0.25
10
30.25
20
-0.25
10
30.25
20
-1.25
0
LWPOLYLINE
8
0
90
4
70
1
43
0
10
-34.377836
20
14.975
10
-34.356403
20
15.025
10
34.356403
20
15.025
10
34.377836
20
14.975
0
LWPOLYLINE
8
0
90
12
70
1
43
0
10
-0.25
20
28.75
10
-0.25
20
29.75
10
-1.25
20
29.75
10
-1.25
20
30.25
10
-0.25
20
30.25
10
-0.25
20
31.25
10
0.25
20
31.25
10
0.25
20
30.25
10
1.25
20
30.25
10
1.25
20
29.75
10
0.25
20
29.75
10
0.25
20
28.75
0
ENDSEC
0
EOF
