0
SECTION
2
HEADER
9
$ACADVER
1
AC1006
0
ENDSEC
0
SECTION
2
TABLES
0
TABLE
2
LAYER
70
1
0
LAYER
70
0
62
1
6
CONTINUOUS
2
0
0
ENDTAB
0
ENDSEC
0
SECTION
2
BLOCKS
0
ENDSEC
0
SECTION
2
ENTITIES
0
LWPOLYLINE
8
0
90
4
70
1
43
0
10
-15.025
20
-32.5
10
-15.025
20
-27.5
10
-14.975
20
-27.5
10
-14.975
20
-32.5
0
LWPOLYLINE
8
0
90
4
70
1
43
0
10
-5.025
20
-32.5
10
-5.025
20
-27.5
10
-4.975
20
-27.5
10
-4.975
20
-32.5
0
LWPOLYLINE
8
0
90
4
70
1
43
0
10
4.975
20
-32.5
10
4.975
20
-27.5
10
5.025
20
-27.5
10
5.025
20
-32.5
0
LWPOLYLINE
8
0
90
4
70
1
43
0
10
14.975
20
-32.5
10
14.975
20
-27.5
10
15.025
20
-27.5
10
15.025
20
-32.5
0
LWPOLYLINE
8
0
90
4
70
1
43
0
10
-15.025
20
27.5
10
-15.025
20
32.5
10
-14.975
20
32.5
10
-14.975
20
27.5
0
LWPOLYLINE
8
0
90
4
70
1
43
0
10
-5.025
20
27.5
10
-5.025
20
32.5
10
-4.975
20
32.5
10
-4.975
20
27.5
0
LWPOLYLINE
8
0
90
4
70
1
43
0
10
4.975
20
27.5
10
4.975
20
32.5
10
5.025
20
32.5
10
5.025
20
27.5
0
LWPOLYLINE
8
0
90
4
70
1
43
0
10
14.975
20
27.5
10
14.975
20
32.5
10
15.025
20
32.5
10
15.025
20
27.5
0
ENDSEC
0
EOF
