0
SECTION
2
HEADER
9
$ACADVER
1
AC1006
0
ENDSEC
0
SECTION
2
TABLES
0
TABLE
2
LAYER
70
2
0
LAYER
70
0
62
1
6
CONTINUOUS
2
0
0
LAYER
70
0
62
2
6
CONTINUOUS
2
REGISTRATION_DO_NOT_EXPOSE
0
ENDTAB
0
ENDSEC
0
SECTION
2
BLOCKS
0
ENDSEC
0
SECTION
2
ENTITIES
0
LWPOLYLINE
8
0
90
5
70
1
43
0
10
23.957
20
-25
10
23.957
20
-9.907652
10
23.974273
20
-9.953903
10
24.007
20
-10.042363
10
24.007
20
-25
0
LWPOLYLINE
8
0
90
4
70
1
43
0
10
13.957
20
-25
10
13.957
20
6.196727
10
14.007
20
6.143397
10
14.007
20
-25
0
LWPOLYLINE
8
0
90
4
70
1
43
0
10
3.957
20
-25
10
3.957
20
14.312784
10
4.007
20
14.282291
10
4.007
20
-25
0
LWPOLYLINE
8
0
90
4
70
1
43
0
10
-6.043
20
-25
10
-6.043
20
18.926212
10
-5.993
20
18.909779
10
-5.993
20
-25
0
LWPOLYLINE
8
0
90
5
70
1
43
0
10
-16.043
20
-25
10
-16.043
20
21.063455
10
-16.020162
20
21.061099
10
-15.993
20
21.058213
10
-15.993
20
-25
0
LWPOLYLINE
8
REGISTRATION_DO_NOT_EXPOSE
90
4
70
1
43
0
10
-30
20
-30
10
-30
20
-29.95
10
-29.95
20
-29.95
10
-29.95
20
-30
0
LWPOLYLINE
8
REGISTRATION_DO_NOT_EXPOSE
90
4
70
1
43
0
10
-30
20
29.95
10
-30
20
30
10
-29.95
20
30
10
-29.95
20
29.95
0
LWPOLYLINE
8
REGISTRATION_DO_NOT_EXPOSE
90
4
70
1
43
0
10
29.95
20
-30
10
29.95
20
-29.95
10
30
20
-29.95
10
30
20
-30
0
LWPOLYLINE
8
REGISTRATION_DO_NOT_EXPOSE
90
4
70
1
43
0
10
29.95
20
29.95
10
29.95
20
30
10
30
20
30
10
30
20
29.95
0
ENDSEC
0
EOF
