ISO-10303-21;
HEADER;
/* Generated by software containing ST-Developer
 * from STEP Tools, Inc. (www.steptools.com) 
 */

FILE_DESCRIPTION(
/* description */ (''),
/* implementation_level */ '2;1');

FILE_NAME(
/* name */ 'pin_grid_wafer_jig_al.step',
/* time_stamp */ '2026-08-13T14:45:40-07:00',
/* author */ (''),
/* organization */ (''),
/* preprocessor_version */ 'ST-DEVELOPER v20.1',
/* originating_system */ 'Autodesk Translation Framework v15.8.0.0',
/* authorisation */ '');

FILE_SCHEMA (('AUTOMOTIVE_DESIGN { 1 0 10303 214 3 1 1 }'));
ENDSEC;

DATA;
#10=MECHANICAL_DESIGN_GEOMETRIC_PRESENTATION_REPRESENTATION('',(#13),#1042);
#11=SHAPE_REPRESENTATION_RELATIONSHIP('SRR','None',#1049,#12);
#12=ADVANCED_BREP_SHAPE_REPRESENTATION('',(#14),#1041);
#13=STYLED_ITEM('',(#1058),#14);
#14=MANIFOLD_SOLID_BREP('Body1',#630);
#15=FACE_BOUND('',#92,.T.);
#16=FACE_BOUND('',#93,.T.);
#17=FACE_BOUND('',#95,.T.);
#18=FACE_BOUND('',#96,.T.);
#19=FACE_BOUND('',#111,.T.);
#20=FACE_BOUND('',#112,.T.);
#21=FACE_BOUND('',#113,.T.);
#22=FACE_BOUND('',#114,.T.);
#23=PLANE('',#656);
#24=PLANE('',#657);
#25=PLANE('',#658);
#26=PLANE('',#659);
#27=PLANE('',#660);
#28=PLANE('',#661);
#29=PLANE('',#665);
#30=PLANE('',#666);
#31=PLANE('',#667);
#32=PLANE('',#668);
#33=PLANE('',#669);
#34=PLANE('',#672);
#35=PLANE('',#675);
#36=PLANE('',#676);
#37=PLANE('',#677);
#38=PLANE('',#678);
#39=PLANE('',#679);
#40=PLANE('',#680);
#41=PLANE('',#683);
#42=PLANE('',#686);
#43=PLANE('',#691);
#44=PLANE('',#692);
#45=FACE_OUTER_BOUND('',#76,.T.);
#46=FACE_OUTER_BOUND('',#77,.T.);
#47=FACE_OUTER_BOUND('',#78,.T.);
#48=FACE_OUTER_BOUND('',#79,.T.);
#49=FACE_OUTER_BOUND('',#80,.T.);
#50=FACE_OUTER_BOUND('',#81,.T.);
#51=FACE_OUTER_BOUND('',#82,.T.);
#52=FACE_OUTER_BOUND('',#83,.T.);
#53=FACE_OUTER_BOUND('',#84,.T.);
#54=FACE_OUTER_BOUND('',#85,.T.);
#55=FACE_OUTER_BOUND('',#86,.T.);
#56=FACE_OUTER_BOUND('',#87,.T.);
#57=FACE_OUTER_BOUND('',#88,.T.);
#58=FACE_OUTER_BOUND('',#89,.T.);
#59=FACE_OUTER_BOUND('',#90,.T.);
#60=FACE_OUTER_BOUND('',#91,.T.);
#61=FACE_OUTER_BOUND('',#94,.T.);
#62=FACE_OUTER_BOUND('',#97,.T.);
#63=FACE_OUTER_BOUND('',#98,.T.);
#64=FACE_OUTER_BOUND('',#99,.T.);
#65=FACE_OUTER_BOUND('',#100,.T.);
#66=FACE_OUTER_BOUND('',#101,.T.);
#67=FACE_OUTER_BOUND('',#102,.T.);
#68=FACE_OUTER_BOUND('',#103,.T.);
#69=FACE_OUTER_BOUND('',#104,.T.);
#70=FACE_OUTER_BOUND('',#105,.T.);
#71=FACE_OUTER_BOUND('',#106,.T.);
#72=FACE_OUTER_BOUND('',#107,.T.);
#73=FACE_OUTER_BOUND('',#108,.T.);
#74=FACE_OUTER_BOUND('',#109,.T.);
#75=FACE_OUTER_BOUND('',#110,.T.);
#76=EDGE_LOOP('',(#416,#417,#418,#419));
#77=EDGE_LOOP('',(#420,#421,#422,#423));
#78=EDGE_LOOP('',(#424,#425,#426,#427));
#79=EDGE_LOOP('',(#428,#429,#430,#431));
#80=EDGE_LOOP('',(#432,#433,#434,#435));
#81=EDGE_LOOP('',(#436,#437,#438,#439));
#82=EDGE_LOOP('',(#440,#441,#442,#443));
#83=EDGE_LOOP('',(#444,#445,#446,#447));
#84=EDGE_LOOP('',(#448,#449,#450,#451));
#85=EDGE_LOOP('',(#452,#453,#454,#455));
#86=EDGE_LOOP('',(#456,#457,#458,#459));
#87=EDGE_LOOP('',(#460,#461,#462,#463));
#88=EDGE_LOOP('',(#464,#465,#466,#467,#468,#469,#470,#471,#472,#473,#474,
#475,#476,#477,#478,#479,#480));
#89=EDGE_LOOP('',(#481,#482,#483,#484));
#90=EDGE_LOOP('',(#485,#486,#487,#488));
#91=EDGE_LOOP('',(#489,#490,#491,#492,#493,#494,#495,#496,#497,#498,#499,
#500,#501));
#92=EDGE_LOOP('',(#502));
#93=EDGE_LOOP('',(#503));
#94=EDGE_LOOP('',(#504,#505,#506,#507,#508,#509,#510,#511,#512,#513,#514,
#515));
#95=EDGE_LOOP('',(#516));
#96=EDGE_LOOP('',(#517));
#97=EDGE_LOOP('',(#518,#519,#520,#521));
#98=EDGE_LOOP('',(#522,#523,#524,#525));
#99=EDGE_LOOP('',(#526,#527,#528,#529,#530,#531,#532,#533));
#100=EDGE_LOOP('',(#534,#535,#536,#537));
#101=EDGE_LOOP('',(#538,#539,#540,#541));
#102=EDGE_LOOP('',(#542,#543,#544,#545));
#103=EDGE_LOOP('',(#546,#547,#548,#549));
#104=EDGE_LOOP('',(#550,#551,#552,#553));
#105=EDGE_LOOP('',(#554,#555,#556,#557));
#106=EDGE_LOOP('',(#558,#559,#560,#561));
#107=EDGE_LOOP('',(#562,#563,#564,#565));
#108=EDGE_LOOP('',(#566,#567,#568,#569));
#109=EDGE_LOOP('',(#570,#571,#572,#573,#574,#575,#576,#577));
#110=EDGE_LOOP('',(#578,#579,#580,#581,#582,#583,#584,#585));
#111=EDGE_LOOP('',(#586));
#112=EDGE_LOOP('',(#587));
#113=EDGE_LOOP('',(#588));
#114=EDGE_LOOP('',(#589));
#115=LINE('',#867,#184);
#116=LINE('',#873,#185);
#117=LINE('',#879,#186);
#118=LINE('',#885,#187);
#119=LINE('',#890,#188);
#120=LINE('',#892,#189);
#121=LINE('',#894,#190);
#122=LINE('',#895,#191);
#123=LINE('',#898,#192);
#124=LINE('',#900,#193);
#125=LINE('',#901,#194);
#126=LINE('',#904,#195);
#127=LINE('',#906,#196);
#128=LINE('',#907,#197);
#129=LINE('',#911,#198);
#130=LINE('',#913,#199);
#131=LINE('',#915,#200);
#132=LINE('',#916,#201);
#133=LINE('',#920,#202);
#134=LINE('',#922,#203);
#135=LINE('',#924,#204);
#136=LINE('',#925,#205);
#137=LINE('',#928,#206);
#138=LINE('',#930,#207);
#139=LINE('',#931,#208);
#140=LINE('',#937,#209);
#141=LINE('',#939,#210);
#142=LINE('',#940,#211);
#143=LINE('',#943,#212);
#144=LINE('',#945,#213);
#145=LINE('',#947,#214);
#146=LINE('',#948,#215);
#147=LINE('',#950,#216);
#148=LINE('',#952,#217);
#149=LINE('',#954,#218);
#150=LINE('',#956,#219);
#151=LINE('',#957,#220);
#152=LINE('',#960,#221);
#153=LINE('',#962,#222);
#154=LINE('',#963,#223);
#155=LINE('',#966,#224);
#156=LINE('',#967,#225);
#157=LINE('',#970,#226);
#158=LINE('',#974,#227);
#159=LINE('',#978,#228);
#160=LINE('',#980,#229);
#161=LINE('',#981,#230);
#162=LINE('',#983,#231);
#163=LINE('',#985,#232);
#164=LINE('',#987,#233);
#165=LINE('',#989,#234);
#166=LINE('',#993,#235);
#167=LINE('',#996,#236);
#168=LINE('',#998,#237);
#169=LINE('',#999,#238);
#170=LINE('',#1001,#239);
#171=LINE('',#1002,#240);
#172=LINE('',#1005,#241);
#173=LINE('',#1007,#242);
#174=LINE('',#1008,#243);
#175=LINE('',#1014,#244);
#176=LINE('',#1018,#245);
#177=LINE('',#1019,#246);
#178=LINE('',#1023,#247);
#179=LINE('',#1026,#248);
#180=LINE('',#1027,#249);
#181=LINE('',#1031,#250);
#182=LINE('',#1034,#251);
#183=LINE('',#1037,#252);
#184=VECTOR('',#699,2.38125);
#185=VECTOR('',#706,2.38125);
#186=VECTOR('',#713,2.38125);
#187=VECTOR('',#720,2.38125);
#188=VECTOR('',#725,10.);
#189=VECTOR('',#726,10.);
#190=VECTOR('',#727,10.);
#191=VECTOR('',#728,10.);
#192=VECTOR('',#731,10.);
#193=VECTOR('',#732,10.);
#194=VECTOR('',#733,10.);
#195=VECTOR('',#736,10.);
#196=VECTOR('',#737,10.);
#197=VECTOR('',#738,10.);
#198=VECTOR('',#741,10.);
#199=VECTOR('',#742,10.);
#200=VECTOR('',#743,10.);
#201=VECTOR('',#744,10.);
#202=VECTOR('',#747,10.);
#203=VECTOR('',#748,10.);
#204=VECTOR('',#749,10.);
#205=VECTOR('',#750,10.);
#206=VECTOR('',#753,10.);
#207=VECTOR('',#754,10.);
#208=VECTOR('',#755,10.);
#209=VECTOR('',#764,10.);
#210=VECTOR('',#765,10.);
#211=VECTOR('',#766,10.);
#212=VECTOR('',#769,10.);
#213=VECTOR('',#770,10.);
#214=VECTOR('',#771,10.);
#215=VECTOR('',#772,10.);
#216=VECTOR('',#773,10.);
#217=VECTOR('',#774,10.);
#218=VECTOR('',#775,10.);
#219=VECTOR('',#776,10.);
#220=VECTOR('',#777,10.);
#221=VECTOR('',#780,10.);
#222=VECTOR('',#781,10.);
#223=VECTOR('',#782,10.);
#224=VECTOR('',#785,10.);
#225=VECTOR('',#786,10.);
#226=VECTOR('',#789,10.);
#227=VECTOR('',#792,10.);
#228=VECTOR('',#795,10.);
#229=VECTOR('',#796,10.);
#230=VECTOR('',#797,10.);
#231=VECTOR('',#800,10.);
#232=VECTOR('',#801,10.);
#233=VECTOR('',#802,10.);
#234=VECTOR('',#803,10.);
#235=VECTOR('',#806,10.);
#236=VECTOR('',#809,10.);
#237=VECTOR('',#812,10.);
#238=VECTOR('',#813,10.);
#239=VECTOR('',#816,10.);
#240=VECTOR('',#817,10.);
#241=VECTOR('',#820,10.);
#242=VECTOR('',#821,10.);
#243=VECTOR('',#822,10.);
#244=VECTOR('',#831,10.);
#245=VECTOR('',#836,10.);
#246=VECTOR('',#837,10.);
#247=VECTOR('',#842,10.);
#248=VECTOR('',#845,10.);
#249=VECTOR('',#846,10.);
#250=VECTOR('',#851,10.);
#251=VECTOR('',#854,10.);
#252=VECTOR('',#859,10.);
#253=CIRCLE('',#645,2.38125);
#254=CIRCLE('',#646,2.38125);
#255=CIRCLE('',#648,2.38125);
#256=CIRCLE('',#649,2.38125);
#257=CIRCLE('',#651,2.38125);
#258=CIRCLE('',#652,2.38125);
#259=CIRCLE('',#654,2.38125);
#260=CIRCLE('',#655,2.38125);
#261=CIRCLE('',#663,1.);
#262=CIRCLE('',#664,1.);
#263=CIRCLE('',#670,2.5);
#264=CIRCLE('',#671,2.5);
#265=CIRCLE('',#673,2.5);
#266=CIRCLE('',#674,2.5);
#267=CIRCLE('',#682,2.5);
#268=CIRCLE('',#685,2.5);
#269=CIRCLE('',#688,2.5);
#270=CIRCLE('',#690,2.5);
#271=VERTEX_POINT('',#864);
#272=VERTEX_POINT('',#866);
#273=VERTEX_POINT('',#870);
#274=VERTEX_POINT('',#872);
#275=VERTEX_POINT('',#876);
#276=VERTEX_POINT('',#878);
#277=VERTEX_POINT('',#882);
#278=VERTEX_POINT('',#884);
#279=VERTEX_POINT('',#888);
#280=VERTEX_POINT('',#889);
#281=VERTEX_POINT('',#891);
#282=VERTEX_POINT('',#893);
#283=VERTEX_POINT('',#897);
#284=VERTEX_POINT('',#899);
#285=VERTEX_POINT('',#903);
#286=VERTEX_POINT('',#905);
#287=VERTEX_POINT('',#909);
#288=VERTEX_POINT('',#910);
#289=VERTEX_POINT('',#912);
#290=VERTEX_POINT('',#914);
#291=VERTEX_POINT('',#918);
#292=VERTEX_POINT('',#919);
#293=VERTEX_POINT('',#921);
#294=VERTEX_POINT('',#923);
#295=VERTEX_POINT('',#927);
#296=VERTEX_POINT('',#929);
#297=VERTEX_POINT('',#936);
#298=VERTEX_POINT('',#938);
#299=VERTEX_POINT('',#942);
#300=VERTEX_POINT('',#944);
#301=VERTEX_POINT('',#946);
#302=VERTEX_POINT('',#949);
#303=VERTEX_POINT('',#951);
#304=VERTEX_POINT('',#953);
#305=VERTEX_POINT('',#955);
#306=VERTEX_POINT('',#959);
#307=VERTEX_POINT('',#961);
#308=VERTEX_POINT('',#965);
#309=VERTEX_POINT('',#969);
#310=VERTEX_POINT('',#971);
#311=VERTEX_POINT('',#973);
#312=VERTEX_POINT('',#975);
#313=VERTEX_POINT('',#977);
#314=VERTEX_POINT('',#979);
#315=VERTEX_POINT('',#984);
#316=VERTEX_POINT('',#986);
#317=VERTEX_POINT('',#988);
#318=VERTEX_POINT('',#990);
#319=VERTEX_POINT('',#992);
#320=VERTEX_POINT('',#994);
#321=VERTEX_POINT('',#1004);
#322=VERTEX_POINT('',#1006);
#323=VERTEX_POINT('',#1013);
#324=VERTEX_POINT('',#1017);
#325=VERTEX_POINT('',#1021);
#326=VERTEX_POINT('',#1025);
#327=VERTEX_POINT('',#1029);
#328=VERTEX_POINT('',#1033);
#329=EDGE_CURVE('',#271,#271,#253,.T.);
#330=EDGE_CURVE('',#271,#272,#115,.T.);
#331=EDGE_CURVE('',#272,#272,#254,.T.);
#332=EDGE_CURVE('',#273,#273,#255,.T.);
#333=EDGE_CURVE('',#273,#274,#116,.T.);
#334=EDGE_CURVE('',#274,#274,#256,.T.);
#335=EDGE_CURVE('',#275,#275,#257,.T.);
#336=EDGE_CURVE('',#275,#276,#117,.T.);
#337=EDGE_CURVE('',#276,#276,#258,.T.);
#338=EDGE_CURVE('',#277,#277,#259,.T.);
#339=EDGE_CURVE('',#277,#278,#118,.T.);
#340=EDGE_CURVE('',#278,#278,#260,.T.);
#341=EDGE_CURVE('',#279,#280,#119,.T.);
#342=EDGE_CURVE('',#281,#279,#120,.T.);
#343=EDGE_CURVE('',#282,#281,#121,.T.);
#344=EDGE_CURVE('',#280,#282,#122,.T.);
#345=EDGE_CURVE('',#280,#283,#123,.T.);
#346=EDGE_CURVE('',#284,#282,#124,.T.);
#347=EDGE_CURVE('',#283,#284,#125,.T.);
#348=EDGE_CURVE('',#285,#279,#126,.T.);
#349=EDGE_CURVE('',#285,#286,#127,.T.);
#350=EDGE_CURVE('',#286,#281,#128,.T.);
#351=EDGE_CURVE('',#287,#288,#129,.T.);
#352=EDGE_CURVE('',#288,#289,#130,.T.);
#353=EDGE_CURVE('',#289,#290,#131,.T.);
#354=EDGE_CURVE('',#287,#290,#132,.T.);
#355=EDGE_CURVE('',#291,#292,#133,.T.);
#356=EDGE_CURVE('',#293,#291,#134,.T.);
#357=EDGE_CURVE('',#294,#293,#135,.T.);
#358=EDGE_CURVE('',#294,#292,#136,.T.);
#359=EDGE_CURVE('',#287,#295,#137,.T.);
#360=EDGE_CURVE('',#295,#296,#138,.T.);
#361=EDGE_CURVE('',#288,#296,#139,.T.);
#362=EDGE_CURVE('',#294,#295,#261,.T.);
#363=EDGE_CURVE('',#296,#293,#262,.T.);
#364=EDGE_CURVE('',#297,#292,#140,.T.);
#365=EDGE_CURVE('',#297,#298,#141,.T.);
#366=EDGE_CURVE('',#298,#291,#142,.T.);
#367=EDGE_CURVE('',#299,#286,#143,.T.);
#368=EDGE_CURVE('',#300,#299,#144,.T.);
#369=EDGE_CURVE('',#301,#300,#145,.T.);
#370=EDGE_CURVE('',#289,#301,#146,.T.);
#371=EDGE_CURVE('',#302,#298,#147,.T.);
#372=EDGE_CURVE('',#303,#302,#148,.T.);
#373=EDGE_CURVE('',#304,#303,#149,.T.);
#374=EDGE_CURVE('',#305,#304,#150,.T.);
#375=EDGE_CURVE('',#284,#305,#151,.T.);
#376=EDGE_CURVE('',#300,#306,#152,.T.);
#377=EDGE_CURVE('',#307,#299,#153,.T.);
#378=EDGE_CURVE('',#306,#307,#154,.T.);
#379=EDGE_CURVE('',#308,#301,#155,.T.);
#380=EDGE_CURVE('',#290,#308,#156,.T.);
#381=EDGE_CURVE('',#308,#309,#157,.T.);
#382=EDGE_CURVE('',#310,#309,#263,.T.);
#383=EDGE_CURVE('',#310,#311,#158,.T.);
#384=EDGE_CURVE('',#312,#311,#264,.T.);
#385=EDGE_CURVE('',#312,#313,#159,.T.);
#386=EDGE_CURVE('',#313,#314,#160,.T.);
#387=EDGE_CURVE('',#314,#297,#161,.T.);
#388=EDGE_CURVE('',#307,#285,#162,.T.);
#389=EDGE_CURVE('',#283,#315,#163,.T.);
#390=EDGE_CURVE('',#315,#316,#164,.T.);
#391=EDGE_CURVE('',#316,#317,#165,.T.);
#392=EDGE_CURVE('',#318,#317,#265,.T.);
#393=EDGE_CURVE('',#318,#319,#166,.T.);
#394=EDGE_CURVE('',#320,#319,#266,.T.);
#395=EDGE_CURVE('',#320,#306,#167,.T.);
#396=EDGE_CURVE('',#303,#313,#168,.T.);
#397=EDGE_CURVE('',#314,#302,#169,.T.);
#398=EDGE_CURVE('',#316,#304,#170,.T.);
#399=EDGE_CURVE('',#305,#315,#171,.T.);
#400=EDGE_CURVE('',#321,#312,#172,.T.);
#401=EDGE_CURVE('',#321,#322,#173,.T.);
#402=EDGE_CURVE('',#317,#322,#174,.T.);
#403=EDGE_CURVE('',#311,#323,#175,.T.);
#404=EDGE_CURVE('',#323,#321,#267,.T.);
#405=EDGE_CURVE('',#324,#310,#176,.T.);
#406=EDGE_CURVE('',#324,#323,#177,.T.);
#407=EDGE_CURVE('',#322,#325,#268,.T.);
#408=EDGE_CURVE('',#325,#318,#178,.T.);
#409=EDGE_CURVE('',#325,#326,#179,.T.);
#410=EDGE_CURVE('',#319,#326,#180,.T.);
#411=EDGE_CURVE('',#326,#327,#269,.T.);
#412=EDGE_CURVE('',#327,#320,#181,.T.);
#413=EDGE_CURVE('',#309,#328,#182,.T.);
#414=EDGE_CURVE('',#328,#324,#270,.T.);
#415=EDGE_CURVE('',#327,#328,#183,.T.);
#416=ORIENTED_EDGE('',*,*,#329,.F.);
#417=ORIENTED_EDGE('',*,*,#330,.T.);
#418=ORIENTED_EDGE('',*,*,#331,.F.);
#419=ORIENTED_EDGE('',*,*,#330,.F.);
#420=ORIENTED_EDGE('',*,*,#332,.F.);
#421=ORIENTED_EDGE('',*,*,#333,.T.);
#422=ORIENTED_EDGE('',*,*,#334,.F.);
#423=ORIENTED_EDGE('',*,*,#333,.F.);
#424=ORIENTED_EDGE('',*,*,#335,.F.);
#425=ORIENTED_EDGE('',*,*,#336,.T.);
#426=ORIENTED_EDGE('',*,*,#337,.F.);
#427=ORIENTED_EDGE('',*,*,#336,.F.);
#428=ORIENTED_EDGE('',*,*,#338,.F.);
#429=ORIENTED_EDGE('',*,*,#339,.T.);
#430=ORIENTED_EDGE('',*,*,#340,.F.);
#431=ORIENTED_EDGE('',*,*,#339,.F.);
#432=ORIENTED_EDGE('',*,*,#341,.F.);
#433=ORIENTED_EDGE('',*,*,#342,.F.);
#434=ORIENTED_EDGE('',*,*,#343,.F.);
#435=ORIENTED_EDGE('',*,*,#344,.F.);
#436=ORIENTED_EDGE('',*,*,#345,.F.);
#437=ORIENTED_EDGE('',*,*,#344,.T.);
#438=ORIENTED_EDGE('',*,*,#346,.F.);
#439=ORIENTED_EDGE('',*,*,#347,.F.);
#440=ORIENTED_EDGE('',*,*,#342,.T.);
#441=ORIENTED_EDGE('',*,*,#348,.F.);
#442=ORIENTED_EDGE('',*,*,#349,.T.);
#443=ORIENTED_EDGE('',*,*,#350,.T.);
#444=ORIENTED_EDGE('',*,*,#351,.T.);
#445=ORIENTED_EDGE('',*,*,#352,.T.);
#446=ORIENTED_EDGE('',*,*,#353,.T.);
#447=ORIENTED_EDGE('',*,*,#354,.F.);
#448=ORIENTED_EDGE('',*,*,#355,.F.);
#449=ORIENTED_EDGE('',*,*,#356,.F.);
#450=ORIENTED_EDGE('',*,*,#357,.F.);
#451=ORIENTED_EDGE('',*,*,#358,.T.);
#452=ORIENTED_EDGE('',*,*,#359,.T.);
#453=ORIENTED_EDGE('',*,*,#360,.T.);
#454=ORIENTED_EDGE('',*,*,#361,.F.);
#455=ORIENTED_EDGE('',*,*,#351,.F.);
#456=ORIENTED_EDGE('',*,*,#362,.F.);
#457=ORIENTED_EDGE('',*,*,#357,.T.);
#458=ORIENTED_EDGE('',*,*,#363,.F.);
#459=ORIENTED_EDGE('',*,*,#360,.F.);
#460=ORIENTED_EDGE('',*,*,#355,.T.);
#461=ORIENTED_EDGE('',*,*,#364,.F.);
#462=ORIENTED_EDGE('',*,*,#365,.T.);
#463=ORIENTED_EDGE('',*,*,#366,.T.);
#464=ORIENTED_EDGE('',*,*,#343,.T.);
#465=ORIENTED_EDGE('',*,*,#350,.F.);
#466=ORIENTED_EDGE('',*,*,#367,.F.);
#467=ORIENTED_EDGE('',*,*,#368,.F.);
#468=ORIENTED_EDGE('',*,*,#369,.F.);
#469=ORIENTED_EDGE('',*,*,#370,.F.);
#470=ORIENTED_EDGE('',*,*,#352,.F.);
#471=ORIENTED_EDGE('',*,*,#361,.T.);
#472=ORIENTED_EDGE('',*,*,#363,.T.);
#473=ORIENTED_EDGE('',*,*,#356,.T.);
#474=ORIENTED_EDGE('',*,*,#366,.F.);
#475=ORIENTED_EDGE('',*,*,#371,.F.);
#476=ORIENTED_EDGE('',*,*,#372,.F.);
#477=ORIENTED_EDGE('',*,*,#373,.F.);
#478=ORIENTED_EDGE('',*,*,#374,.F.);
#479=ORIENTED_EDGE('',*,*,#375,.F.);
#480=ORIENTED_EDGE('',*,*,#346,.T.);
#481=ORIENTED_EDGE('',*,*,#376,.F.);
#482=ORIENTED_EDGE('',*,*,#368,.T.);
#483=ORIENTED_EDGE('',*,*,#377,.F.);
#484=ORIENTED_EDGE('',*,*,#378,.F.);
#485=ORIENTED_EDGE('',*,*,#379,.F.);
#486=ORIENTED_EDGE('',*,*,#380,.F.);
#487=ORIENTED_EDGE('',*,*,#353,.F.);
#488=ORIENTED_EDGE('',*,*,#370,.T.);
#489=ORIENTED_EDGE('',*,*,#354,.T.);
#490=ORIENTED_EDGE('',*,*,#380,.T.);
#491=ORIENTED_EDGE('',*,*,#381,.T.);
#492=ORIENTED_EDGE('',*,*,#382,.F.);
#493=ORIENTED_EDGE('',*,*,#383,.T.);
#494=ORIENTED_EDGE('',*,*,#384,.F.);
#495=ORIENTED_EDGE('',*,*,#385,.T.);
#496=ORIENTED_EDGE('',*,*,#386,.T.);
#497=ORIENTED_EDGE('',*,*,#387,.T.);
#498=ORIENTED_EDGE('',*,*,#364,.T.);
#499=ORIENTED_EDGE('',*,*,#358,.F.);
#500=ORIENTED_EDGE('',*,*,#362,.T.);
#501=ORIENTED_EDGE('',*,*,#359,.F.);
#502=ORIENTED_EDGE('',*,*,#332,.T.);
#503=ORIENTED_EDGE('',*,*,#338,.T.);
#504=ORIENTED_EDGE('',*,*,#378,.T.);
#505=ORIENTED_EDGE('',*,*,#388,.T.);
#506=ORIENTED_EDGE('',*,*,#348,.T.);
#507=ORIENTED_EDGE('',*,*,#341,.T.);
#508=ORIENTED_EDGE('',*,*,#345,.T.);
#509=ORIENTED_EDGE('',*,*,#389,.T.);
#510=ORIENTED_EDGE('',*,*,#390,.T.);
#511=ORIENTED_EDGE('',*,*,#391,.T.);
#512=ORIENTED_EDGE('',*,*,#392,.F.);
#513=ORIENTED_EDGE('',*,*,#393,.T.);
#514=ORIENTED_EDGE('',*,*,#394,.F.);
#515=ORIENTED_EDGE('',*,*,#395,.T.);
#516=ORIENTED_EDGE('',*,*,#329,.T.);
#517=ORIENTED_EDGE('',*,*,#335,.T.);
#518=ORIENTED_EDGE('',*,*,#396,.F.);
#519=ORIENTED_EDGE('',*,*,#372,.T.);
#520=ORIENTED_EDGE('',*,*,#397,.F.);
#521=ORIENTED_EDGE('',*,*,#386,.F.);
#522=ORIENTED_EDGE('',*,*,#398,.F.);
#523=ORIENTED_EDGE('',*,*,#390,.F.);
#524=ORIENTED_EDGE('',*,*,#399,.F.);
#525=ORIENTED_EDGE('',*,*,#374,.T.);
#526=ORIENTED_EDGE('',*,*,#398,.T.);
#527=ORIENTED_EDGE('',*,*,#373,.T.);
#528=ORIENTED_EDGE('',*,*,#396,.T.);
#529=ORIENTED_EDGE('',*,*,#385,.F.);
#530=ORIENTED_EDGE('',*,*,#400,.F.);
#531=ORIENTED_EDGE('',*,*,#401,.T.);
#532=ORIENTED_EDGE('',*,*,#402,.F.);
#533=ORIENTED_EDGE('',*,*,#391,.F.);
#534=ORIENTED_EDGE('',*,*,#397,.T.);
#535=ORIENTED_EDGE('',*,*,#371,.T.);
#536=ORIENTED_EDGE('',*,*,#365,.F.);
#537=ORIENTED_EDGE('',*,*,#387,.F.);
#538=ORIENTED_EDGE('',*,*,#347,.T.);
#539=ORIENTED_EDGE('',*,*,#375,.T.);
#540=ORIENTED_EDGE('',*,*,#399,.T.);
#541=ORIENTED_EDGE('',*,*,#389,.F.);
#542=ORIENTED_EDGE('',*,*,#377,.T.);
#543=ORIENTED_EDGE('',*,*,#367,.T.);
#544=ORIENTED_EDGE('',*,*,#349,.F.);
#545=ORIENTED_EDGE('',*,*,#388,.F.);
#546=ORIENTED_EDGE('',*,*,#384,.T.);
#547=ORIENTED_EDGE('',*,*,#403,.T.);
#548=ORIENTED_EDGE('',*,*,#404,.T.);
#549=ORIENTED_EDGE('',*,*,#400,.T.);
#550=ORIENTED_EDGE('',*,*,#403,.F.);
#551=ORIENTED_EDGE('',*,*,#383,.F.);
#552=ORIENTED_EDGE('',*,*,#405,.F.);
#553=ORIENTED_EDGE('',*,*,#406,.T.);
#554=ORIENTED_EDGE('',*,*,#392,.T.);
#555=ORIENTED_EDGE('',*,*,#402,.T.);
#556=ORIENTED_EDGE('',*,*,#407,.T.);
#557=ORIENTED_EDGE('',*,*,#408,.T.);
#558=ORIENTED_EDGE('',*,*,#408,.F.);
#559=ORIENTED_EDGE('',*,*,#409,.T.);
#560=ORIENTED_EDGE('',*,*,#410,.F.);
#561=ORIENTED_EDGE('',*,*,#393,.F.);
#562=ORIENTED_EDGE('',*,*,#394,.T.);
#563=ORIENTED_EDGE('',*,*,#410,.T.);
#564=ORIENTED_EDGE('',*,*,#411,.T.);
#565=ORIENTED_EDGE('',*,*,#412,.T.);
#566=ORIENTED_EDGE('',*,*,#382,.T.);
#567=ORIENTED_EDGE('',*,*,#413,.T.);
#568=ORIENTED_EDGE('',*,*,#414,.T.);
#569=ORIENTED_EDGE('',*,*,#405,.T.);
#570=ORIENTED_EDGE('',*,*,#376,.T.);
#571=ORIENTED_EDGE('',*,*,#395,.F.);
#572=ORIENTED_EDGE('',*,*,#412,.F.);
#573=ORIENTED_EDGE('',*,*,#415,.T.);
#574=ORIENTED_EDGE('',*,*,#413,.F.);
#575=ORIENTED_EDGE('',*,*,#381,.F.);
#576=ORIENTED_EDGE('',*,*,#379,.T.);
#577=ORIENTED_EDGE('',*,*,#369,.T.);
#578=ORIENTED_EDGE('',*,*,#404,.F.);
#579=ORIENTED_EDGE('',*,*,#406,.F.);
#580=ORIENTED_EDGE('',*,*,#414,.F.);
#581=ORIENTED_EDGE('',*,*,#415,.F.);
#582=ORIENTED_EDGE('',*,*,#411,.F.);
#583=ORIENTED_EDGE('',*,*,#409,.F.);
#584=ORIENTED_EDGE('',*,*,#407,.F.);
#585=ORIENTED_EDGE('',*,*,#401,.F.);
#586=ORIENTED_EDGE('',*,*,#331,.T.);
#587=ORIENTED_EDGE('',*,*,#334,.T.);
#588=ORIENTED_EDGE('',*,*,#337,.T.);
#589=ORIENTED_EDGE('',*,*,#340,.T.);
#590=CYLINDRICAL_SURFACE('',#644,2.38125);
#591=CYLINDRICAL_SURFACE('',#647,2.38125);
#592=CYLINDRICAL_SURFACE('',#650,2.38125);
#593=CYLINDRICAL_SURFACE('',#653,2.38125);
#594=CYLINDRICAL_SURFACE('',#662,1.);
#595=CYLINDRICAL_SURFACE('',#681,2.5);
#596=CYLINDRICAL_SURFACE('',#684,2.5);
#597=CYLINDRICAL_SURFACE('',#687,2.5);
#598=CYLINDRICAL_SURFACE('',#689,2.5);
#599=ADVANCED_FACE('',(#45),#590,.F.);
#600=ADVANCED_FACE('',(#46),#591,.F.);
#601=ADVANCED_FACE('',(#47),#592,.F.);
#602=ADVANCED_FACE('',(#48),#593,.F.);
#603=ADVANCED_FACE('',(#49),#23,.T.);
#604=ADVANCED_FACE('',(#50),#24,.T.);
#605=ADVANCED_FACE('',(#51),#25,.F.);
#606=ADVANCED_FACE('',(#52),#26,.F.);
#607=ADVANCED_FACE('',(#53),#27,.T.);
#608=ADVANCED_FACE('',(#54),#28,.T.);
#609=ADVANCED_FACE('',(#55),#594,.T.);
#610=ADVANCED_FACE('',(#56),#29,.F.);
#611=ADVANCED_FACE('',(#57),#30,.F.);
#612=ADVANCED_FACE('',(#58),#31,.F.);
#613=ADVANCED_FACE('',(#59),#32,.F.);
#614=ADVANCED_FACE('',(#60,#15,#16),#33,.T.);
#615=ADVANCED_FACE('',(#61,#17,#18),#34,.T.);
#616=ADVANCED_FACE('',(#62),#35,.F.);
#617=ADVANCED_FACE('',(#63),#36,.F.);
#618=ADVANCED_FACE('',(#64),#37,.T.);
#619=ADVANCED_FACE('',(#65),#38,.F.);
#620=ADVANCED_FACE('',(#66),#39,.F.);
#621=ADVANCED_FACE('',(#67),#40,.F.);
#622=ADVANCED_FACE('',(#68),#595,.T.);
#623=ADVANCED_FACE('',(#69),#41,.T.);
#624=ADVANCED_FACE('',(#70),#596,.T.);
#625=ADVANCED_FACE('',(#71),#42,.T.);
#626=ADVANCED_FACE('',(#72),#597,.T.);
#627=ADVANCED_FACE('',(#73),#598,.T.);
#628=ADVANCED_FACE('',(#74),#43,.T.);
#629=ADVANCED_FACE('',(#75,#19,#20,#21,#22),#44,.F.);
#630=CLOSED_SHELL('',(#599,#600,#601,#602,#603,#604,#605,#606,#607,#608,
#609,#610,#611,#612,#613,#614,#615,#616,#617,#618,#619,#620,#621,#622,#623,
#624,#625,#626,#627,#628,#629));
#631=DERIVED_UNIT_ELEMENT(#633,1.);
#632=DERIVED_UNIT_ELEMENT(#1044,-3.);
#633=(
MASS_UNIT()
NAMED_UNIT(*)
SI_UNIT(.KILO.,.GRAM.)
);
#634=DERIVED_UNIT((#631,#632));
#635=MEASURE_REPRESENTATION_ITEM('density measure',
POSITIVE_RATIO_MEASURE(7850.),#634);
#636=PROPERTY_DEFINITION_REPRESENTATION(#641,#638);
#637=PROPERTY_DEFINITION_REPRESENTATION(#642,#639);
#638=REPRESENTATION('material name',(#640),#1041);
#639=REPRESENTATION('density',(#635),#1041);
#640=DESCRIPTIVE_REPRESENTATION_ITEM('Steel','Steel');
#641=PROPERTY_DEFINITION('material property','material name',#1051);
#642=PROPERTY_DEFINITION('material property','density of part',#1051);
#643=AXIS2_PLACEMENT_3D('',#862,#693,#694);
#644=AXIS2_PLACEMENT_3D('',#863,#695,#696);
#645=AXIS2_PLACEMENT_3D('',#865,#697,#698);
#646=AXIS2_PLACEMENT_3D('',#868,#700,#701);
#647=AXIS2_PLACEMENT_3D('',#869,#702,#703);
#648=AXIS2_PLACEMENT_3D('',#871,#704,#705);
#649=AXIS2_PLACEMENT_3D('',#874,#707,#708);
#650=AXIS2_PLACEMENT_3D('',#875,#709,#710);
#651=AXIS2_PLACEMENT_3D('',#877,#711,#712);
#652=AXIS2_PLACEMENT_3D('',#880,#714,#715);
#653=AXIS2_PLACEMENT_3D('',#881,#716,#717);
#654=AXIS2_PLACEMENT_3D('',#883,#718,#719);
#655=AXIS2_PLACEMENT_3D('',#886,#721,#722);
#656=AXIS2_PLACEMENT_3D('',#887,#723,#724);
#657=AXIS2_PLACEMENT_3D('',#896,#729,#730);
#658=AXIS2_PLACEMENT_3D('',#902,#734,#735);
#659=AXIS2_PLACEMENT_3D('',#908,#739,#740);
#660=AXIS2_PLACEMENT_3D('',#917,#745,#746);
#661=AXIS2_PLACEMENT_3D('',#926,#751,#752);
#662=AXIS2_PLACEMENT_3D('',#932,#756,#757);
#663=AXIS2_PLACEMENT_3D('',#933,#758,#759);
#664=AXIS2_PLACEMENT_3D('',#934,#760,#761);
#665=AXIS2_PLACEMENT_3D('',#935,#762,#763);
#666=AXIS2_PLACEMENT_3D('',#941,#767,#768);
#667=AXIS2_PLACEMENT_3D('',#958,#778,#779);
#668=AXIS2_PLACEMENT_3D('',#964,#783,#784);
#669=AXIS2_PLACEMENT_3D('',#968,#787,#788);
#670=AXIS2_PLACEMENT_3D('',#972,#790,#791);
#671=AXIS2_PLACEMENT_3D('',#976,#793,#794);
#672=AXIS2_PLACEMENT_3D('',#982,#798,#799);
#673=AXIS2_PLACEMENT_3D('',#991,#804,#805);
#674=AXIS2_PLACEMENT_3D('',#995,#807,#808);
#675=AXIS2_PLACEMENT_3D('',#997,#810,#811);
#676=AXIS2_PLACEMENT_3D('',#1000,#814,#815);
#677=AXIS2_PLACEMENT_3D('',#1003,#818,#819);
#678=AXIS2_PLACEMENT_3D('',#1009,#823,#824);
#679=AXIS2_PLACEMENT_3D('',#1010,#825,#826);
#680=AXIS2_PLACEMENT_3D('',#1011,#827,#828);
#681=AXIS2_PLACEMENT_3D('',#1012,#829,#830);
#682=AXIS2_PLACEMENT_3D('',#1015,#832,#833);
#683=AXIS2_PLACEMENT_3D('',#1016,#834,#835);
#684=AXIS2_PLACEMENT_3D('',#1020,#838,#839);
#685=AXIS2_PLACEMENT_3D('',#1022,#840,#841);
#686=AXIS2_PLACEMENT_3D('',#1024,#843,#844);
#687=AXIS2_PLACEMENT_3D('',#1028,#847,#848);
#688=AXIS2_PLACEMENT_3D('',#1030,#849,#850);
#689=AXIS2_PLACEMENT_3D('',#1032,#852,#853);
#690=AXIS2_PLACEMENT_3D('',#1035,#855,#856);
#691=AXIS2_PLACEMENT_3D('',#1036,#857,#858);
#692=AXIS2_PLACEMENT_3D('',#1038,#860,#861);
#693=DIRECTION('axis',(0.,0.,1.));
#694=DIRECTION('refdir',(1.,0.,0.));
#695=DIRECTION('center_axis',(0.,0.,-1.));
#696=DIRECTION('ref_axis',(1.,0.,0.));
#697=DIRECTION('center_axis',(0.,0.,-1.));
#698=DIRECTION('ref_axis',(1.,0.,0.));
#699=DIRECTION('',(0.,0.,-1.));
#700=DIRECTION('center_axis',(0.,0.,1.));
#701=DIRECTION('ref_axis',(1.,0.,0.));
#702=DIRECTION('center_axis',(0.,0.,-1.));
#703=DIRECTION('ref_axis',(1.,0.,0.));
#704=DIRECTION('center_axis',(0.,0.,-1.));
#705=DIRECTION('ref_axis',(1.,0.,0.));
#706=DIRECTION('',(0.,0.,-1.));
#707=DIRECTION('center_axis',(0.,0.,1.));
#708=DIRECTION('ref_axis',(1.,0.,0.));
#709=DIRECTION('center_axis',(0.,0.,-1.));
#710=DIRECTION('ref_axis',(1.,0.,0.));
#711=DIRECTION('center_axis',(0.,0.,-1.));
#712=DIRECTION('ref_axis',(1.,0.,0.));
#713=DIRECTION('',(0.,0.,-1.));
#714=DIRECTION('center_axis',(0.,0.,1.));
#715=DIRECTION('ref_axis',(1.,0.,0.));
#716=DIRECTION('center_axis',(0.,0.,-1.));
#717=DIRECTION('ref_axis',(1.,0.,0.));
#718=DIRECTION('center_axis',(0.,0.,-1.));
#719=DIRECTION('ref_axis',(1.,0.,0.));
#720=DIRECTION('',(0.,0.,-1.));
#721=DIRECTION('center_axis',(0.,0.,1.));
#722=DIRECTION('ref_axis',(1.,0.,0.));
#723=DIRECTION('center_axis',(0.,1.,0.));
#724=DIRECTION('ref_axis',(1.,0.,0.));
#725=DIRECTION('',(-1.,0.,0.));
#726=DIRECTION('',(0.,0.,1.));
#727=DIRECTION('',(1.,0.,0.));
#728=DIRECTION('',(0.,0.,-1.));
#729=DIRECTION('center_axis',(-1.,0.,0.));
#730=DIRECTION('ref_axis',(0.,1.,0.));
#731=DIRECTION('',(0.,-1.,0.));
#732=DIRECTION('',(0.,1.,0.));
#733=DIRECTION('',(0.,0.,-1.));
#734=DIRECTION('center_axis',(1.,0.,0.));
#735=DIRECTION('ref_axis',(0.,-1.,0.));
#736=DIRECTION('',(0.,-1.,0.));
#737=DIRECTION('',(0.,0.,-1.));
#738=DIRECTION('',(0.,-1.,0.));
#739=DIRECTION('center_axis',(0.,1.,0.));
#740=DIRECTION('ref_axis',(1.,0.,0.));
#741=DIRECTION('',(0.,0.,-1.));
#742=DIRECTION('',(1.,0.,0.));
#743=DIRECTION('',(0.,0.,1.));
#744=DIRECTION('',(1.,0.,0.));
#745=DIRECTION('center_axis',(0.,-1.,0.));
#746=DIRECTION('ref_axis',(-1.,0.,0.));
#747=DIRECTION('',(0.,0.,1.));
#748=DIRECTION('',(-1.,0.,0.));
#749=DIRECTION('',(0.,0.,-1.));
#750=DIRECTION('',(-1.,0.,0.));
#751=DIRECTION('center_axis',(1.,0.,0.));
#752=DIRECTION('ref_axis',(0.,-1.,0.));
#753=DIRECTION('',(0.,-1.,0.));
#754=DIRECTION('',(0.,0.,-1.));
#755=DIRECTION('',(0.,-1.,0.));
#756=DIRECTION('center_axis',(0.,0.,-1.));
#757=DIRECTION('ref_axis',(4.44089209850061E-15,-1.,0.));
#758=DIRECTION('center_axis',(0.,0.,1.));
#759=DIRECTION('ref_axis',(4.44089209850061E-15,-1.,0.));
#760=DIRECTION('center_axis',(0.,0.,-1.));
#761=DIRECTION('ref_axis',(4.44089209850061E-15,-1.,0.));
#762=DIRECTION('center_axis',(-1.,0.,0.));
#763=DIRECTION('ref_axis',(0.,1.,0.));
#764=DIRECTION('',(0.,1.,0.));
#765=DIRECTION('',(0.,0.,-1.));
#766=DIRECTION('',(0.,1.,0.));
#767=DIRECTION('center_axis',(0.,0.,-1.));
#768=DIRECTION('ref_axis',(-1.,0.,0.));
#769=DIRECTION('',(1.,0.,0.));
#770=DIRECTION('',(0.,-1.,0.));
#771=DIRECTION('',(1.,0.,0.));
#772=DIRECTION('',(0.,1.,0.));
#773=DIRECTION('',(-1.,0.,0.));
#774=DIRECTION('',(0.,1.,0.));
#775=DIRECTION('',(-1.,0.,0.));
#776=DIRECTION('',(0.,-1.,0.));
#777=DIRECTION('',(-1.,0.,0.));
#778=DIRECTION('center_axis',(1.,0.,0.));
#779=DIRECTION('ref_axis',(0.,-1.,0.));
#780=DIRECTION('',(0.,0.,1.));
#781=DIRECTION('',(0.,0.,-1.));
#782=DIRECTION('',(0.,-1.,0.));
#783=DIRECTION('center_axis',(-1.,0.,0.));
#784=DIRECTION('ref_axis',(0.,1.,0.));
#785=DIRECTION('',(0.,0.,-1.));
#786=DIRECTION('',(0.,1.,0.));
#787=DIRECTION('center_axis',(0.,0.,1.));
#788=DIRECTION('ref_axis',(1.,0.,0.));
#789=DIRECTION('',(-1.,0.,0.));
#790=DIRECTION('center_axis',(0.,0.,-1.));
#791=DIRECTION('ref_axis',(-0.707106781186547,0.707106781186547,0.));
#792=DIRECTION('',(0.,-1.,0.));
#793=DIRECTION('center_axis',(0.,0.,-1.));
#794=DIRECTION('ref_axis',(-0.707106781186547,-0.707106781186547,0.));
#795=DIRECTION('',(1.,0.,0.));
#796=DIRECTION('',(0.,1.,0.));
#797=DIRECTION('',(-1.,0.,0.));
#798=DIRECTION('center_axis',(0.,0.,1.));
#799=DIRECTION('ref_axis',(1.,0.,0.));
#800=DIRECTION('',(1.,0.,0.));
#801=DIRECTION('',(-1.,0.,0.));
#802=DIRECTION('',(0.,-1.,0.));
#803=DIRECTION('',(1.,0.,0.));
#804=DIRECTION('center_axis',(0.,0.,-1.));
#805=DIRECTION('ref_axis',(0.707106781186547,-0.707106781186547,0.));
#806=DIRECTION('',(0.,1.,0.));
#807=DIRECTION('center_axis',(0.,0.,-1.));
#808=DIRECTION('ref_axis',(0.707106781186547,0.707106781186547,0.));
#809=DIRECTION('',(-1.,0.,0.));
#810=DIRECTION('center_axis',(-1.,0.,0.));
#811=DIRECTION('ref_axis',(0.,1.,0.));
#812=DIRECTION('',(0.,0.,1.));
#813=DIRECTION('',(0.,0.,-1.));
#814=DIRECTION('center_axis',(1.,0.,0.));
#815=DIRECTION('ref_axis',(0.,-1.,0.));
#816=DIRECTION('',(0.,0.,-1.));
#817=DIRECTION('',(0.,0.,1.));
#818=DIRECTION('center_axis',(0.,-1.,0.));
#819=DIRECTION('ref_axis',(1.,0.,0.));
#820=DIRECTION('',(0.,0.,1.));
#821=DIRECTION('',(1.,0.,0.));
#822=DIRECTION('',(0.,0.,-1.));
#823=DIRECTION('center_axis',(0.,-1.,0.));
#824=DIRECTION('ref_axis',(-1.,0.,0.));
#825=DIRECTION('center_axis',(0.,-1.,0.));
#826=DIRECTION('ref_axis',(-1.,0.,0.));
#827=DIRECTION('center_axis',(0.,1.,0.));
#828=DIRECTION('ref_axis',(1.,0.,0.));
#829=DIRECTION('center_axis',(0.,0.,1.));
#830=DIRECTION('ref_axis',(-0.707106781186547,-0.707106781186547,0.));
#831=DIRECTION('',(0.,0.,-1.));
#832=DIRECTION('center_axis',(0.,0.,1.));
#833=DIRECTION('ref_axis',(-0.707106781186547,-0.707106781186547,0.));
#834=DIRECTION('center_axis',(-1.,0.,0.));
#835=DIRECTION('ref_axis',(0.,-1.,0.));
#836=DIRECTION('',(0.,0.,1.));
#837=DIRECTION('',(0.,-1.,0.));
#838=DIRECTION('center_axis',(0.,0.,1.));
#839=DIRECTION('ref_axis',(0.707106781186547,-0.707106781186547,0.));
#840=DIRECTION('center_axis',(0.,0.,1.));
#841=DIRECTION('ref_axis',(0.707106781186547,-0.707106781186547,0.));
#842=DIRECTION('',(0.,0.,1.));
#843=DIRECTION('center_axis',(1.,0.,0.));
#844=DIRECTION('ref_axis',(0.,1.,0.));
#845=DIRECTION('',(0.,1.,0.));
#846=DIRECTION('',(0.,0.,-1.));
#847=DIRECTION('center_axis',(0.,0.,1.));
#848=DIRECTION('ref_axis',(0.707106781186547,0.707106781186547,0.));
#849=DIRECTION('center_axis',(0.,0.,1.));
#850=DIRECTION('ref_axis',(0.707106781186547,0.707106781186547,0.));
#851=DIRECTION('',(0.,0.,1.));
#852=DIRECTION('center_axis',(0.,0.,1.));
#853=DIRECTION('ref_axis',(-0.707106781186547,0.707106781186547,0.));
#854=DIRECTION('',(0.,0.,-1.));
#855=DIRECTION('center_axis',(0.,0.,1.));
#856=DIRECTION('ref_axis',(-0.707106781186547,0.707106781186547,0.));
#857=DIRECTION('center_axis',(0.,1.,0.));
#858=DIRECTION('ref_axis',(-1.,0.,0.));
#859=DIRECTION('',(-1.,0.,0.));
#860=DIRECTION('center_axis',(0.,0.,1.));
#861=DIRECTION('ref_axis',(1.,0.,0.));
#862=CARTESIAN_POINT('',(0.,0.,0.));
#863=CARTESIAN_POINT('Origin',(50.8,50.8,7.));
#864=CARTESIAN_POINT('',(48.41875,50.8,7.));
#865=CARTESIAN_POINT('Origin',(50.8,50.8,7.));
#866=CARTESIAN_POINT('',(48.41875,50.8,0.));
#867=CARTESIAN_POINT('',(48.41875,50.8,7.));
#868=CARTESIAN_POINT('Origin',(50.8,50.8,0.));
#869=CARTESIAN_POINT('Origin',(-50.8,50.8,7.));
#870=CARTESIAN_POINT('',(-53.18125,50.8,7.));
#871=CARTESIAN_POINT('Origin',(-50.8,50.8,7.));
#872=CARTESIAN_POINT('',(-53.18125,50.8,0.));
#873=CARTESIAN_POINT('',(-53.18125,50.8,7.));
#874=CARTESIAN_POINT('Origin',(-50.8,50.8,0.));
#875=CARTESIAN_POINT('Origin',(50.8,-50.8,7.));
#876=CARTESIAN_POINT('',(48.41875,-50.8,7.));
#877=CARTESIAN_POINT('Origin',(50.8,-50.8,7.));
#878=CARTESIAN_POINT('',(48.41875,-50.8,0.));
#879=CARTESIAN_POINT('',(48.41875,-50.8,7.));
#880=CARTESIAN_POINT('Origin',(50.8,-50.8,0.));
#881=CARTESIAN_POINT('Origin',(-50.8,-50.8,7.));
#882=CARTESIAN_POINT('',(-53.18125,-50.8,7.));
#883=CARTESIAN_POINT('Origin',(-50.8,-50.8,7.));
#884=CARTESIAN_POINT('',(-53.18125,-50.8,0.));
#885=CARTESIAN_POINT('',(-53.18125,-50.8,7.));
#886=CARTESIAN_POINT('Origin',(-50.8,-50.8,0.));
#887=CARTESIAN_POINT('Origin',(44.91875,-44.91875,7.));
#888=CARTESIAN_POINT('',(62.977,-44.91875,7.));
#889=CARTESIAN_POINT('',(44.91875,-44.91875,7.));
#890=CARTESIAN_POINT('',(62.977,-44.91875,7.));
#891=CARTESIAN_POINT('',(62.977,-44.91875,5.));
#892=CARTESIAN_POINT('',(62.977,-44.91875,7.));
#893=CARTESIAN_POINT('',(44.91875,-44.91875,5.));
#894=CARTESIAN_POINT('',(27.697875,-44.91875,5.));
#895=CARTESIAN_POINT('',(44.91875,-44.91875,7.));
#896=CARTESIAN_POINT('Origin',(44.91875,-53.7567007984443,7.));
#897=CARTESIAN_POINT('',(44.91875,-53.7567007984443,7.));
#898=CARTESIAN_POINT('',(44.91875,-44.91875,7.));
#899=CARTESIAN_POINT('',(44.91875,-53.7567007984443,5.));
#900=CARTESIAN_POINT('',(44.91875,-28.3915255988333,5.));
#901=CARTESIAN_POINT('',(44.91875,-53.7567007984443,7.));
#902=CARTESIAN_POINT('Origin',(62.977,47.704,7.));
#903=CARTESIAN_POINT('',(62.977,47.704,7.));
#904=CARTESIAN_POINT('',(62.977,23.7081373003889,7.));
#905=CARTESIAN_POINT('',(62.977,47.704,5.));
#906=CARTESIAN_POINT('',(62.977,47.704,7.));
#907=CARTESIAN_POINT('',(62.977,-53.7567007984443,5.));
#908=CARTESIAN_POINT('Origin',(-42.023,47.704,7.));
#909=CARTESIAN_POINT('',(-37.7852171407425,47.704,7.));
#910=CARTESIAN_POINT('',(-37.7852171407425,47.704,5.));
#911=CARTESIAN_POINT('',(-37.7852171407425,47.704,7.));
#912=CARTESIAN_POINT('',(2.977,47.704,5.));
#913=CARTESIAN_POINT('',(62.977,47.704,5.));
#914=CARTESIAN_POINT('',(2.977,47.704,7.));
#915=CARTESIAN_POINT('',(2.977,47.704,7.));
#916=CARTESIAN_POINT('',(-18.5625625,47.704,7.));
#917=CARTESIAN_POINT('Origin',(-38.7852171407425,5.90377130022857,7.));
#918=CARTESIAN_POINT('',(-42.023,5.90377130022857,5.));
#919=CARTESIAN_POINT('',(-42.023,5.90377130022857,7.));
#920=CARTESIAN_POINT('',(-42.023,5.90377130022857,7.));
#921=CARTESIAN_POINT('',(-38.7852171407425,5.90377130022857,5.));
#922=CARTESIAN_POINT('',(-14.1541085703712,5.90377130022857,5.));
#923=CARTESIAN_POINT('',(-38.7852171407425,5.90377130022857,7.));
#924=CARTESIAN_POINT('',(-38.7852171407425,5.90377130022857,7.));
#925=CARTESIAN_POINT('',(-38.7852171407425,5.90377130022857,7.));
#926=CARTESIAN_POINT('Origin',(-37.7852171407425,13.9037713002286,7.));
#927=CARTESIAN_POINT('',(-37.7852171407425,6.90377130022857,7.));
#928=CARTESIAN_POINT('',(-37.7852171407425,13.9037713002286,7.));
#929=CARTESIAN_POINT('',(-37.7852171407425,6.90377130022857,5.));
#930=CARTESIAN_POINT('',(-37.7852171407425,6.90377130022857,7.));
#931=CARTESIAN_POINT('',(-37.7852171407425,5.4387104505032,5.));
#932=CARTESIAN_POINT('Origin',(-38.7852171407425,6.90377130022858,7.));
#933=CARTESIAN_POINT('Origin',(-38.7852171407425,6.90377130022858,7.));
#934=CARTESIAN_POINT('Origin',(-38.7852171407425,6.90377130022858,5.));
#935=CARTESIAN_POINT('Origin',(-42.023,-53.7567007984443,7.));
#936=CARTESIAN_POINT('',(-42.023,-53.7567007984443,7.));
#937=CARTESIAN_POINT('',(-42.023,-27.0222130988333,7.));
#938=CARTESIAN_POINT('',(-42.023,-53.7567007984443,5.));
#939=CARTESIAN_POINT('',(-42.023,-53.7567007984443,7.));
#940=CARTESIAN_POINT('',(-42.023,47.704,5.));
#941=CARTESIAN_POINT('Origin',(10.477,-3.02635039922217,5.));
#942=CARTESIAN_POINT('',(17.977,47.704,5.));
#943=CARTESIAN_POINT('',(62.977,47.704,5.));
#944=CARTESIAN_POINT('',(17.977,58.18125,5.));
#945=CARTESIAN_POINT('',(17.977,44.704,5.));
#946=CARTESIAN_POINT('',(2.977,58.18125,5.));
#947=CARTESIAN_POINT('',(39.227,58.18125,5.));
#948=CARTESIAN_POINT('',(2.977,59.18125,5.));
#949=CARTESIAN_POINT('',(2.977,-53.7567007984443,5.));
#950=CARTESIAN_POINT('',(-42.023,-53.7567007984443,5.));
#951=CARTESIAN_POINT('',(2.977,-58.7567007984443,5.));
#952=CARTESIAN_POINT('',(2.977,-50.7567007984443,5.));
#953=CARTESIAN_POINT('',(17.977,-58.7567007984443,5.));
#954=CARTESIAN_POINT('',(-23.852125,-58.7567007984443,5.));
#955=CARTESIAN_POINT('',(17.977,-53.7567007984443,5.));
#956=CARTESIAN_POINT('',(17.977,-59.7567007984443,5.));
#957=CARTESIAN_POINT('',(-42.023,-53.7567007984443,5.));
#958=CARTESIAN_POINT('Origin',(17.977,59.18125,7.));
#959=CARTESIAN_POINT('',(17.977,58.18125,7.));
#960=CARTESIAN_POINT('',(17.977,58.18125,3.5));
#961=CARTESIAN_POINT('',(17.977,47.704,7.));
#962=CARTESIAN_POINT('',(17.977,47.704,7.));
#963=CARTESIAN_POINT('',(17.977,29.4467623003889,7.));
#964=CARTESIAN_POINT('Origin',(2.977,44.704,7.));
#965=CARTESIAN_POINT('',(2.977,58.18125,7.));
#966=CARTESIAN_POINT('',(2.977,58.18125,3.5));
#967=CARTESIAN_POINT('',(2.977,22.2081373003889,7.));
#968=CARTESIAN_POINT('Origin',(4.897875,-0.287725399222172,7.));
#969=CARTESIAN_POINT('',(-55.68125,58.18125,7.));
#970=CARTESIAN_POINT('',(67.977,58.18125,7.));
#971=CARTESIAN_POINT('',(-58.18125,55.68125,7.));
#972=CARTESIAN_POINT('Origin',(-55.68125,55.68125,7.));
#973=CARTESIAN_POINT('',(-58.18125,-56.2567007984443,7.));
#974=CARTESIAN_POINT('',(-58.18125,58.18125,7.));
#975=CARTESIAN_POINT('',(-55.68125,-58.7567007984443,7.));
#976=CARTESIAN_POINT('Origin',(-55.68125,-56.2567007984443,7.));
#977=CARTESIAN_POINT('',(2.977,-58.7567007984443,7.));
#978=CARTESIAN_POINT('',(-58.18125,-58.7567007984443,7.));
#979=CARTESIAN_POINT('',(2.977,-53.7567007984443,7.));
#980=CARTESIAN_POINT('',(2.977,-30.0222130988333,7.));
#981=CARTESIAN_POINT('',(33.9374375,-53.7567007984443,7.));
#982=CARTESIAN_POINT('Origin',(4.897875,-0.287725399222172,7.));
#983=CARTESIAN_POINT('',(-18.5625625,47.704,7.));
#984=CARTESIAN_POINT('',(17.977,-53.7567007984443,7.));
#985=CARTESIAN_POINT('',(33.9374375,-53.7567007984443,7.));
#986=CARTESIAN_POINT('',(17.977,-58.7567007984443,7.));
#987=CARTESIAN_POINT('',(17.977,-25.5222130988333,7.));
#988=CARTESIAN_POINT('',(65.477,-58.7567007984443,7.));
#989=CARTESIAN_POINT('',(-58.18125,-58.7567007984443,7.));
#990=CARTESIAN_POINT('',(67.977,-56.2567007984443,7.));
#991=CARTESIAN_POINT('Origin',(65.477,-56.2567007984443,7.));
#992=CARTESIAN_POINT('',(67.977,55.68125,7.));
#993=CARTESIAN_POINT('',(67.977,-58.7567007984443,7.));
#994=CARTESIAN_POINT('',(65.477,58.18125,7.));
#995=CARTESIAN_POINT('Origin',(65.477,55.68125,7.));
#996=CARTESIAN_POINT('',(67.977,58.18125,7.));
#997=CARTESIAN_POINT('Origin',(2.977,-59.7567007984443,7.));
#998=CARTESIAN_POINT('',(2.977,-58.7567007984443,3.5));
#999=CARTESIAN_POINT('',(2.977,-53.7567007984443,7.));
#1000=CARTESIAN_POINT('Origin',(17.977,-50.7567007984443,7.));
#1001=CARTESIAN_POINT('',(17.977,-58.7567007984443,3.5));
#1002=CARTESIAN_POINT('',(17.977,-53.7567007984443,7.));
#1003=CARTESIAN_POINT('Origin',(-58.18125,-58.7567007984443,0.));
#1004=CARTESIAN_POINT('',(-55.68125,-58.7567007984443,0.));
#1005=CARTESIAN_POINT('',(-55.68125,-58.7567007984443,0.));
#1006=CARTESIAN_POINT('',(65.477,-58.7567007984443,0.));
#1007=CARTESIAN_POINT('',(-58.18125,-58.7567007984443,0.));
#1008=CARTESIAN_POINT('',(65.477,-58.7567007984443,0.));
#1009=CARTESIAN_POINT('Origin',(62.977,-53.7567007984443,7.));
#1010=CARTESIAN_POINT('Origin',(62.977,-53.7567007984443,7.));
#1011=CARTESIAN_POINT('Origin',(-42.023,47.704,7.));
#1012=CARTESIAN_POINT('Origin',(-55.68125,-56.2567007984443,0.));
#1013=CARTESIAN_POINT('',(-58.18125,-56.2567007984443,0.));
#1014=CARTESIAN_POINT('',(-58.18125,-56.2567007984443,0.));
#1015=CARTESIAN_POINT('Origin',(-55.68125,-56.2567007984443,0.));
#1016=CARTESIAN_POINT('Origin',(-58.18125,58.18125,0.));
#1017=CARTESIAN_POINT('',(-58.18125,55.68125,0.));
#1018=CARTESIAN_POINT('',(-58.18125,55.68125,0.));
#1019=CARTESIAN_POINT('',(-58.18125,58.18125,0.));
#1020=CARTESIAN_POINT('Origin',(65.477,-56.2567007984443,0.));
#1021=CARTESIAN_POINT('',(67.977,-56.2567007984443,0.));
#1022=CARTESIAN_POINT('Origin',(65.477,-56.2567007984443,0.));
#1023=CARTESIAN_POINT('',(67.977,-56.2567007984443,0.));
#1024=CARTESIAN_POINT('Origin',(67.977,-58.7567007984443,0.));
#1025=CARTESIAN_POINT('',(67.977,55.68125,0.));
#1026=CARTESIAN_POINT('',(67.977,-58.7567007984443,0.));
#1027=CARTESIAN_POINT('',(67.977,55.68125,0.));
#1028=CARTESIAN_POINT('Origin',(65.477,55.68125,0.));
#1029=CARTESIAN_POINT('',(65.477,58.18125,0.));
#1030=CARTESIAN_POINT('Origin',(65.477,55.68125,0.));
#1031=CARTESIAN_POINT('',(65.477,58.18125,0.));
#1032=CARTESIAN_POINT('Origin',(-55.68125,55.68125,0.));
#1033=CARTESIAN_POINT('',(-55.68125,58.18125,0.));
#1034=CARTESIAN_POINT('',(-55.68125,58.18125,0.));
#1035=CARTESIAN_POINT('Origin',(-55.68125,55.68125,0.));
#1036=CARTESIAN_POINT('Origin',(67.977,58.18125,0.));
#1037=CARTESIAN_POINT('',(67.977,58.18125,0.));
#1038=CARTESIAN_POINT('Origin',(4.897875,-0.287725399222172,0.));
#1039=UNCERTAINTY_MEASURE_WITH_UNIT(LENGTH_MEASURE(0.01),#1043,
'DISTANCE_ACCURACY_VALUE',
'Maximum model space distance between geometric entities at asserted c
onnectivities');
#1040=UNCERTAINTY_MEASURE_WITH_UNIT(LENGTH_MEASURE(0.01),#1043,
'DISTANCE_ACCURACY_VALUE',
'Maximum model space distance between geometric entities at asserted c
onnectivities');
#1041=(
GEOMETRIC_REPRESENTATION_CONTEXT(3)
GLOBAL_UNCERTAINTY_ASSIGNED_CONTEXT((#1039))
GLOBAL_UNIT_ASSIGNED_CONTEXT((#1043,#1045,#1046))
REPRESENTATION_CONTEXT('','3D')
);
#1042=(
GEOMETRIC_REPRESENTATION_CONTEXT(3)
GLOBAL_UNCERTAINTY_ASSIGNED_CONTEXT((#1040))
GLOBAL_UNIT_ASSIGNED_CONTEXT((#1043,#1045,#1046))
REPRESENTATION_CONTEXT('','3D')
);
#1043=(
LENGTH_UNIT()
NAMED_UNIT(*)
SI_UNIT(.MILLI.,.METRE.)
);
#1044=(
LENGTH_UNIT()
NAMED_UNIT(*)
SI_UNIT($,.METRE.)
);
#1045=(
NAMED_UNIT(*)
PLANE_ANGLE_UNIT()
SI_UNIT($,.RADIAN.)
);
#1046=(
NAMED_UNIT(*)
SI_UNIT($,.STERADIAN.)
SOLID_ANGLE_UNIT()
);
#1047=SHAPE_DEFINITION_REPRESENTATION(#1048,#1049);
#1048=PRODUCT_DEFINITION_SHAPE('',$,#1051);
#1049=SHAPE_REPRESENTATION('',(#643),#1041);
#1050=PRODUCT_DEFINITION_CONTEXT('part definition',#1055,'design');
#1051=PRODUCT_DEFINITION('2026-08-13-14-45-39-044','(Unsaved)',#1052,#1050);
#1052=PRODUCT_DEFINITION_FORMATION('',$,#1057);
#1053=PRODUCT_RELATED_PRODUCT_CATEGORY('(Unsaved)','(Unsaved)',(#1057));
#1054=APPLICATION_PROTOCOL_DEFINITION('international standard',
'automotive_design',2009,#1055);
#1055=APPLICATION_CONTEXT(
'Core Data for Automotive Mechanical Design Process');
#1056=PRODUCT_CONTEXT('part definition',#1055,'mechanical');
#1057=PRODUCT('2026-08-13-14-45-39-044','(Unsaved)',$,(#1056));
#1058=PRESENTATION_STYLE_ASSIGNMENT((#1059));
#1059=SURFACE_STYLE_USAGE(.BOTH.,#1060);
#1060=SURFACE_SIDE_STYLE('',(#1061));
#1061=SURFACE_STYLE_FILL_AREA(#1062);
#1062=FILL_AREA_STYLE('Steel - Satin',(#1063));
#1063=FILL_AREA_STYLE_COLOUR('Steel - Satin',#1064);
#1064=COLOUR_RGB('Steel - Satin',0.627450980392157,0.627450980392157,0.627450980392157);
ENDSEC;
END-ISO-10303-21;
