ISO-10303-21;
HEADER;
/* Generated by software containing ST-Developer
 * from STEP Tools, Inc. (www.steptools.com) 
 */

FILE_DESCRIPTION(
/* description */ (''),
/* implementation_level */ '2;1');

FILE_NAME(
/* name */ 'pin_grid_wafer_jig_al.step',
/* time_stamp */ '2026-08-13T12:31:02-07:00',
/* author */ (''),
/* organization */ (''),
/* preprocessor_version */ 'ST-DEVELOPER v20.1',
/* originating_system */ 'Autodesk Translation Framework v15.8.0.0',
/* authorisation */ '');

FILE_SCHEMA (('AUTOMOTIVE_DESIGN { 1 0 10303 214 3 1 1 }'));
ENDSEC;

DATA;
#10=MECHANICAL_DESIGN_GEOMETRIC_PRESENTATION_REPRESENTATION('',(#13),#1009);
#11=SHAPE_REPRESENTATION_RELATIONSHIP('SRR','None',#1016,#12);
#12=ADVANCED_BREP_SHAPE_REPRESENTATION('',(#14),#1008);
#13=STYLED_ITEM('',(#1025),#14);
#14=MANIFOLD_SOLID_BREP('Body1',#609);
#15=FACE_BOUND('',#85,.T.);
#16=FACE_BOUND('',#86,.T.);
#17=FACE_BOUND('',#91,.T.);
#18=FACE_BOUND('',#92,.T.);
#19=FACE_BOUND('',#108,.T.);
#20=FACE_BOUND('',#109,.T.);
#21=FACE_BOUND('',#110,.T.);
#22=FACE_BOUND('',#111,.T.);
#23=PLANE('',#635);
#24=PLANE('',#636);
#25=PLANE('',#637);
#26=PLANE('',#641);
#27=PLANE('',#642);
#28=PLANE('',#643);
#29=PLANE('',#646);
#30=PLANE('',#647);
#31=PLANE('',#648);
#32=PLANE('',#649);
#33=PLANE('',#652);
#34=PLANE('',#653);
#35=PLANE('',#654);
#36=PLANE('',#655);
#37=PLANE('',#656);
#38=PLANE('',#657);
#39=PLANE('',#658);
#40=PLANE('',#661);
#41=PLANE('',#664);
#42=PLANE('',#669);
#43=PLANE('',#670);
#44=FACE_OUTER_BOUND('',#74,.T.);
#45=FACE_OUTER_BOUND('',#75,.T.);
#46=FACE_OUTER_BOUND('',#76,.T.);
#47=FACE_OUTER_BOUND('',#77,.T.);
#48=FACE_OUTER_BOUND('',#78,.T.);
#49=FACE_OUTER_BOUND('',#79,.T.);
#50=FACE_OUTER_BOUND('',#80,.T.);
#51=FACE_OUTER_BOUND('',#81,.T.);
#52=FACE_OUTER_BOUND('',#82,.T.);
#53=FACE_OUTER_BOUND('',#83,.T.);
#54=FACE_OUTER_BOUND('',#84,.T.);
#55=FACE_OUTER_BOUND('',#87,.T.);
#56=FACE_OUTER_BOUND('',#88,.T.);
#57=FACE_OUTER_BOUND('',#89,.T.);
#58=FACE_OUTER_BOUND('',#90,.T.);
#59=FACE_OUTER_BOUND('',#93,.T.);
#60=FACE_OUTER_BOUND('',#94,.T.);
#61=FACE_OUTER_BOUND('',#95,.T.);
#62=FACE_OUTER_BOUND('',#96,.T.);
#63=FACE_OUTER_BOUND('',#97,.T.);
#64=FACE_OUTER_BOUND('',#98,.T.);
#65=FACE_OUTER_BOUND('',#99,.T.);
#66=FACE_OUTER_BOUND('',#100,.T.);
#67=FACE_OUTER_BOUND('',#101,.T.);
#68=FACE_OUTER_BOUND('',#102,.T.);
#69=FACE_OUTER_BOUND('',#103,.T.);
#70=FACE_OUTER_BOUND('',#104,.T.);
#71=FACE_OUTER_BOUND('',#105,.T.);
#72=FACE_OUTER_BOUND('',#106,.T.);
#73=FACE_OUTER_BOUND('',#107,.T.);
#74=EDGE_LOOP('',(#402,#403,#404,#405));
#75=EDGE_LOOP('',(#406,#407,#408,#409));
#76=EDGE_LOOP('',(#410,#411,#412,#413));
#77=EDGE_LOOP('',(#414,#415,#416,#417));
#78=EDGE_LOOP('',(#418,#419,#420,#421));
#79=EDGE_LOOP('',(#422,#423,#424,#425));
#80=EDGE_LOOP('',(#426,#427,#428,#429));
#81=EDGE_LOOP('',(#430,#431,#432,#433));
#82=EDGE_LOOP('',(#434,#435,#436,#437));
#83=EDGE_LOOP('',(#438,#439,#440,#441));
#84=EDGE_LOOP('',(#442,#443,#444,#445,#446,#447,#448,#449,#450,#451,#452,
#453));
#85=EDGE_LOOP('',(#454));
#86=EDGE_LOOP('',(#455));
#87=EDGE_LOOP('',(#456,#457,#458,#459));
#88=EDGE_LOOP('',(#460,#461,#462,#463));
#89=EDGE_LOOP('',(#464,#465,#466,#467,#468,#469,#470,#471,#472,#473,#474,
#475,#476,#477,#478,#479));
#90=EDGE_LOOP('',(#480,#481,#482,#483,#484,#485,#486,#487,#488,#489,#490,
#491));
#91=EDGE_LOOP('',(#492));
#92=EDGE_LOOP('',(#493));
#93=EDGE_LOOP('',(#494,#495,#496,#497));
#94=EDGE_LOOP('',(#498,#499,#500,#501));
#95=EDGE_LOOP('',(#502,#503,#504,#505));
#96=EDGE_LOOP('',(#506,#507,#508,#509,#510,#511,#512,#513));
#97=EDGE_LOOP('',(#514,#515,#516,#517));
#98=EDGE_LOOP('',(#518,#519,#520,#521));
#99=EDGE_LOOP('',(#522,#523,#524,#525));
#100=EDGE_LOOP('',(#526,#527,#528,#529));
#101=EDGE_LOOP('',(#530,#531,#532,#533));
#102=EDGE_LOOP('',(#534,#535,#536,#537));
#103=EDGE_LOOP('',(#538,#539,#540,#541));
#104=EDGE_LOOP('',(#542,#543,#544,#545));
#105=EDGE_LOOP('',(#546,#547,#548,#549));
#106=EDGE_LOOP('',(#550,#551,#552,#553,#554,#555,#556,#557));
#107=EDGE_LOOP('',(#558,#559,#560,#561,#562,#563,#564,#565));
#108=EDGE_LOOP('',(#566));
#109=EDGE_LOOP('',(#567));
#110=EDGE_LOOP('',(#568));
#111=EDGE_LOOP('',(#569));
#112=LINE('',#840,#178);
#113=LINE('',#846,#179);
#114=LINE('',#852,#180);
#115=LINE('',#858,#181);
#116=LINE('',#863,#182);
#117=LINE('',#865,#183);
#118=LINE('',#867,#184);
#119=LINE('',#868,#185);
#120=LINE('',#871,#186);
#121=LINE('',#873,#187);
#122=LINE('',#874,#188);
#123=LINE('',#877,#189);
#124=LINE('',#879,#190);
#125=LINE('',#880,#191);
#126=LINE('',#884,#192);
#127=LINE('',#888,#193);
#128=LINE('',#892,#194);
#129=LINE('',#894,#195);
#130=LINE('',#895,#196);
#131=LINE('',#898,#197);
#132=LINE('',#900,#198);
#133=LINE('',#901,#199);
#134=LINE('',#904,#200);
#135=LINE('',#906,#201);
#136=LINE('',#908,#202);
#137=LINE('',#912,#203);
#138=LINE('',#916,#204);
#139=LINE('',#918,#205);
#140=LINE('',#919,#206);
#141=LINE('',#923,#207);
#142=LINE('',#925,#208);
#143=LINE('',#927,#209);
#144=LINE('',#928,#210);
#145=LINE('',#931,#211);
#146=LINE('',#933,#212);
#147=LINE('',#934,#213);
#148=LINE('',#936,#214);
#149=LINE('',#937,#215);
#150=LINE('',#938,#216);
#151=LINE('',#940,#217);
#152=LINE('',#942,#218);
#153=LINE('',#944,#219);
#154=LINE('',#946,#220);
#155=LINE('',#947,#221);
#156=LINE('',#949,#222);
#157=LINE('',#951,#223);
#158=LINE('',#953,#224);
#159=LINE('',#955,#225);
#160=LINE('',#959,#226);
#161=LINE('',#962,#227);
#162=LINE('',#965,#228);
#163=LINE('',#966,#229);
#164=LINE('',#968,#230);
#165=LINE('',#969,#231);
#166=LINE('',#972,#232);
#167=LINE('',#974,#233);
#168=LINE('',#975,#234);
#169=LINE('',#981,#235);
#170=LINE('',#985,#236);
#171=LINE('',#986,#237);
#172=LINE('',#990,#238);
#173=LINE('',#993,#239);
#174=LINE('',#994,#240);
#175=LINE('',#998,#241);
#176=LINE('',#1001,#242);
#177=LINE('',#1004,#243);
#178=VECTOR('',#677,2.38125);
#179=VECTOR('',#684,2.38125);
#180=VECTOR('',#691,2.38125);
#181=VECTOR('',#698,2.38125);
#182=VECTOR('',#703,10.);
#183=VECTOR('',#704,10.);
#184=VECTOR('',#705,10.);
#185=VECTOR('',#706,10.);
#186=VECTOR('',#709,10.);
#187=VECTOR('',#710,10.);
#188=VECTOR('',#711,10.);
#189=VECTOR('',#714,10.);
#190=VECTOR('',#715,10.);
#191=VECTOR('',#716,10.);
#192=VECTOR('',#719,10.);
#193=VECTOR('',#722,10.);
#194=VECTOR('',#727,10.);
#195=VECTOR('',#728,10.);
#196=VECTOR('',#729,10.);
#197=VECTOR('',#732,10.);
#198=VECTOR('',#733,10.);
#199=VECTOR('',#734,10.);
#200=VECTOR('',#737,10.);
#201=VECTOR('',#738,10.);
#202=VECTOR('',#739,10.);
#203=VECTOR('',#742,10.);
#204=VECTOR('',#745,10.);
#205=VECTOR('',#746,10.);
#206=VECTOR('',#747,10.);
#207=VECTOR('',#750,10.);
#208=VECTOR('',#751,10.);
#209=VECTOR('',#752,10.);
#210=VECTOR('',#753,10.);
#211=VECTOR('',#756,10.);
#212=VECTOR('',#757,10.);
#213=VECTOR('',#758,10.);
#214=VECTOR('',#761,10.);
#215=VECTOR('',#762,10.);
#216=VECTOR('',#763,10.);
#217=VECTOR('',#764,10.);
#218=VECTOR('',#765,10.);
#219=VECTOR('',#766,10.);
#220=VECTOR('',#767,10.);
#221=VECTOR('',#768,10.);
#222=VECTOR('',#771,10.);
#223=VECTOR('',#772,10.);
#224=VECTOR('',#773,10.);
#225=VECTOR('',#774,10.);
#226=VECTOR('',#777,10.);
#227=VECTOR('',#780,10.);
#228=VECTOR('',#785,10.);
#229=VECTOR('',#786,10.);
#230=VECTOR('',#789,10.);
#231=VECTOR('',#790,10.);
#232=VECTOR('',#793,10.);
#233=VECTOR('',#794,10.);
#234=VECTOR('',#795,10.);
#235=VECTOR('',#804,10.);
#236=VECTOR('',#809,10.);
#237=VECTOR('',#810,10.);
#238=VECTOR('',#815,10.);
#239=VECTOR('',#818,10.);
#240=VECTOR('',#819,10.);
#241=VECTOR('',#824,10.);
#242=VECTOR('',#827,10.);
#243=VECTOR('',#832,10.);
#244=CIRCLE('',#624,2.38125);
#245=CIRCLE('',#625,2.38125);
#246=CIRCLE('',#627,2.38125);
#247=CIRCLE('',#628,2.38125);
#248=CIRCLE('',#630,2.38125);
#249=CIRCLE('',#631,2.38125);
#250=CIRCLE('',#633,2.38125);
#251=CIRCLE('',#634,2.38125);
#252=CIRCLE('',#639,4.);
#253=CIRCLE('',#640,4.);
#254=CIRCLE('',#644,2.5);
#255=CIRCLE('',#645,2.5);
#256=CIRCLE('',#650,2.5);
#257=CIRCLE('',#651,2.5);
#258=CIRCLE('',#660,2.5);
#259=CIRCLE('',#663,2.5);
#260=CIRCLE('',#666,2.5);
#261=CIRCLE('',#668,2.5);
#262=VERTEX_POINT('',#837);
#263=VERTEX_POINT('',#839);
#264=VERTEX_POINT('',#843);
#265=VERTEX_POINT('',#845);
#266=VERTEX_POINT('',#849);
#267=VERTEX_POINT('',#851);
#268=VERTEX_POINT('',#855);
#269=VERTEX_POINT('',#857);
#270=VERTEX_POINT('',#861);
#271=VERTEX_POINT('',#862);
#272=VERTEX_POINT('',#864);
#273=VERTEX_POINT('',#866);
#274=VERTEX_POINT('',#870);
#275=VERTEX_POINT('',#872);
#276=VERTEX_POINT('',#876);
#277=VERTEX_POINT('',#878);
#278=VERTEX_POINT('',#882);
#279=VERTEX_POINT('',#883);
#280=VERTEX_POINT('',#885);
#281=VERTEX_POINT('',#887);
#282=VERTEX_POINT('',#891);
#283=VERTEX_POINT('',#893);
#284=VERTEX_POINT('',#897);
#285=VERTEX_POINT('',#899);
#286=VERTEX_POINT('',#903);
#287=VERTEX_POINT('',#905);
#288=VERTEX_POINT('',#907);
#289=VERTEX_POINT('',#909);
#290=VERTEX_POINT('',#911);
#291=VERTEX_POINT('',#913);
#292=VERTEX_POINT('',#915);
#293=VERTEX_POINT('',#917);
#294=VERTEX_POINT('',#921);
#295=VERTEX_POINT('',#922);
#296=VERTEX_POINT('',#924);
#297=VERTEX_POINT('',#926);
#298=VERTEX_POINT('',#930);
#299=VERTEX_POINT('',#932);
#300=VERTEX_POINT('',#939);
#301=VERTEX_POINT('',#941);
#302=VERTEX_POINT('',#943);
#303=VERTEX_POINT('',#945);
#304=VERTEX_POINT('',#950);
#305=VERTEX_POINT('',#952);
#306=VERTEX_POINT('',#954);
#307=VERTEX_POINT('',#956);
#308=VERTEX_POINT('',#958);
#309=VERTEX_POINT('',#960);
#310=VERTEX_POINT('',#971);
#311=VERTEX_POINT('',#973);
#312=VERTEX_POINT('',#980);
#313=VERTEX_POINT('',#984);
#314=VERTEX_POINT('',#988);
#315=VERTEX_POINT('',#992);
#316=VERTEX_POINT('',#996);
#317=VERTEX_POINT('',#1000);
#318=EDGE_CURVE('',#262,#262,#244,.T.);
#319=EDGE_CURVE('',#262,#263,#112,.T.);
#320=EDGE_CURVE('',#263,#263,#245,.T.);
#321=EDGE_CURVE('',#264,#264,#246,.T.);
#322=EDGE_CURVE('',#264,#265,#113,.T.);
#323=EDGE_CURVE('',#265,#265,#247,.T.);
#324=EDGE_CURVE('',#266,#266,#248,.T.);
#325=EDGE_CURVE('',#266,#267,#114,.T.);
#326=EDGE_CURVE('',#267,#267,#249,.T.);
#327=EDGE_CURVE('',#268,#268,#250,.T.);
#328=EDGE_CURVE('',#268,#269,#115,.T.);
#329=EDGE_CURVE('',#269,#269,#251,.T.);
#330=EDGE_CURVE('',#270,#271,#116,.T.);
#331=EDGE_CURVE('',#272,#270,#117,.T.);
#332=EDGE_CURVE('',#273,#272,#118,.T.);
#333=EDGE_CURVE('',#271,#273,#119,.T.);
#334=EDGE_CURVE('',#271,#274,#120,.T.);
#335=EDGE_CURVE('',#275,#273,#121,.T.);
#336=EDGE_CURVE('',#274,#275,#122,.T.);
#337=EDGE_CURVE('',#276,#270,#123,.T.);
#338=EDGE_CURVE('',#276,#277,#124,.T.);
#339=EDGE_CURVE('',#277,#272,#125,.T.);
#340=EDGE_CURVE('',#278,#279,#126,.T.);
#341=EDGE_CURVE('',#280,#278,#252,.T.);
#342=EDGE_CURVE('',#281,#280,#127,.T.);
#343=EDGE_CURVE('',#279,#281,#253,.T.);
#344=EDGE_CURVE('',#280,#282,#128,.T.);
#345=EDGE_CURVE('',#283,#282,#129,.T.);
#346=EDGE_CURVE('',#281,#283,#130,.T.);
#347=EDGE_CURVE('',#284,#279,#131,.T.);
#348=EDGE_CURVE('',#284,#285,#132,.T.);
#349=EDGE_CURVE('',#285,#278,#133,.T.);
#350=EDGE_CURVE('',#283,#286,#134,.T.);
#351=EDGE_CURVE('',#286,#287,#135,.T.);
#352=EDGE_CURVE('',#287,#288,#136,.T.);
#353=EDGE_CURVE('',#289,#288,#254,.T.);
#354=EDGE_CURVE('',#289,#290,#137,.T.);
#355=EDGE_CURVE('',#291,#290,#255,.T.);
#356=EDGE_CURVE('',#291,#292,#138,.T.);
#357=EDGE_CURVE('',#292,#293,#139,.T.);
#358=EDGE_CURVE('',#293,#284,#140,.T.);
#359=EDGE_CURVE('',#294,#295,#141,.T.);
#360=EDGE_CURVE('',#294,#296,#142,.T.);
#361=EDGE_CURVE('',#297,#296,#143,.T.);
#362=EDGE_CURVE('',#295,#297,#144,.T.);
#363=EDGE_CURVE('',#287,#298,#145,.T.);
#364=EDGE_CURVE('',#299,#286,#146,.T.);
#365=EDGE_CURVE('',#299,#298,#147,.T.);
#366=EDGE_CURVE('',#296,#277,#148,.T.);
#367=EDGE_CURVE('',#298,#294,#149,.T.);
#368=EDGE_CURVE('',#282,#299,#150,.T.);
#369=EDGE_CURVE('',#300,#285,#151,.T.);
#370=EDGE_CURVE('',#301,#300,#152,.T.);
#371=EDGE_CURVE('',#302,#301,#153,.T.);
#372=EDGE_CURVE('',#303,#302,#154,.T.);
#373=EDGE_CURVE('',#275,#303,#155,.T.);
#374=EDGE_CURVE('',#297,#276,#156,.T.);
#375=EDGE_CURVE('',#274,#304,#157,.T.);
#376=EDGE_CURVE('',#304,#305,#158,.T.);
#377=EDGE_CURVE('',#305,#306,#159,.T.);
#378=EDGE_CURVE('',#307,#306,#256,.T.);
#379=EDGE_CURVE('',#307,#308,#160,.T.);
#380=EDGE_CURVE('',#309,#308,#257,.T.);
#381=EDGE_CURVE('',#309,#295,#161,.T.);
#382=EDGE_CURVE('',#301,#292,#162,.T.);
#383=EDGE_CURVE('',#293,#300,#163,.T.);
#384=EDGE_CURVE('',#305,#302,#164,.T.);
#385=EDGE_CURVE('',#303,#304,#165,.T.);
#386=EDGE_CURVE('',#310,#291,#166,.T.);
#387=EDGE_CURVE('',#310,#311,#167,.T.);
#388=EDGE_CURVE('',#306,#311,#168,.T.);
#389=EDGE_CURVE('',#290,#312,#169,.T.);
#390=EDGE_CURVE('',#312,#310,#258,.T.);
#391=EDGE_CURVE('',#313,#289,#170,.T.);
#392=EDGE_CURVE('',#313,#312,#171,.T.);
#393=EDGE_CURVE('',#311,#314,#259,.T.);
#394=EDGE_CURVE('',#314,#307,#172,.T.);
#395=EDGE_CURVE('',#314,#315,#173,.T.);
#396=EDGE_CURVE('',#308,#315,#174,.T.);
#397=EDGE_CURVE('',#315,#316,#260,.T.);
#398=EDGE_CURVE('',#316,#309,#175,.T.);
#399=EDGE_CURVE('',#288,#317,#176,.T.);
#400=EDGE_CURVE('',#317,#313,#261,.T.);
#401=EDGE_CURVE('',#316,#317,#177,.T.);
#402=ORIENTED_EDGE('',*,*,#318,.F.);
#403=ORIENTED_EDGE('',*,*,#319,.T.);
#404=ORIENTED_EDGE('',*,*,#320,.F.);
#405=ORIENTED_EDGE('',*,*,#319,.F.);
#406=ORIENTED_EDGE('',*,*,#321,.F.);
#407=ORIENTED_EDGE('',*,*,#322,.T.);
#408=ORIENTED_EDGE('',*,*,#323,.F.);
#409=ORIENTED_EDGE('',*,*,#322,.F.);
#410=ORIENTED_EDGE('',*,*,#324,.F.);
#411=ORIENTED_EDGE('',*,*,#325,.T.);
#412=ORIENTED_EDGE('',*,*,#326,.F.);
#413=ORIENTED_EDGE('',*,*,#325,.F.);
#414=ORIENTED_EDGE('',*,*,#327,.F.);
#415=ORIENTED_EDGE('',*,*,#328,.T.);
#416=ORIENTED_EDGE('',*,*,#329,.F.);
#417=ORIENTED_EDGE('',*,*,#328,.F.);
#418=ORIENTED_EDGE('',*,*,#330,.F.);
#419=ORIENTED_EDGE('',*,*,#331,.F.);
#420=ORIENTED_EDGE('',*,*,#332,.F.);
#421=ORIENTED_EDGE('',*,*,#333,.F.);
#422=ORIENTED_EDGE('',*,*,#334,.F.);
#423=ORIENTED_EDGE('',*,*,#333,.T.);
#424=ORIENTED_EDGE('',*,*,#335,.F.);
#425=ORIENTED_EDGE('',*,*,#336,.F.);
#426=ORIENTED_EDGE('',*,*,#331,.T.);
#427=ORIENTED_EDGE('',*,*,#337,.F.);
#428=ORIENTED_EDGE('',*,*,#338,.T.);
#429=ORIENTED_EDGE('',*,*,#339,.T.);
#430=ORIENTED_EDGE('',*,*,#340,.F.);
#431=ORIENTED_EDGE('',*,*,#341,.F.);
#432=ORIENTED_EDGE('',*,*,#342,.F.);
#433=ORIENTED_EDGE('',*,*,#343,.F.);
#434=ORIENTED_EDGE('',*,*,#342,.T.);
#435=ORIENTED_EDGE('',*,*,#344,.T.);
#436=ORIENTED_EDGE('',*,*,#345,.F.);
#437=ORIENTED_EDGE('',*,*,#346,.F.);
#438=ORIENTED_EDGE('',*,*,#340,.T.);
#439=ORIENTED_EDGE('',*,*,#347,.F.);
#440=ORIENTED_EDGE('',*,*,#348,.T.);
#441=ORIENTED_EDGE('',*,*,#349,.T.);
#442=ORIENTED_EDGE('',*,*,#346,.T.);
#443=ORIENTED_EDGE('',*,*,#350,.T.);
#444=ORIENTED_EDGE('',*,*,#351,.T.);
#445=ORIENTED_EDGE('',*,*,#352,.T.);
#446=ORIENTED_EDGE('',*,*,#353,.F.);
#447=ORIENTED_EDGE('',*,*,#354,.T.);
#448=ORIENTED_EDGE('',*,*,#355,.F.);
#449=ORIENTED_EDGE('',*,*,#356,.T.);
#450=ORIENTED_EDGE('',*,*,#357,.T.);
#451=ORIENTED_EDGE('',*,*,#358,.T.);
#452=ORIENTED_EDGE('',*,*,#347,.T.);
#453=ORIENTED_EDGE('',*,*,#343,.T.);
#454=ORIENTED_EDGE('',*,*,#321,.T.);
#455=ORIENTED_EDGE('',*,*,#327,.T.);
#456=ORIENTED_EDGE('',*,*,#359,.F.);
#457=ORIENTED_EDGE('',*,*,#360,.T.);
#458=ORIENTED_EDGE('',*,*,#361,.F.);
#459=ORIENTED_EDGE('',*,*,#362,.F.);
#460=ORIENTED_EDGE('',*,*,#363,.F.);
#461=ORIENTED_EDGE('',*,*,#351,.F.);
#462=ORIENTED_EDGE('',*,*,#364,.F.);
#463=ORIENTED_EDGE('',*,*,#365,.T.);
#464=ORIENTED_EDGE('',*,*,#332,.T.);
#465=ORIENTED_EDGE('',*,*,#339,.F.);
#466=ORIENTED_EDGE('',*,*,#366,.F.);
#467=ORIENTED_EDGE('',*,*,#360,.F.);
#468=ORIENTED_EDGE('',*,*,#367,.F.);
#469=ORIENTED_EDGE('',*,*,#365,.F.);
#470=ORIENTED_EDGE('',*,*,#368,.F.);
#471=ORIENTED_EDGE('',*,*,#344,.F.);
#472=ORIENTED_EDGE('',*,*,#341,.T.);
#473=ORIENTED_EDGE('',*,*,#349,.F.);
#474=ORIENTED_EDGE('',*,*,#369,.F.);
#475=ORIENTED_EDGE('',*,*,#370,.F.);
#476=ORIENTED_EDGE('',*,*,#371,.F.);
#477=ORIENTED_EDGE('',*,*,#372,.F.);
#478=ORIENTED_EDGE('',*,*,#373,.F.);
#479=ORIENTED_EDGE('',*,*,#335,.T.);
#480=ORIENTED_EDGE('',*,*,#362,.T.);
#481=ORIENTED_EDGE('',*,*,#374,.T.);
#482=ORIENTED_EDGE('',*,*,#337,.T.);
#483=ORIENTED_EDGE('',*,*,#330,.T.);
#484=ORIENTED_EDGE('',*,*,#334,.T.);
#485=ORIENTED_EDGE('',*,*,#375,.T.);
#486=ORIENTED_EDGE('',*,*,#376,.T.);
#487=ORIENTED_EDGE('',*,*,#377,.T.);
#488=ORIENTED_EDGE('',*,*,#378,.F.);
#489=ORIENTED_EDGE('',*,*,#379,.T.);
#490=ORIENTED_EDGE('',*,*,#380,.F.);
#491=ORIENTED_EDGE('',*,*,#381,.T.);
#492=ORIENTED_EDGE('',*,*,#318,.T.);
#493=ORIENTED_EDGE('',*,*,#324,.T.);
#494=ORIENTED_EDGE('',*,*,#364,.T.);
#495=ORIENTED_EDGE('',*,*,#350,.F.);
#496=ORIENTED_EDGE('',*,*,#345,.T.);
#497=ORIENTED_EDGE('',*,*,#368,.T.);
#498=ORIENTED_EDGE('',*,*,#382,.F.);
#499=ORIENTED_EDGE('',*,*,#370,.T.);
#500=ORIENTED_EDGE('',*,*,#383,.F.);
#501=ORIENTED_EDGE('',*,*,#357,.F.);
#502=ORIENTED_EDGE('',*,*,#384,.F.);
#503=ORIENTED_EDGE('',*,*,#376,.F.);
#504=ORIENTED_EDGE('',*,*,#385,.F.);
#505=ORIENTED_EDGE('',*,*,#372,.T.);
#506=ORIENTED_EDGE('',*,*,#384,.T.);
#507=ORIENTED_EDGE('',*,*,#371,.T.);
#508=ORIENTED_EDGE('',*,*,#382,.T.);
#509=ORIENTED_EDGE('',*,*,#356,.F.);
#510=ORIENTED_EDGE('',*,*,#386,.F.);
#511=ORIENTED_EDGE('',*,*,#387,.T.);
#512=ORIENTED_EDGE('',*,*,#388,.F.);
#513=ORIENTED_EDGE('',*,*,#377,.F.);
#514=ORIENTED_EDGE('',*,*,#383,.T.);
#515=ORIENTED_EDGE('',*,*,#369,.T.);
#516=ORIENTED_EDGE('',*,*,#348,.F.);
#517=ORIENTED_EDGE('',*,*,#358,.F.);
#518=ORIENTED_EDGE('',*,*,#336,.T.);
#519=ORIENTED_EDGE('',*,*,#373,.T.);
#520=ORIENTED_EDGE('',*,*,#385,.T.);
#521=ORIENTED_EDGE('',*,*,#375,.F.);
#522=ORIENTED_EDGE('',*,*,#361,.T.);
#523=ORIENTED_EDGE('',*,*,#366,.T.);
#524=ORIENTED_EDGE('',*,*,#338,.F.);
#525=ORIENTED_EDGE('',*,*,#374,.F.);
#526=ORIENTED_EDGE('',*,*,#355,.T.);
#527=ORIENTED_EDGE('',*,*,#389,.T.);
#528=ORIENTED_EDGE('',*,*,#390,.T.);
#529=ORIENTED_EDGE('',*,*,#386,.T.);
#530=ORIENTED_EDGE('',*,*,#389,.F.);
#531=ORIENTED_EDGE('',*,*,#354,.F.);
#532=ORIENTED_EDGE('',*,*,#391,.F.);
#533=ORIENTED_EDGE('',*,*,#392,.T.);
#534=ORIENTED_EDGE('',*,*,#378,.T.);
#535=ORIENTED_EDGE('',*,*,#388,.T.);
#536=ORIENTED_EDGE('',*,*,#393,.T.);
#537=ORIENTED_EDGE('',*,*,#394,.T.);
#538=ORIENTED_EDGE('',*,*,#394,.F.);
#539=ORIENTED_EDGE('',*,*,#395,.T.);
#540=ORIENTED_EDGE('',*,*,#396,.F.);
#541=ORIENTED_EDGE('',*,*,#379,.F.);
#542=ORIENTED_EDGE('',*,*,#380,.T.);
#543=ORIENTED_EDGE('',*,*,#396,.T.);
#544=ORIENTED_EDGE('',*,*,#397,.T.);
#545=ORIENTED_EDGE('',*,*,#398,.T.);
#546=ORIENTED_EDGE('',*,*,#353,.T.);
#547=ORIENTED_EDGE('',*,*,#399,.T.);
#548=ORIENTED_EDGE('',*,*,#400,.T.);
#549=ORIENTED_EDGE('',*,*,#391,.T.);
#550=ORIENTED_EDGE('',*,*,#359,.T.);
#551=ORIENTED_EDGE('',*,*,#381,.F.);
#552=ORIENTED_EDGE('',*,*,#398,.F.);
#553=ORIENTED_EDGE('',*,*,#401,.T.);
#554=ORIENTED_EDGE('',*,*,#399,.F.);
#555=ORIENTED_EDGE('',*,*,#352,.F.);
#556=ORIENTED_EDGE('',*,*,#363,.T.);
#557=ORIENTED_EDGE('',*,*,#367,.T.);
#558=ORIENTED_EDGE('',*,*,#390,.F.);
#559=ORIENTED_EDGE('',*,*,#392,.F.);
#560=ORIENTED_EDGE('',*,*,#400,.F.);
#561=ORIENTED_EDGE('',*,*,#401,.F.);
#562=ORIENTED_EDGE('',*,*,#397,.F.);
#563=ORIENTED_EDGE('',*,*,#395,.F.);
#564=ORIENTED_EDGE('',*,*,#393,.F.);
#565=ORIENTED_EDGE('',*,*,#387,.F.);
#566=ORIENTED_EDGE('',*,*,#320,.T.);
#567=ORIENTED_EDGE('',*,*,#323,.T.);
#568=ORIENTED_EDGE('',*,*,#326,.T.);
#569=ORIENTED_EDGE('',*,*,#329,.T.);
#570=CYLINDRICAL_SURFACE('',#623,2.38125);
#571=CYLINDRICAL_SURFACE('',#626,2.38125);
#572=CYLINDRICAL_SURFACE('',#629,2.38125);
#573=CYLINDRICAL_SURFACE('',#632,2.38125);
#574=CYLINDRICAL_SURFACE('',#638,4.);
#575=CYLINDRICAL_SURFACE('',#659,2.5);
#576=CYLINDRICAL_SURFACE('',#662,2.5);
#577=CYLINDRICAL_SURFACE('',#665,2.5);
#578=CYLINDRICAL_SURFACE('',#667,2.5);
#579=ADVANCED_FACE('',(#44),#570,.F.);
#580=ADVANCED_FACE('',(#45),#571,.F.);
#581=ADVANCED_FACE('',(#46),#572,.F.);
#582=ADVANCED_FACE('',(#47),#573,.F.);
#583=ADVANCED_FACE('',(#48),#23,.T.);
#584=ADVANCED_FACE('',(#49),#24,.T.);
#585=ADVANCED_FACE('',(#50),#25,.F.);
#586=ADVANCED_FACE('',(#51),#574,.T.);
#587=ADVANCED_FACE('',(#52),#26,.F.);
#588=ADVANCED_FACE('',(#53),#27,.F.);
#589=ADVANCED_FACE('',(#54,#15,#16),#28,.T.);
#590=ADVANCED_FACE('',(#55),#29,.F.);
#591=ADVANCED_FACE('',(#56),#30,.F.);
#592=ADVANCED_FACE('',(#57),#31,.F.);
#593=ADVANCED_FACE('',(#58,#17,#18),#32,.T.);
#594=ADVANCED_FACE('',(#59),#33,.F.);
#595=ADVANCED_FACE('',(#60),#34,.F.);
#596=ADVANCED_FACE('',(#61),#35,.F.);
#597=ADVANCED_FACE('',(#62),#36,.T.);
#598=ADVANCED_FACE('',(#63),#37,.F.);
#599=ADVANCED_FACE('',(#64),#38,.F.);
#600=ADVANCED_FACE('',(#65),#39,.F.);
#601=ADVANCED_FACE('',(#66),#575,.T.);
#602=ADVANCED_FACE('',(#67),#40,.T.);
#603=ADVANCED_FACE('',(#68),#576,.T.);
#604=ADVANCED_FACE('',(#69),#41,.T.);
#605=ADVANCED_FACE('',(#70),#577,.T.);
#606=ADVANCED_FACE('',(#71),#578,.T.);
#607=ADVANCED_FACE('',(#72),#42,.T.);
#608=ADVANCED_FACE('',(#73,#19,#20,#21,#22),#43,.F.);
#609=CLOSED_SHELL('',(#579,#580,#581,#582,#583,#584,#585,#586,#587,#588,
#589,#590,#591,#592,#593,#594,#595,#596,#597,#598,#599,#600,#601,#602,#603,
#604,#605,#606,#607,#608));
#610=DERIVED_UNIT_ELEMENT(#612,1.);
#611=DERIVED_UNIT_ELEMENT(#1011,-3.);
#612=(
MASS_UNIT()
NAMED_UNIT(*)
SI_UNIT(.KILO.,.GRAM.)
);
#613=DERIVED_UNIT((#610,#611));
#614=MEASURE_REPRESENTATION_ITEM('density measure',
POSITIVE_RATIO_MEASURE(7850.),#613);
#615=PROPERTY_DEFINITION_REPRESENTATION(#620,#617);
#616=PROPERTY_DEFINITION_REPRESENTATION(#621,#618);
#617=REPRESENTATION('material name',(#619),#1008);
#618=REPRESENTATION('density',(#614),#1008);
#619=DESCRIPTIVE_REPRESENTATION_ITEM('Steel','Steel');
#620=PROPERTY_DEFINITION('material property','material name',#1018);
#621=PROPERTY_DEFINITION('material property','density of part',#1018);
#622=AXIS2_PLACEMENT_3D('',#835,#671,#672);
#623=AXIS2_PLACEMENT_3D('',#836,#673,#674);
#624=AXIS2_PLACEMENT_3D('',#838,#675,#676);
#625=AXIS2_PLACEMENT_3D('',#841,#678,#679);
#626=AXIS2_PLACEMENT_3D('',#842,#680,#681);
#627=AXIS2_PLACEMENT_3D('',#844,#682,#683);
#628=AXIS2_PLACEMENT_3D('',#847,#685,#686);
#629=AXIS2_PLACEMENT_3D('',#848,#687,#688);
#630=AXIS2_PLACEMENT_3D('',#850,#689,#690);
#631=AXIS2_PLACEMENT_3D('',#853,#692,#693);
#632=AXIS2_PLACEMENT_3D('',#854,#694,#695);
#633=AXIS2_PLACEMENT_3D('',#856,#696,#697);
#634=AXIS2_PLACEMENT_3D('',#859,#699,#700);
#635=AXIS2_PLACEMENT_3D('',#860,#701,#702);
#636=AXIS2_PLACEMENT_3D('',#869,#707,#708);
#637=AXIS2_PLACEMENT_3D('',#875,#712,#713);
#638=AXIS2_PLACEMENT_3D('',#881,#717,#718);
#639=AXIS2_PLACEMENT_3D('',#886,#720,#721);
#640=AXIS2_PLACEMENT_3D('',#889,#723,#724);
#641=AXIS2_PLACEMENT_3D('',#890,#725,#726);
#642=AXIS2_PLACEMENT_3D('',#896,#730,#731);
#643=AXIS2_PLACEMENT_3D('',#902,#735,#736);
#644=AXIS2_PLACEMENT_3D('',#910,#740,#741);
#645=AXIS2_PLACEMENT_3D('',#914,#743,#744);
#646=AXIS2_PLACEMENT_3D('',#920,#748,#749);
#647=AXIS2_PLACEMENT_3D('',#929,#754,#755);
#648=AXIS2_PLACEMENT_3D('',#935,#759,#760);
#649=AXIS2_PLACEMENT_3D('',#948,#769,#770);
#650=AXIS2_PLACEMENT_3D('',#957,#775,#776);
#651=AXIS2_PLACEMENT_3D('',#961,#778,#779);
#652=AXIS2_PLACEMENT_3D('',#963,#781,#782);
#653=AXIS2_PLACEMENT_3D('',#964,#783,#784);
#654=AXIS2_PLACEMENT_3D('',#967,#787,#788);
#655=AXIS2_PLACEMENT_3D('',#970,#791,#792);
#656=AXIS2_PLACEMENT_3D('',#976,#796,#797);
#657=AXIS2_PLACEMENT_3D('',#977,#798,#799);
#658=AXIS2_PLACEMENT_3D('',#978,#800,#801);
#659=AXIS2_PLACEMENT_3D('',#979,#802,#803);
#660=AXIS2_PLACEMENT_3D('',#982,#805,#806);
#661=AXIS2_PLACEMENT_3D('',#983,#807,#808);
#662=AXIS2_PLACEMENT_3D('',#987,#811,#812);
#663=AXIS2_PLACEMENT_3D('',#989,#813,#814);
#664=AXIS2_PLACEMENT_3D('',#991,#816,#817);
#665=AXIS2_PLACEMENT_3D('',#995,#820,#821);
#666=AXIS2_PLACEMENT_3D('',#997,#822,#823);
#667=AXIS2_PLACEMENT_3D('',#999,#825,#826);
#668=AXIS2_PLACEMENT_3D('',#1002,#828,#829);
#669=AXIS2_PLACEMENT_3D('',#1003,#830,#831);
#670=AXIS2_PLACEMENT_3D('',#1005,#833,#834);
#671=DIRECTION('axis',(0.,0.,1.));
#672=DIRECTION('refdir',(1.,0.,0.));
#673=DIRECTION('center_axis',(0.,0.,-1.));
#674=DIRECTION('ref_axis',(1.,0.,0.));
#675=DIRECTION('center_axis',(0.,0.,-1.));
#676=DIRECTION('ref_axis',(1.,0.,0.));
#677=DIRECTION('',(0.,0.,-1.));
#678=DIRECTION('center_axis',(0.,0.,1.));
#679=DIRECTION('ref_axis',(1.,0.,0.));
#680=DIRECTION('center_axis',(0.,0.,-1.));
#681=DIRECTION('ref_axis',(1.,0.,0.));
#682=DIRECTION('center_axis',(0.,0.,-1.));
#683=DIRECTION('ref_axis',(1.,0.,0.));
#684=DIRECTION('',(0.,0.,-1.));
#685=DIRECTION('center_axis',(0.,0.,1.));
#686=DIRECTION('ref_axis',(1.,0.,0.));
#687=DIRECTION('center_axis',(0.,0.,-1.));
#688=DIRECTION('ref_axis',(1.,0.,0.));
#689=DIRECTION('center_axis',(0.,0.,-1.));
#690=DIRECTION('ref_axis',(1.,0.,0.));
#691=DIRECTION('',(0.,0.,-1.));
#692=DIRECTION('center_axis',(0.,0.,1.));
#693=DIRECTION('ref_axis',(1.,0.,0.));
#694=DIRECTION('center_axis',(0.,0.,-1.));
#695=DIRECTION('ref_axis',(1.,0.,0.));
#696=DIRECTION('center_axis',(0.,0.,-1.));
#697=DIRECTION('ref_axis',(1.,0.,0.));
#698=DIRECTION('',(0.,0.,-1.));
#699=DIRECTION('center_axis',(0.,0.,1.));
#700=DIRECTION('ref_axis',(1.,0.,0.));
#701=DIRECTION('center_axis',(0.,1.,0.));
#702=DIRECTION('ref_axis',(1.,0.,0.));
#703=DIRECTION('',(-1.,0.,0.));
#704=DIRECTION('',(0.,0.,1.));
#705=DIRECTION('',(1.,0.,0.));
#706=DIRECTION('',(0.,0.,-1.));
#707=DIRECTION('center_axis',(-1.,0.,0.));
#708=DIRECTION('ref_axis',(0.,1.,0.));
#709=DIRECTION('',(0.,-1.,0.));
#710=DIRECTION('',(0.,1.,0.));
#711=DIRECTION('',(0.,0.,-1.));
#712=DIRECTION('center_axis',(1.,0.,0.));
#713=DIRECTION('ref_axis',(0.,-1.,0.));
#714=DIRECTION('',(0.,-1.,0.));
#715=DIRECTION('',(0.,0.,-1.));
#716=DIRECTION('',(0.,-1.,0.));
#717=DIRECTION('center_axis',(0.,0.,-1.));
#718=DIRECTION('ref_axis',(1.,0.,0.));
#719=DIRECTION('',(0.,0.,1.));
#720=DIRECTION('center_axis',(0.,0.,-1.));
#721=DIRECTION('ref_axis',(1.,0.,0.));
#722=DIRECTION('',(0.,0.,-1.));
#723=DIRECTION('center_axis',(0.,0.,1.));
#724=DIRECTION('ref_axis',(1.,0.,0.));
#725=DIRECTION('center_axis',(-1.,0.,0.));
#726=DIRECTION('ref_axis',(0.,1.,0.));
#727=DIRECTION('',(0.,1.,0.));
#728=DIRECTION('',(0.,0.,-1.));
#729=DIRECTION('',(0.,1.,0.));
#730=DIRECTION('center_axis',(-1.,0.,0.));
#731=DIRECTION('ref_axis',(0.,1.,0.));
#732=DIRECTION('',(0.,1.,0.));
#733=DIRECTION('',(0.,0.,-1.));
#734=DIRECTION('',(0.,1.,0.));
#735=DIRECTION('center_axis',(0.,0.,1.));
#736=DIRECTION('ref_axis',(1.,0.,0.));
#737=DIRECTION('',(1.,0.,0.));
#738=DIRECTION('',(0.,1.,0.));
#739=DIRECTION('',(-1.,0.,0.));
#740=DIRECTION('center_axis',(0.,0.,-1.));
#741=DIRECTION('ref_axis',(-0.707106781186547,0.707106781186547,0.));
#742=DIRECTION('',(0.,-1.,0.));
#743=DIRECTION('center_axis',(0.,0.,-1.));
#744=DIRECTION('ref_axis',(-0.707106781186547,-0.707106781186547,0.));
#745=DIRECTION('',(1.,0.,0.));
#746=DIRECTION('',(0.,1.,0.));
#747=DIRECTION('',(-1.,0.,0.));
#748=DIRECTION('center_axis',(1.,0.,0.));
#749=DIRECTION('ref_axis',(0.,-1.,0.));
#750=DIRECTION('',(0.,0.,1.));
#751=DIRECTION('',(0.,-1.,0.));
#752=DIRECTION('',(0.,0.,-1.));
#753=DIRECTION('',(0.,-1.,0.));
#754=DIRECTION('center_axis',(-1.,0.,0.));
#755=DIRECTION('ref_axis',(0.,1.,0.));
#756=DIRECTION('',(0.,0.,-1.));
#757=DIRECTION('',(0.,0.,1.));
#758=DIRECTION('',(0.,1.,0.));
#759=DIRECTION('center_axis',(0.,0.,-1.));
#760=DIRECTION('ref_axis',(-1.,0.,0.));
#761=DIRECTION('',(1.,0.,0.));
#762=DIRECTION('',(1.,0.,0.));
#763=DIRECTION('',(1.,0.,0.));
#764=DIRECTION('',(-1.,0.,0.));
#765=DIRECTION('',(0.,1.,0.));
#766=DIRECTION('',(-1.,0.,0.));
#767=DIRECTION('',(0.,-1.,0.));
#768=DIRECTION('',(-1.,0.,0.));
#769=DIRECTION('center_axis',(0.,0.,1.));
#770=DIRECTION('ref_axis',(1.,0.,0.));
#771=DIRECTION('',(1.,0.,0.));
#772=DIRECTION('',(-1.,0.,0.));
#773=DIRECTION('',(0.,-1.,0.));
#774=DIRECTION('',(1.,0.,0.));
#775=DIRECTION('center_axis',(0.,0.,-1.));
#776=DIRECTION('ref_axis',(0.707106781186547,-0.707106781186547,0.));
#777=DIRECTION('',(0.,1.,0.));
#778=DIRECTION('center_axis',(0.,0.,-1.));
#779=DIRECTION('ref_axis',(0.707106781186547,0.707106781186547,0.));
#780=DIRECTION('',(-1.,0.,0.));
#781=DIRECTION('center_axis',(0.,1.,0.));
#782=DIRECTION('ref_axis',(1.,0.,0.));
#783=DIRECTION('center_axis',(-1.,0.,0.));
#784=DIRECTION('ref_axis',(0.,1.,0.));
#785=DIRECTION('',(0.,0.,1.));
#786=DIRECTION('',(0.,0.,-1.));
#787=DIRECTION('center_axis',(1.,0.,0.));
#788=DIRECTION('ref_axis',(0.,-1.,0.));
#789=DIRECTION('',(0.,0.,-1.));
#790=DIRECTION('',(0.,0.,1.));
#791=DIRECTION('center_axis',(0.,-1.,0.));
#792=DIRECTION('ref_axis',(1.,0.,0.));
#793=DIRECTION('',(0.,0.,1.));
#794=DIRECTION('',(1.,0.,0.));
#795=DIRECTION('',(0.,0.,-1.));
#796=DIRECTION('center_axis',(0.,-1.,0.));
#797=DIRECTION('ref_axis',(-1.,0.,0.));
#798=DIRECTION('center_axis',(0.,-1.,0.));
#799=DIRECTION('ref_axis',(-1.,0.,0.));
#800=DIRECTION('center_axis',(0.,1.,0.));
#801=DIRECTION('ref_axis',(1.,0.,0.));
#802=DIRECTION('center_axis',(0.,0.,1.));
#803=DIRECTION('ref_axis',(-0.707106781186547,-0.707106781186547,0.));
#804=DIRECTION('',(0.,0.,-1.));
#805=DIRECTION('center_axis',(0.,0.,1.));
#806=DIRECTION('ref_axis',(-0.707106781186547,-0.707106781186547,0.));
#807=DIRECTION('center_axis',(-1.,0.,0.));
#808=DIRECTION('ref_axis',(0.,-1.,0.));
#809=DIRECTION('',(0.,0.,1.));
#810=DIRECTION('',(0.,-1.,0.));
#811=DIRECTION('center_axis',(0.,0.,1.));
#812=DIRECTION('ref_axis',(0.707106781186547,-0.707106781186547,0.));
#813=DIRECTION('center_axis',(0.,0.,1.));
#814=DIRECTION('ref_axis',(0.707106781186547,-0.707106781186547,0.));
#815=DIRECTION('',(0.,0.,1.));
#816=DIRECTION('center_axis',(1.,0.,0.));
#817=DIRECTION('ref_axis',(0.,1.,0.));
#818=DIRECTION('',(0.,1.,0.));
#819=DIRECTION('',(0.,0.,-1.));
#820=DIRECTION('center_axis',(0.,0.,1.));
#821=DIRECTION('ref_axis',(0.707106781186547,0.707106781186547,0.));
#822=DIRECTION('center_axis',(0.,0.,1.));
#823=DIRECTION('ref_axis',(0.707106781186547,0.707106781186547,0.));
#824=DIRECTION('',(0.,0.,1.));
#825=DIRECTION('center_axis',(0.,0.,1.));
#826=DIRECTION('ref_axis',(-0.707106781186547,0.707106781186547,0.));
#827=DIRECTION('',(0.,0.,-1.));
#828=DIRECTION('center_axis',(0.,0.,1.));
#829=DIRECTION('ref_axis',(-0.707106781186547,0.707106781186547,0.));
#830=DIRECTION('center_axis',(0.,1.,0.));
#831=DIRECTION('ref_axis',(-1.,0.,0.));
#832=DIRECTION('',(-1.,0.,0.));
#833=DIRECTION('center_axis',(0.,0.,1.));
#834=DIRECTION('ref_axis',(1.,0.,0.));
#835=CARTESIAN_POINT('',(0.,0.,0.));
#836=CARTESIAN_POINT('Origin',(50.8,50.8,7.));
#837=CARTESIAN_POINT('',(48.41875,50.8,7.));
#838=CARTESIAN_POINT('Origin',(50.8,50.8,7.));
#839=CARTESIAN_POINT('',(48.41875,50.8,0.));
#840=CARTESIAN_POINT('',(48.41875,50.8,7.));
#841=CARTESIAN_POINT('Origin',(50.8,50.8,0.));
#842=CARTESIAN_POINT('Origin',(-50.8,50.8,7.));
#843=CARTESIAN_POINT('',(-53.18125,50.8,7.));
#844=CARTESIAN_POINT('Origin',(-50.8,50.8,7.));
#845=CARTESIAN_POINT('',(-53.18125,50.8,0.));
#846=CARTESIAN_POINT('',(-53.18125,50.8,7.));
#847=CARTESIAN_POINT('Origin',(-50.8,50.8,0.));
#848=CARTESIAN_POINT('Origin',(50.8,-50.8,7.));
#849=CARTESIAN_POINT('',(48.41875,-50.8,7.));
#850=CARTESIAN_POINT('Origin',(50.8,-50.8,7.));
#851=CARTESIAN_POINT('',(48.41875,-50.8,0.));
#852=CARTESIAN_POINT('',(48.41875,-50.8,7.));
#853=CARTESIAN_POINT('Origin',(50.8,-50.8,0.));
#854=CARTESIAN_POINT('Origin',(-50.8,-50.8,7.));
#855=CARTESIAN_POINT('',(-53.18125,-50.8,7.));
#856=CARTESIAN_POINT('Origin',(-50.8,-50.8,7.));
#857=CARTESIAN_POINT('',(-53.18125,-50.8,0.));
#858=CARTESIAN_POINT('',(-53.18125,-50.8,7.));
#859=CARTESIAN_POINT('Origin',(-50.8,-50.8,0.));
#860=CARTESIAN_POINT('Origin',(44.91875,-44.91875,7.));
#861=CARTESIAN_POINT('',(61.477,-44.91875,7.));
#862=CARTESIAN_POINT('',(44.91875,-44.91875,7.));
#863=CARTESIAN_POINT('',(61.477,-44.91875,7.));
#864=CARTESIAN_POINT('',(61.477,-44.91875,5.));
#865=CARTESIAN_POINT('',(61.477,-44.91875,7.));
#866=CARTESIAN_POINT('',(44.91875,-44.91875,5.));
#867=CARTESIAN_POINT('',(27.697875,-44.91875,5.));
#868=CARTESIAN_POINT('',(44.91875,-44.91875,7.));
#869=CARTESIAN_POINT('Origin',(44.91875,-53.7567007984443,7.));
#870=CARTESIAN_POINT('',(44.91875,-53.7567007984443,7.));
#871=CARTESIAN_POINT('',(44.91875,-44.91875,7.));
#872=CARTESIAN_POINT('',(44.91875,-53.7567007984443,5.));
#873=CARTESIAN_POINT('',(44.91875,-29.1415255988333,5.));
#874=CARTESIAN_POINT('',(44.91875,-53.7567007984443,7.));
#875=CARTESIAN_POINT('Origin',(61.477,44.704,7.));
#876=CARTESIAN_POINT('',(61.477,44.704,7.));
#877=CARTESIAN_POINT('',(61.477,22.352,7.));
#878=CARTESIAN_POINT('',(61.477,44.704,5.));
#879=CARTESIAN_POINT('',(61.477,44.704,7.));
#880=CARTESIAN_POINT('',(61.477,-53.7567007984443,5.));
#881=CARTESIAN_POINT('Origin',(-41.6829946196097,7.68022843553613,7.));
#882=CARTESIAN_POINT('',(-40.523,3.85212022357601,5.));
#883=CARTESIAN_POINT('',(-40.523,3.85212022357601,7.));
#884=CARTESIAN_POINT('',(-40.523,3.85212022357601,7.));
#885=CARTESIAN_POINT('',(-40.523,11.5083366474963,5.));
#886=CARTESIAN_POINT('Origin',(-41.6829946196097,7.68022843553613,5.));
#887=CARTESIAN_POINT('',(-40.523,11.5083366474963,7.));
#888=CARTESIAN_POINT('',(-40.523,11.5083366474963,7.));
#889=CARTESIAN_POINT('Origin',(-41.6829946196097,7.68022843553613,7.));
#890=CARTESIAN_POINT('Origin',(-40.523,-53.7567007984443,7.));
#891=CARTESIAN_POINT('',(-40.523,44.704,5.));
#892=CARTESIAN_POINT('',(-40.523,44.704,5.));
#893=CARTESIAN_POINT('',(-40.523,44.704,7.));
#894=CARTESIAN_POINT('',(-40.523,44.704,7.));
#895=CARTESIAN_POINT('',(-40.523,-26.8783503992222,7.));
#896=CARTESIAN_POINT('Origin',(-40.523,-53.7567007984443,7.));
#897=CARTESIAN_POINT('',(-40.523,-53.7567007984443,7.));
#898=CARTESIAN_POINT('',(-40.523,-26.8783503992222,7.));
#899=CARTESIAN_POINT('',(-40.523,-53.7567007984443,5.));
#900=CARTESIAN_POINT('',(-40.523,-53.7567007984443,7.));
#901=CARTESIAN_POINT('',(-40.523,44.704,5.));
#902=CARTESIAN_POINT('Origin',(0.,0.,7.));
#903=CARTESIAN_POINT('',(2.977,44.704,7.));
#904=CARTESIAN_POINT('',(-20.2615,44.704,7.));
#905=CARTESIAN_POINT('',(2.977,65.,7.));
#906=CARTESIAN_POINT('',(2.977,20.852,7.));
#907=CARTESIAN_POINT('',(-62.5,65.,7.));
#908=CARTESIAN_POINT('',(65.,65.,7.));
#909=CARTESIAN_POINT('',(-65.,62.5,7.));
#910=CARTESIAN_POINT('Origin',(-62.5,62.5,7.));
#911=CARTESIAN_POINT('',(-65.,-62.5,7.));
#912=CARTESIAN_POINT('',(-65.,65.,7.));
#913=CARTESIAN_POINT('',(-62.5,-65.,7.));
#914=CARTESIAN_POINT('Origin',(-62.5,-62.5,7.));
#915=CARTESIAN_POINT('',(2.977,-65.,7.));
#916=CARTESIAN_POINT('',(-65.,-65.,7.));
#917=CARTESIAN_POINT('',(2.977,-53.7567007984443,7.));
#918=CARTESIAN_POINT('',(2.977,-33.,7.));
#919=CARTESIAN_POINT('',(30.7385,-53.7567007984443,7.));
#920=CARTESIAN_POINT('Origin',(17.977,66.,7.));
#921=CARTESIAN_POINT('',(17.977,65.,5.));
#922=CARTESIAN_POINT('',(17.977,65.,7.));
#923=CARTESIAN_POINT('',(17.977,65.,3.5));
#924=CARTESIAN_POINT('',(17.977,44.704,5.));
#925=CARTESIAN_POINT('',(17.977,41.704,5.));
#926=CARTESIAN_POINT('',(17.977,44.704,7.));
#927=CARTESIAN_POINT('',(17.977,44.704,7.));
#928=CARTESIAN_POINT('',(17.977,33.,7.));
#929=CARTESIAN_POINT('Origin',(2.977,41.704,7.));
#930=CARTESIAN_POINT('',(2.977,65.,5.));
#931=CARTESIAN_POINT('',(2.977,65.,3.5));
#932=CARTESIAN_POINT('',(2.977,44.704,5.));
#933=CARTESIAN_POINT('',(2.977,44.704,7.));
#934=CARTESIAN_POINT('',(2.977,66.,5.));
#935=CARTESIAN_POINT('Origin',(10.477,-4.52635039922217,5.));
#936=CARTESIAN_POINT('',(61.477,44.704,5.));
#937=CARTESIAN_POINT('',(37.7385,65.,5.));
#938=CARTESIAN_POINT('',(61.477,44.704,5.));
#939=CARTESIAN_POINT('',(2.977,-53.7567007984443,5.));
#940=CARTESIAN_POINT('',(-40.523,-53.7567007984443,5.));
#941=CARTESIAN_POINT('',(2.977,-65.,5.));
#942=CARTESIAN_POINT('',(2.977,-50.7567007984443,5.));
#943=CARTESIAN_POINT('',(17.977,-65.,5.));
#944=CARTESIAN_POINT('',(-27.2615,-65.,5.));
#945=CARTESIAN_POINT('',(17.977,-53.7567007984443,5.));
#946=CARTESIAN_POINT('',(17.977,-66.,5.));
#947=CARTESIAN_POINT('',(-40.523,-53.7567007984443,5.));
#948=CARTESIAN_POINT('Origin',(0.,0.,7.));
#949=CARTESIAN_POINT('',(-20.2615,44.704,7.));
#950=CARTESIAN_POINT('',(17.977,-53.7567007984443,7.));
#951=CARTESIAN_POINT('',(30.7385,-53.7567007984443,7.));
#952=CARTESIAN_POINT('',(17.977,-65.,7.));
#953=CARTESIAN_POINT('',(17.977,-25.3783503992222,7.));
#954=CARTESIAN_POINT('',(62.5,-65.,7.));
#955=CARTESIAN_POINT('',(-65.,-65.,7.));
#956=CARTESIAN_POINT('',(65.,-62.5,7.));
#957=CARTESIAN_POINT('Origin',(62.5,-62.5,7.));
#958=CARTESIAN_POINT('',(65.,62.5,7.));
#959=CARTESIAN_POINT('',(65.,-65.,7.));
#960=CARTESIAN_POINT('',(62.5,65.,7.));
#961=CARTESIAN_POINT('Origin',(62.5,62.5,7.));
#962=CARTESIAN_POINT('',(65.,65.,7.));
#963=CARTESIAN_POINT('Origin',(-40.523,44.704,7.));
#964=CARTESIAN_POINT('Origin',(2.977,-66.,7.));
#965=CARTESIAN_POINT('',(2.977,-65.,3.5));
#966=CARTESIAN_POINT('',(2.977,-53.7567007984443,7.));
#967=CARTESIAN_POINT('Origin',(17.977,-50.7567007984443,7.));
#968=CARTESIAN_POINT('',(17.977,-65.,3.5));
#969=CARTESIAN_POINT('',(17.977,-53.7567007984443,7.));
#970=CARTESIAN_POINT('Origin',(-65.,-65.,0.));
#971=CARTESIAN_POINT('',(-62.5,-65.,0.));
#972=CARTESIAN_POINT('',(-62.5,-65.,0.));
#973=CARTESIAN_POINT('',(62.5,-65.,0.));
#974=CARTESIAN_POINT('',(-65.,-65.,0.));
#975=CARTESIAN_POINT('',(62.5,-65.,0.));
#976=CARTESIAN_POINT('Origin',(61.477,-53.7567007984443,7.));
#977=CARTESIAN_POINT('Origin',(61.477,-53.7567007984443,7.));
#978=CARTESIAN_POINT('Origin',(-40.523,44.704,7.));
#979=CARTESIAN_POINT('Origin',(-62.5,-62.5,0.));
#980=CARTESIAN_POINT('',(-65.,-62.5,0.));
#981=CARTESIAN_POINT('',(-65.,-62.5,0.));
#982=CARTESIAN_POINT('Origin',(-62.5,-62.5,0.));
#983=CARTESIAN_POINT('Origin',(-65.,65.,0.));
#984=CARTESIAN_POINT('',(-65.,62.5,0.));
#985=CARTESIAN_POINT('',(-65.,62.5,0.));
#986=CARTESIAN_POINT('',(-65.,65.,0.));
#987=CARTESIAN_POINT('Origin',(62.5,-62.5,0.));
#988=CARTESIAN_POINT('',(65.,-62.5,0.));
#989=CARTESIAN_POINT('Origin',(62.5,-62.5,0.));
#990=CARTESIAN_POINT('',(65.,-62.5,0.));
#991=CARTESIAN_POINT('Origin',(65.,-65.,0.));
#992=CARTESIAN_POINT('',(65.,62.5,0.));
#993=CARTESIAN_POINT('',(65.,-65.,0.));
#994=CARTESIAN_POINT('',(65.,62.5,0.));
#995=CARTESIAN_POINT('Origin',(62.5,62.5,0.));
#996=CARTESIAN_POINT('',(62.5,65.,0.));
#997=CARTESIAN_POINT('Origin',(62.5,62.5,0.));
#998=CARTESIAN_POINT('',(62.5,65.,0.));
#999=CARTESIAN_POINT('Origin',(-62.5,62.5,0.));
#1000=CARTESIAN_POINT('',(-62.5,65.,0.));
#1001=CARTESIAN_POINT('',(-62.5,65.,0.));
#1002=CARTESIAN_POINT('Origin',(-62.5,62.5,0.));
#1003=CARTESIAN_POINT('Origin',(65.,65.,0.));
#1004=CARTESIAN_POINT('',(65.,65.,0.));
#1005=CARTESIAN_POINT('Origin',(0.,0.,0.));
#1006=UNCERTAINTY_MEASURE_WITH_UNIT(LENGTH_MEASURE(0.01),#1010,
'DISTANCE_ACCURACY_VALUE',
'Maximum model space distance between geometric entities at asserted c
onnectivities');
#1007=UNCERTAINTY_MEASURE_WITH_UNIT(LENGTH_MEASURE(0.01),#1010,
'DISTANCE_ACCURACY_VALUE',
'Maximum model space distance between geometric entities at asserted c
onnectivities');
#1008=(
GEOMETRIC_REPRESENTATION_CONTEXT(3)
GLOBAL_UNCERTAINTY_ASSIGNED_CONTEXT((#1006))
GLOBAL_UNIT_ASSIGNED_CONTEXT((#1010,#1012,#1013))
REPRESENTATION_CONTEXT('','3D')
);
#1009=(
GEOMETRIC_REPRESENTATION_CONTEXT(3)
GLOBAL_UNCERTAINTY_ASSIGNED_CONTEXT((#1007))
GLOBAL_UNIT_ASSIGNED_CONTEXT((#1010,#1012,#1013))
REPRESENTATION_CONTEXT('','3D')
);
#1010=(
LENGTH_UNIT()
NAMED_UNIT(*)
SI_UNIT(.MILLI.,.METRE.)
);
#1011=(
LENGTH_UNIT()
NAMED_UNIT(*)
SI_UNIT($,.METRE.)
);
#1012=(
NAMED_UNIT(*)
PLANE_ANGLE_UNIT()
SI_UNIT($,.RADIAN.)
);
#1013=(
NAMED_UNIT(*)
SI_UNIT($,.STERADIAN.)
SOLID_ANGLE_UNIT()
);
#1014=SHAPE_DEFINITION_REPRESENTATION(#1015,#1016);
#1015=PRODUCT_DEFINITION_SHAPE('',$,#1018);
#1016=SHAPE_REPRESENTATION('',(#622),#1008);
#1017=PRODUCT_DEFINITION_CONTEXT('part definition',#1022,'design');
#1018=PRODUCT_DEFINITION('2026-08-13-12-31-00-775','(Unsaved)',#1019,#1017);
#1019=PRODUCT_DEFINITION_FORMATION('',$,#1024);
#1020=PRODUCT_RELATED_PRODUCT_CATEGORY('(Unsaved)','(Unsaved)',(#1024));
#1021=APPLICATION_PROTOCOL_DEFINITION('international standard',
'automotive_design',2009,#1022);
#1022=APPLICATION_CONTEXT(
'Core Data for Automotive Mechanical Design Process');
#1023=PRODUCT_CONTEXT('part definition',#1022,'mechanical');
#1024=PRODUCT('2026-08-13-12-31-00-775','(Unsaved)',$,(#1023));
#1025=PRESENTATION_STYLE_ASSIGNMENT((#1026));
#1026=SURFACE_STYLE_USAGE(.BOTH.,#1027);
#1027=SURFACE_SIDE_STYLE('',(#1028));
#1028=SURFACE_STYLE_FILL_AREA(#1029);
#1029=FILL_AREA_STYLE('Steel - Satin',(#1030));
#1030=FILL_AREA_STYLE_COLOUR('Steel - Satin',#1031);
#1031=COLOUR_RGB('Steel - Satin',0.627450980392157,0.627450980392157,0.627450980392157);
ENDSEC;
END-ISO-10303-21;
