ISO-10303-21;
HEADER;
/* Generated by software containing ST-Developer
 * from STEP Tools, Inc. (www.steptools.com) 
 */

FILE_DESCRIPTION(
/* description */ (''),
/* implementation_level */ '2;1');

FILE_NAME(
/* name */ 'pin_grid_wafer_jig_al.step',
/* time_stamp */ '2026-08-16T02:06:33-07:00',
/* author */ (''),
/* organization */ (''),
/* preprocessor_version */ 'ST-DEVELOPER v20.1',
/* originating_system */ 'Autodesk Translation Framework v15.8.0.0',
/* authorisation */ '');

FILE_SCHEMA (('AUTOMOTIVE_DESIGN { 1 0 10303 214 3 1 1 }'));
ENDSEC;

DATA;
#10=MECHANICAL_DESIGN_GEOMETRIC_PRESENTATION_REPRESENTATION('',(#13),#1108);
#11=SHAPE_REPRESENTATION_RELATIONSHIP('SRR','None',#1115,#12);
#12=ADVANCED_BREP_SHAPE_REPRESENTATION('',(#14),#1107);
#13=STYLED_ITEM('',(#1124),#14);
#14=MANIFOLD_SOLID_BREP('Body1',#672);
#15=FACE_BOUND('',#91,.T.);
#16=FACE_BOUND('',#92,.T.);
#17=FACE_BOUND('',#101,.T.);
#18=FACE_BOUND('',#102,.T.);
#19=FACE_BOUND('',#117,.T.);
#20=FACE_BOUND('',#118,.T.);
#21=FACE_BOUND('',#119,.T.);
#22=FACE_BOUND('',#120,.T.);
#23=PLANE('',#698);
#24=PLANE('',#699);
#25=PLANE('',#700);
#26=PLANE('',#701);
#27=PLANE('',#702);
#28=PLANE('',#703);
#29=PLANE('',#704);
#30=PLANE('',#708);
#31=PLANE('',#710);
#32=PLANE('',#711);
#33=PLANE('',#713);
#34=PLANE('',#714);
#35=PLANE('',#715);
#36=PLANE('',#716);
#37=PLANE('',#719);
#38=PLANE('',#720);
#39=PLANE('',#721);
#40=PLANE('',#722);
#41=PLANE('',#723);
#42=PLANE('',#724);
#43=PLANE('',#727);
#44=PLANE('',#730);
#45=PLANE('',#735);
#46=PLANE('',#736);
#47=FACE_OUTER_BOUND('',#80,.T.);
#48=FACE_OUTER_BOUND('',#81,.T.);
#49=FACE_OUTER_BOUND('',#82,.T.);
#50=FACE_OUTER_BOUND('',#83,.T.);
#51=FACE_OUTER_BOUND('',#84,.T.);
#52=FACE_OUTER_BOUND('',#85,.T.);
#53=FACE_OUTER_BOUND('',#86,.T.);
#54=FACE_OUTER_BOUND('',#87,.T.);
#55=FACE_OUTER_BOUND('',#88,.T.);
#56=FACE_OUTER_BOUND('',#89,.T.);
#57=FACE_OUTER_BOUND('',#90,.T.);
#58=FACE_OUTER_BOUND('',#93,.T.);
#59=FACE_OUTER_BOUND('',#94,.T.);
#60=FACE_OUTER_BOUND('',#95,.T.);
#61=FACE_OUTER_BOUND('',#96,.T.);
#62=FACE_OUTER_BOUND('',#97,.T.);
#63=FACE_OUTER_BOUND('',#98,.T.);
#64=FACE_OUTER_BOUND('',#99,.T.);
#65=FACE_OUTER_BOUND('',#100,.T.);
#66=FACE_OUTER_BOUND('',#103,.T.);
#67=FACE_OUTER_BOUND('',#104,.T.);
#68=FACE_OUTER_BOUND('',#105,.T.);
#69=FACE_OUTER_BOUND('',#106,.T.);
#70=FACE_OUTER_BOUND('',#107,.T.);
#71=FACE_OUTER_BOUND('',#108,.T.);
#72=FACE_OUTER_BOUND('',#109,.T.);
#73=FACE_OUTER_BOUND('',#110,.T.);
#74=FACE_OUTER_BOUND('',#111,.T.);
#75=FACE_OUTER_BOUND('',#112,.T.);
#76=FACE_OUTER_BOUND('',#113,.T.);
#77=FACE_OUTER_BOUND('',#114,.T.);
#78=FACE_OUTER_BOUND('',#115,.T.);
#79=FACE_OUTER_BOUND('',#116,.T.);
#80=EDGE_LOOP('',(#444,#445,#446,#447));
#81=EDGE_LOOP('',(#448,#449,#450,#451));
#82=EDGE_LOOP('',(#452,#453,#454,#455));
#83=EDGE_LOOP('',(#456,#457,#458,#459));
#84=EDGE_LOOP('',(#460,#461,#462,#463));
#85=EDGE_LOOP('',(#464,#465,#466,#467));
#86=EDGE_LOOP('',(#468,#469,#470,#471));
#87=EDGE_LOOP('',(#472,#473,#474,#475));
#88=EDGE_LOOP('',(#476,#477,#478,#479));
#89=EDGE_LOOP('',(#480,#481,#482,#483));
#90=EDGE_LOOP('',(#484,#485,#486,#487,#488,#489,#490,#491,#492,#493,#494,
#495,#496,#497,#498));
#91=EDGE_LOOP('',(#499));
#92=EDGE_LOOP('',(#500));
#93=EDGE_LOOP('',(#501,#502,#503,#504,#505,#506,#507,#508,#509,#510,#511,
#512,#513,#514,#515,#516,#517,#518,#519));
#94=EDGE_LOOP('',(#520,#521,#522,#523));
#95=EDGE_LOOP('',(#524,#525,#526,#527));
#96=EDGE_LOOP('',(#528,#529,#530,#531));
#97=EDGE_LOOP('',(#532,#533,#534,#535));
#98=EDGE_LOOP('',(#536,#537,#538,#539));
#99=EDGE_LOOP('',(#540,#541,#542,#543));
#100=EDGE_LOOP('',(#544,#545,#546,#547,#548,#549,#550,#551,#552,#553,#554,
#555));
#101=EDGE_LOOP('',(#556));
#102=EDGE_LOOP('',(#557));
#103=EDGE_LOOP('',(#558,#559,#560,#561));
#104=EDGE_LOOP('',(#562,#563,#564,#565));
#105=EDGE_LOOP('',(#566,#567,#568,#569,#570,#571,#572,#573));
#106=EDGE_LOOP('',(#574,#575,#576,#577));
#107=EDGE_LOOP('',(#578,#579,#580,#581));
#108=EDGE_LOOP('',(#582,#583,#584,#585));
#109=EDGE_LOOP('',(#586,#587,#588,#589));
#110=EDGE_LOOP('',(#590,#591,#592,#593));
#111=EDGE_LOOP('',(#594,#595,#596,#597));
#112=EDGE_LOOP('',(#598,#599,#600,#601));
#113=EDGE_LOOP('',(#602,#603,#604,#605));
#114=EDGE_LOOP('',(#606,#607,#608,#609));
#115=EDGE_LOOP('',(#610,#611,#612,#613,#614,#615,#616,#617));
#116=EDGE_LOOP('',(#618,#619,#620,#621,#622,#623,#624,#625));
#117=EDGE_LOOP('',(#626));
#118=EDGE_LOOP('',(#627));
#119=EDGE_LOOP('',(#628));
#120=EDGE_LOOP('',(#629));
#121=LINE('',#921,#196);
#122=LINE('',#927,#197);
#123=LINE('',#933,#198);
#124=LINE('',#939,#199);
#125=LINE('',#944,#200);
#126=LINE('',#946,#201);
#127=LINE('',#948,#202);
#128=LINE('',#949,#203);
#129=LINE('',#952,#204);
#130=LINE('',#954,#205);
#131=LINE('',#955,#206);
#132=LINE('',#958,#207);
#133=LINE('',#960,#208);
#134=LINE('',#961,#209);
#135=LINE('',#965,#210);
#136=LINE('',#967,#211);
#137=LINE('',#969,#212);
#138=LINE('',#970,#213);
#139=LINE('',#973,#214);
#140=LINE('',#975,#215);
#141=LINE('',#976,#216);
#142=LINE('',#979,#217);
#143=LINE('',#981,#218);
#144=LINE('',#982,#219);
#145=LINE('',#985,#220);
#146=LINE('',#987,#221);
#147=LINE('',#991,#222);
#148=LINE('',#995,#223);
#149=LINE('',#997,#224);
#150=LINE('',#999,#225);
#151=LINE('',#1001,#226);
#152=LINE('',#1003,#227);
#153=LINE('',#1006,#228);
#154=LINE('',#1009,#229);
#155=LINE('',#1011,#230);
#156=LINE('',#1013,#231);
#157=LINE('',#1014,#232);
#158=LINE('',#1016,#233);
#159=LINE('',#1020,#234);
#160=LINE('',#1022,#235);
#161=LINE('',#1024,#236);
#162=LINE('',#1026,#237);
#163=LINE('',#1028,#238);
#164=LINE('',#1030,#239);
#165=LINE('',#1031,#240);
#166=LINE('',#1033,#241);
#167=LINE('',#1034,#242);
#168=LINE('',#1036,#243);
#169=LINE('',#1039,#244);
#170=LINE('',#1042,#245);
#171=LINE('',#1044,#246);
#172=LINE('',#1045,#247);
#173=LINE('',#1047,#248);
#174=LINE('',#1049,#249);
#175=LINE('',#1051,#250);
#176=LINE('',#1053,#251);
#177=LINE('',#1055,#252);
#178=LINE('',#1059,#253);
#179=LINE('',#1062,#254);
#180=LINE('',#1064,#255);
#181=LINE('',#1065,#256);
#182=LINE('',#1067,#257);
#183=LINE('',#1068,#258);
#184=LINE('',#1071,#259);
#185=LINE('',#1073,#260);
#186=LINE('',#1074,#261);
#187=LINE('',#1080,#262);
#188=LINE('',#1084,#263);
#189=LINE('',#1085,#264);
#190=LINE('',#1089,#265);
#191=LINE('',#1092,#266);
#192=LINE('',#1093,#267);
#193=LINE('',#1097,#268);
#194=LINE('',#1100,#269);
#195=LINE('',#1103,#270);
#196=VECTOR('',#743,2.38125);
#197=VECTOR('',#750,2.38125);
#198=VECTOR('',#757,2.38125);
#199=VECTOR('',#764,2.38125);
#200=VECTOR('',#769,10.);
#201=VECTOR('',#770,10.);
#202=VECTOR('',#771,10.);
#203=VECTOR('',#772,10.);
#204=VECTOR('',#775,10.);
#205=VECTOR('',#776,10.);
#206=VECTOR('',#777,10.);
#207=VECTOR('',#780,10.);
#208=VECTOR('',#781,10.);
#209=VECTOR('',#782,10.);
#210=VECTOR('',#785,10.);
#211=VECTOR('',#786,10.);
#212=VECTOR('',#787,10.);
#213=VECTOR('',#788,10.);
#214=VECTOR('',#791,10.);
#215=VECTOR('',#792,10.);
#216=VECTOR('',#793,10.);
#217=VECTOR('',#796,10.);
#218=VECTOR('',#797,10.);
#219=VECTOR('',#798,10.);
#220=VECTOR('',#801,10.);
#221=VECTOR('',#802,10.);
#222=VECTOR('',#805,10.);
#223=VECTOR('',#808,10.);
#224=VECTOR('',#809,10.);
#225=VECTOR('',#810,10.);
#226=VECTOR('',#811,10.);
#227=VECTOR('',#812,10.);
#228=VECTOR('',#815,10.);
#229=VECTOR('',#818,10.);
#230=VECTOR('',#819,10.);
#231=VECTOR('',#820,10.);
#232=VECTOR('',#821,10.);
#233=VECTOR('',#822,10.);
#234=VECTOR('',#825,10.);
#235=VECTOR('',#826,10.);
#236=VECTOR('',#827,10.);
#237=VECTOR('',#828,10.);
#238=VECTOR('',#829,10.);
#239=VECTOR('',#830,10.);
#240=VECTOR('',#831,10.);
#241=VECTOR('',#834,10.);
#242=VECTOR('',#835,10.);
#243=VECTOR('',#838,10.);
#244=VECTOR('',#843,10.);
#245=VECTOR('',#846,10.);
#246=VECTOR('',#847,10.);
#247=VECTOR('',#848,10.);
#248=VECTOR('',#851,10.);
#249=VECTOR('',#854,10.);
#250=VECTOR('',#855,10.);
#251=VECTOR('',#856,10.);
#252=VECTOR('',#857,10.);
#253=VECTOR('',#860,10.);
#254=VECTOR('',#863,10.);
#255=VECTOR('',#866,10.);
#256=VECTOR('',#867,10.);
#257=VECTOR('',#870,10.);
#258=VECTOR('',#871,10.);
#259=VECTOR('',#874,10.);
#260=VECTOR('',#875,10.);
#261=VECTOR('',#876,10.);
#262=VECTOR('',#885,10.);
#263=VECTOR('',#890,10.);
#264=VECTOR('',#891,10.);
#265=VECTOR('',#896,10.);
#266=VECTOR('',#899,10.);
#267=VECTOR('',#900,10.);
#268=VECTOR('',#905,10.);
#269=VECTOR('',#908,10.);
#270=VECTOR('',#913,10.);
#271=CIRCLE('',#687,2.38125);
#272=CIRCLE('',#688,2.38125);
#273=CIRCLE('',#690,2.38125);
#274=CIRCLE('',#691,2.38125);
#275=CIRCLE('',#693,2.38125);
#276=CIRCLE('',#694,2.38125);
#277=CIRCLE('',#696,2.38125);
#278=CIRCLE('',#697,2.38125);
#279=CIRCLE('',#705,2.5);
#280=CIRCLE('',#706,2.5);
#281=CIRCLE('',#707,0.999999999999999);
#282=CIRCLE('',#709,0.999999999999999);
#283=CIRCLE('',#717,2.5);
#284=CIRCLE('',#718,2.5);
#285=CIRCLE('',#726,2.5);
#286=CIRCLE('',#729,2.5);
#287=CIRCLE('',#732,2.5);
#288=CIRCLE('',#734,2.5);
#289=VERTEX_POINT('',#918);
#290=VERTEX_POINT('',#920);
#291=VERTEX_POINT('',#924);
#292=VERTEX_POINT('',#926);
#293=VERTEX_POINT('',#930);
#294=VERTEX_POINT('',#932);
#295=VERTEX_POINT('',#936);
#296=VERTEX_POINT('',#938);
#297=VERTEX_POINT('',#942);
#298=VERTEX_POINT('',#943);
#299=VERTEX_POINT('',#945);
#300=VERTEX_POINT('',#947);
#301=VERTEX_POINT('',#951);
#302=VERTEX_POINT('',#953);
#303=VERTEX_POINT('',#957);
#304=VERTEX_POINT('',#959);
#305=VERTEX_POINT('',#963);
#306=VERTEX_POINT('',#964);
#307=VERTEX_POINT('',#966);
#308=VERTEX_POINT('',#968);
#309=VERTEX_POINT('',#972);
#310=VERTEX_POINT('',#974);
#311=VERTEX_POINT('',#978);
#312=VERTEX_POINT('',#980);
#313=VERTEX_POINT('',#984);
#314=VERTEX_POINT('',#986);
#315=VERTEX_POINT('',#988);
#316=VERTEX_POINT('',#990);
#317=VERTEX_POINT('',#992);
#318=VERTEX_POINT('',#994);
#319=VERTEX_POINT('',#996);
#320=VERTEX_POINT('',#998);
#321=VERTEX_POINT('',#1000);
#322=VERTEX_POINT('',#1002);
#323=VERTEX_POINT('',#1004);
#324=VERTEX_POINT('',#1008);
#325=VERTEX_POINT('',#1010);
#326=VERTEX_POINT('',#1012);
#327=VERTEX_POINT('',#1015);
#328=VERTEX_POINT('',#1017);
#329=VERTEX_POINT('',#1019);
#330=VERTEX_POINT('',#1021);
#331=VERTEX_POINT('',#1023);
#332=VERTEX_POINT('',#1025);
#333=VERTEX_POINT('',#1027);
#334=VERTEX_POINT('',#1029);
#335=VERTEX_POINT('',#1041);
#336=VERTEX_POINT('',#1043);
#337=VERTEX_POINT('',#1050);
#338=VERTEX_POINT('',#1052);
#339=VERTEX_POINT('',#1054);
#340=VERTEX_POINT('',#1056);
#341=VERTEX_POINT('',#1058);
#342=VERTEX_POINT('',#1060);
#343=VERTEX_POINT('',#1070);
#344=VERTEX_POINT('',#1072);
#345=VERTEX_POINT('',#1079);
#346=VERTEX_POINT('',#1083);
#347=VERTEX_POINT('',#1087);
#348=VERTEX_POINT('',#1091);
#349=VERTEX_POINT('',#1095);
#350=VERTEX_POINT('',#1099);
#351=EDGE_CURVE('',#289,#289,#271,.T.);
#352=EDGE_CURVE('',#289,#290,#121,.T.);
#353=EDGE_CURVE('',#290,#290,#272,.T.);
#354=EDGE_CURVE('',#291,#291,#273,.T.);
#355=EDGE_CURVE('',#291,#292,#122,.T.);
#356=EDGE_CURVE('',#292,#292,#274,.T.);
#357=EDGE_CURVE('',#293,#293,#275,.T.);
#358=EDGE_CURVE('',#293,#294,#123,.T.);
#359=EDGE_CURVE('',#294,#294,#276,.T.);
#360=EDGE_CURVE('',#295,#295,#277,.T.);
#361=EDGE_CURVE('',#295,#296,#124,.T.);
#362=EDGE_CURVE('',#296,#296,#278,.T.);
#363=EDGE_CURVE('',#297,#298,#125,.T.);
#364=EDGE_CURVE('',#297,#299,#126,.T.);
#365=EDGE_CURVE('',#300,#299,#127,.T.);
#366=EDGE_CURVE('',#298,#300,#128,.T.);
#367=EDGE_CURVE('',#301,#297,#129,.T.);
#368=EDGE_CURVE('',#302,#301,#130,.T.);
#369=EDGE_CURVE('',#299,#302,#131,.T.);
#370=EDGE_CURVE('',#300,#303,#132,.T.);
#371=EDGE_CURVE('',#304,#303,#133,.T.);
#372=EDGE_CURVE('',#298,#304,#134,.T.);
#373=EDGE_CURVE('',#305,#306,#135,.T.);
#374=EDGE_CURVE('',#307,#305,#136,.T.);
#375=EDGE_CURVE('',#308,#307,#137,.T.);
#376=EDGE_CURVE('',#306,#308,#138,.T.);
#377=EDGE_CURVE('',#308,#309,#139,.T.);
#378=EDGE_CURVE('',#310,#307,#140,.T.);
#379=EDGE_CURVE('',#309,#310,#141,.T.);
#380=EDGE_CURVE('',#310,#311,#142,.T.);
#381=EDGE_CURVE('',#311,#312,#143,.T.);
#382=EDGE_CURVE('',#309,#312,#144,.T.);
#383=EDGE_CURVE('',#312,#313,#145,.T.);
#384=EDGE_CURVE('',#313,#314,#146,.T.);
#385=EDGE_CURVE('',#315,#314,#279,.T.);
#386=EDGE_CURVE('',#315,#316,#147,.T.);
#387=EDGE_CURVE('',#317,#316,#280,.T.);
#388=EDGE_CURVE('',#317,#318,#148,.T.);
#389=EDGE_CURVE('',#318,#319,#149,.T.);
#390=EDGE_CURVE('',#319,#320,#150,.T.);
#391=EDGE_CURVE('',#320,#321,#151,.T.);
#392=EDGE_CURVE('',#322,#321,#152,.T.);
#393=EDGE_CURVE('',#322,#323,#281,.T.);
#394=EDGE_CURVE('',#306,#323,#153,.T.);
#395=EDGE_CURVE('',#324,#302,#154,.T.);
#396=EDGE_CURVE('',#325,#324,#155,.T.);
#397=EDGE_CURVE('',#326,#325,#156,.T.);
#398=EDGE_CURVE('',#311,#326,#157,.T.);
#399=EDGE_CURVE('',#305,#327,#158,.T.);
#400=EDGE_CURVE('',#327,#328,#282,.T.);
#401=EDGE_CURVE('',#328,#329,#159,.T.);
#402=EDGE_CURVE('',#330,#329,#160,.T.);
#403=EDGE_CURVE('',#331,#330,#161,.T.);
#404=EDGE_CURVE('',#332,#331,#162,.T.);
#405=EDGE_CURVE('',#333,#332,#163,.T.);
#406=EDGE_CURVE('',#334,#333,#164,.T.);
#407=EDGE_CURVE('',#303,#334,#165,.T.);
#408=EDGE_CURVE('',#329,#321,#166,.T.);
#409=EDGE_CURVE('',#322,#328,#167,.T.);
#410=EDGE_CURVE('',#323,#327,#168,.T.);
#411=EDGE_CURVE('',#320,#330,#169,.T.);
#412=EDGE_CURVE('',#325,#335,#170,.T.);
#413=EDGE_CURVE('',#336,#324,#171,.T.);
#414=EDGE_CURVE('',#335,#336,#172,.T.);
#415=EDGE_CURVE('',#313,#326,#173,.T.);
#416=EDGE_CURVE('',#336,#301,#174,.T.);
#417=EDGE_CURVE('',#304,#337,#175,.T.);
#418=EDGE_CURVE('',#337,#338,#176,.T.);
#419=EDGE_CURVE('',#338,#339,#177,.T.);
#420=EDGE_CURVE('',#340,#339,#283,.T.);
#421=EDGE_CURVE('',#340,#341,#178,.T.);
#422=EDGE_CURVE('',#342,#341,#284,.T.);
#423=EDGE_CURVE('',#342,#335,#179,.T.);
#424=EDGE_CURVE('',#332,#318,#180,.T.);
#425=EDGE_CURVE('',#319,#331,#181,.T.);
#426=EDGE_CURVE('',#338,#333,#182,.T.);
#427=EDGE_CURVE('',#334,#337,#183,.T.);
#428=EDGE_CURVE('',#343,#317,#184,.T.);
#429=EDGE_CURVE('',#343,#344,#185,.T.);
#430=EDGE_CURVE('',#339,#344,#186,.T.);
#431=EDGE_CURVE('',#316,#345,#187,.T.);
#432=EDGE_CURVE('',#345,#343,#285,.T.);
#433=EDGE_CURVE('',#346,#315,#188,.T.);
#434=EDGE_CURVE('',#346,#345,#189,.T.);
#435=EDGE_CURVE('',#344,#347,#286,.T.);
#436=EDGE_CURVE('',#347,#340,#190,.T.);
#437=EDGE_CURVE('',#347,#348,#191,.T.);
#438=EDGE_CURVE('',#341,#348,#192,.T.);
#439=EDGE_CURVE('',#348,#349,#287,.T.);
#440=EDGE_CURVE('',#349,#342,#193,.T.);
#441=EDGE_CURVE('',#314,#350,#194,.T.);
#442=EDGE_CURVE('',#350,#346,#288,.T.);
#443=EDGE_CURVE('',#349,#350,#195,.T.);
#444=ORIENTED_EDGE('',*,*,#351,.F.);
#445=ORIENTED_EDGE('',*,*,#352,.T.);
#446=ORIENTED_EDGE('',*,*,#353,.F.);
#447=ORIENTED_EDGE('',*,*,#352,.F.);
#448=ORIENTED_EDGE('',*,*,#354,.F.);
#449=ORIENTED_EDGE('',*,*,#355,.T.);
#450=ORIENTED_EDGE('',*,*,#356,.F.);
#451=ORIENTED_EDGE('',*,*,#355,.F.);
#452=ORIENTED_EDGE('',*,*,#357,.F.);
#453=ORIENTED_EDGE('',*,*,#358,.T.);
#454=ORIENTED_EDGE('',*,*,#359,.F.);
#455=ORIENTED_EDGE('',*,*,#358,.F.);
#456=ORIENTED_EDGE('',*,*,#360,.F.);
#457=ORIENTED_EDGE('',*,*,#361,.T.);
#458=ORIENTED_EDGE('',*,*,#362,.F.);
#459=ORIENTED_EDGE('',*,*,#361,.F.);
#460=ORIENTED_EDGE('',*,*,#363,.F.);
#461=ORIENTED_EDGE('',*,*,#364,.T.);
#462=ORIENTED_EDGE('',*,*,#365,.F.);
#463=ORIENTED_EDGE('',*,*,#366,.F.);
#464=ORIENTED_EDGE('',*,*,#367,.F.);
#465=ORIENTED_EDGE('',*,*,#368,.F.);
#466=ORIENTED_EDGE('',*,*,#369,.F.);
#467=ORIENTED_EDGE('',*,*,#364,.F.);
#468=ORIENTED_EDGE('',*,*,#366,.T.);
#469=ORIENTED_EDGE('',*,*,#370,.T.);
#470=ORIENTED_EDGE('',*,*,#371,.F.);
#471=ORIENTED_EDGE('',*,*,#372,.F.);
#472=ORIENTED_EDGE('',*,*,#373,.F.);
#473=ORIENTED_EDGE('',*,*,#374,.F.);
#474=ORIENTED_EDGE('',*,*,#375,.F.);
#475=ORIENTED_EDGE('',*,*,#376,.F.);
#476=ORIENTED_EDGE('',*,*,#377,.F.);
#477=ORIENTED_EDGE('',*,*,#375,.T.);
#478=ORIENTED_EDGE('',*,*,#378,.F.);
#479=ORIENTED_EDGE('',*,*,#379,.F.);
#480=ORIENTED_EDGE('',*,*,#379,.T.);
#481=ORIENTED_EDGE('',*,*,#380,.T.);
#482=ORIENTED_EDGE('',*,*,#381,.T.);
#483=ORIENTED_EDGE('',*,*,#382,.F.);
#484=ORIENTED_EDGE('',*,*,#382,.T.);
#485=ORIENTED_EDGE('',*,*,#383,.T.);
#486=ORIENTED_EDGE('',*,*,#384,.T.);
#487=ORIENTED_EDGE('',*,*,#385,.F.);
#488=ORIENTED_EDGE('',*,*,#386,.T.);
#489=ORIENTED_EDGE('',*,*,#387,.F.);
#490=ORIENTED_EDGE('',*,*,#388,.T.);
#491=ORIENTED_EDGE('',*,*,#389,.T.);
#492=ORIENTED_EDGE('',*,*,#390,.T.);
#493=ORIENTED_EDGE('',*,*,#391,.T.);
#494=ORIENTED_EDGE('',*,*,#392,.F.);
#495=ORIENTED_EDGE('',*,*,#393,.T.);
#496=ORIENTED_EDGE('',*,*,#394,.F.);
#497=ORIENTED_EDGE('',*,*,#376,.T.);
#498=ORIENTED_EDGE('',*,*,#377,.T.);
#499=ORIENTED_EDGE('',*,*,#354,.T.);
#500=ORIENTED_EDGE('',*,*,#360,.T.);
#501=ORIENTED_EDGE('',*,*,#369,.T.);
#502=ORIENTED_EDGE('',*,*,#395,.F.);
#503=ORIENTED_EDGE('',*,*,#396,.F.);
#504=ORIENTED_EDGE('',*,*,#397,.F.);
#505=ORIENTED_EDGE('',*,*,#398,.F.);
#506=ORIENTED_EDGE('',*,*,#380,.F.);
#507=ORIENTED_EDGE('',*,*,#378,.T.);
#508=ORIENTED_EDGE('',*,*,#374,.T.);
#509=ORIENTED_EDGE('',*,*,#399,.T.);
#510=ORIENTED_EDGE('',*,*,#400,.T.);
#511=ORIENTED_EDGE('',*,*,#401,.T.);
#512=ORIENTED_EDGE('',*,*,#402,.F.);
#513=ORIENTED_EDGE('',*,*,#403,.F.);
#514=ORIENTED_EDGE('',*,*,#404,.F.);
#515=ORIENTED_EDGE('',*,*,#405,.F.);
#516=ORIENTED_EDGE('',*,*,#406,.F.);
#517=ORIENTED_EDGE('',*,*,#407,.F.);
#518=ORIENTED_EDGE('',*,*,#370,.F.);
#519=ORIENTED_EDGE('',*,*,#365,.T.);
#520=ORIENTED_EDGE('',*,*,#408,.F.);
#521=ORIENTED_EDGE('',*,*,#401,.F.);
#522=ORIENTED_EDGE('',*,*,#409,.F.);
#523=ORIENTED_EDGE('',*,*,#392,.T.);
#524=ORIENTED_EDGE('',*,*,#373,.T.);
#525=ORIENTED_EDGE('',*,*,#394,.T.);
#526=ORIENTED_EDGE('',*,*,#410,.T.);
#527=ORIENTED_EDGE('',*,*,#399,.F.);
#528=ORIENTED_EDGE('',*,*,#393,.F.);
#529=ORIENTED_EDGE('',*,*,#409,.T.);
#530=ORIENTED_EDGE('',*,*,#400,.F.);
#531=ORIENTED_EDGE('',*,*,#410,.F.);
#532=ORIENTED_EDGE('',*,*,#408,.T.);
#533=ORIENTED_EDGE('',*,*,#391,.F.);
#534=ORIENTED_EDGE('',*,*,#411,.T.);
#535=ORIENTED_EDGE('',*,*,#402,.T.);
#536=ORIENTED_EDGE('',*,*,#412,.F.);
#537=ORIENTED_EDGE('',*,*,#396,.T.);
#538=ORIENTED_EDGE('',*,*,#413,.F.);
#539=ORIENTED_EDGE('',*,*,#414,.F.);
#540=ORIENTED_EDGE('',*,*,#415,.F.);
#541=ORIENTED_EDGE('',*,*,#383,.F.);
#542=ORIENTED_EDGE('',*,*,#381,.F.);
#543=ORIENTED_EDGE('',*,*,#398,.T.);
#544=ORIENTED_EDGE('',*,*,#414,.T.);
#545=ORIENTED_EDGE('',*,*,#416,.T.);
#546=ORIENTED_EDGE('',*,*,#367,.T.);
#547=ORIENTED_EDGE('',*,*,#363,.T.);
#548=ORIENTED_EDGE('',*,*,#372,.T.);
#549=ORIENTED_EDGE('',*,*,#417,.T.);
#550=ORIENTED_EDGE('',*,*,#418,.T.);
#551=ORIENTED_EDGE('',*,*,#419,.T.);
#552=ORIENTED_EDGE('',*,*,#420,.F.);
#553=ORIENTED_EDGE('',*,*,#421,.T.);
#554=ORIENTED_EDGE('',*,*,#422,.F.);
#555=ORIENTED_EDGE('',*,*,#423,.T.);
#556=ORIENTED_EDGE('',*,*,#351,.T.);
#557=ORIENTED_EDGE('',*,*,#357,.T.);
#558=ORIENTED_EDGE('',*,*,#424,.F.);
#559=ORIENTED_EDGE('',*,*,#404,.T.);
#560=ORIENTED_EDGE('',*,*,#425,.F.);
#561=ORIENTED_EDGE('',*,*,#389,.F.);
#562=ORIENTED_EDGE('',*,*,#426,.F.);
#563=ORIENTED_EDGE('',*,*,#418,.F.);
#564=ORIENTED_EDGE('',*,*,#427,.F.);
#565=ORIENTED_EDGE('',*,*,#406,.T.);
#566=ORIENTED_EDGE('',*,*,#426,.T.);
#567=ORIENTED_EDGE('',*,*,#405,.T.);
#568=ORIENTED_EDGE('',*,*,#424,.T.);
#569=ORIENTED_EDGE('',*,*,#388,.F.);
#570=ORIENTED_EDGE('',*,*,#428,.F.);
#571=ORIENTED_EDGE('',*,*,#429,.T.);
#572=ORIENTED_EDGE('',*,*,#430,.F.);
#573=ORIENTED_EDGE('',*,*,#419,.F.);
#574=ORIENTED_EDGE('',*,*,#425,.T.);
#575=ORIENTED_EDGE('',*,*,#403,.T.);
#576=ORIENTED_EDGE('',*,*,#411,.F.);
#577=ORIENTED_EDGE('',*,*,#390,.F.);
#578=ORIENTED_EDGE('',*,*,#427,.T.);
#579=ORIENTED_EDGE('',*,*,#417,.F.);
#580=ORIENTED_EDGE('',*,*,#371,.T.);
#581=ORIENTED_EDGE('',*,*,#407,.T.);
#582=ORIENTED_EDGE('',*,*,#368,.T.);
#583=ORIENTED_EDGE('',*,*,#416,.F.);
#584=ORIENTED_EDGE('',*,*,#413,.T.);
#585=ORIENTED_EDGE('',*,*,#395,.T.);
#586=ORIENTED_EDGE('',*,*,#387,.T.);
#587=ORIENTED_EDGE('',*,*,#431,.T.);
#588=ORIENTED_EDGE('',*,*,#432,.T.);
#589=ORIENTED_EDGE('',*,*,#428,.T.);
#590=ORIENTED_EDGE('',*,*,#431,.F.);
#591=ORIENTED_EDGE('',*,*,#386,.F.);
#592=ORIENTED_EDGE('',*,*,#433,.F.);
#593=ORIENTED_EDGE('',*,*,#434,.T.);
#594=ORIENTED_EDGE('',*,*,#420,.T.);
#595=ORIENTED_EDGE('',*,*,#430,.T.);
#596=ORIENTED_EDGE('',*,*,#435,.T.);
#597=ORIENTED_EDGE('',*,*,#436,.T.);
#598=ORIENTED_EDGE('',*,*,#436,.F.);
#599=ORIENTED_EDGE('',*,*,#437,.T.);
#600=ORIENTED_EDGE('',*,*,#438,.F.);
#601=ORIENTED_EDGE('',*,*,#421,.F.);
#602=ORIENTED_EDGE('',*,*,#422,.T.);
#603=ORIENTED_EDGE('',*,*,#438,.T.);
#604=ORIENTED_EDGE('',*,*,#439,.T.);
#605=ORIENTED_EDGE('',*,*,#440,.T.);
#606=ORIENTED_EDGE('',*,*,#385,.T.);
#607=ORIENTED_EDGE('',*,*,#441,.T.);
#608=ORIENTED_EDGE('',*,*,#442,.T.);
#609=ORIENTED_EDGE('',*,*,#433,.T.);
#610=ORIENTED_EDGE('',*,*,#412,.T.);
#611=ORIENTED_EDGE('',*,*,#423,.F.);
#612=ORIENTED_EDGE('',*,*,#440,.F.);
#613=ORIENTED_EDGE('',*,*,#443,.T.);
#614=ORIENTED_EDGE('',*,*,#441,.F.);
#615=ORIENTED_EDGE('',*,*,#384,.F.);
#616=ORIENTED_EDGE('',*,*,#415,.T.);
#617=ORIENTED_EDGE('',*,*,#397,.T.);
#618=ORIENTED_EDGE('',*,*,#432,.F.);
#619=ORIENTED_EDGE('',*,*,#434,.F.);
#620=ORIENTED_EDGE('',*,*,#442,.F.);
#621=ORIENTED_EDGE('',*,*,#443,.F.);
#622=ORIENTED_EDGE('',*,*,#439,.F.);
#623=ORIENTED_EDGE('',*,*,#437,.F.);
#624=ORIENTED_EDGE('',*,*,#435,.F.);
#625=ORIENTED_EDGE('',*,*,#429,.F.);
#626=ORIENTED_EDGE('',*,*,#353,.T.);
#627=ORIENTED_EDGE('',*,*,#356,.T.);
#628=ORIENTED_EDGE('',*,*,#359,.T.);
#629=ORIENTED_EDGE('',*,*,#362,.T.);
#630=CYLINDRICAL_SURFACE('',#686,2.38125);
#631=CYLINDRICAL_SURFACE('',#689,2.38125);
#632=CYLINDRICAL_SURFACE('',#692,2.38125);
#633=CYLINDRICAL_SURFACE('',#695,2.38125);
#634=CYLINDRICAL_SURFACE('',#712,0.999999999999999);
#635=CYLINDRICAL_SURFACE('',#725,2.5);
#636=CYLINDRICAL_SURFACE('',#728,2.5);
#637=CYLINDRICAL_SURFACE('',#731,2.5);
#638=CYLINDRICAL_SURFACE('',#733,2.5);
#639=ADVANCED_FACE('',(#47),#630,.F.);
#640=ADVANCED_FACE('',(#48),#631,.F.);
#641=ADVANCED_FACE('',(#49),#632,.F.);
#642=ADVANCED_FACE('',(#50),#633,.F.);
#643=ADVANCED_FACE('',(#51),#23,.T.);
#644=ADVANCED_FACE('',(#52),#24,.T.);
#645=ADVANCED_FACE('',(#53),#25,.F.);
#646=ADVANCED_FACE('',(#54),#26,.T.);
#647=ADVANCED_FACE('',(#55),#27,.T.);
#648=ADVANCED_FACE('',(#56),#28,.F.);
#649=ADVANCED_FACE('',(#57,#15,#16),#29,.T.);
#650=ADVANCED_FACE('',(#58),#30,.F.);
#651=ADVANCED_FACE('',(#59),#31,.T.);
#652=ADVANCED_FACE('',(#60),#32,.T.);
#653=ADVANCED_FACE('',(#61),#634,.T.);
#654=ADVANCED_FACE('',(#62),#33,.F.);
#655=ADVANCED_FACE('',(#63),#34,.F.);
#656=ADVANCED_FACE('',(#64),#35,.F.);
#657=ADVANCED_FACE('',(#65,#17,#18),#36,.T.);
#658=ADVANCED_FACE('',(#66),#37,.F.);
#659=ADVANCED_FACE('',(#67),#38,.F.);
#660=ADVANCED_FACE('',(#68),#39,.T.);
#661=ADVANCED_FACE('',(#69),#40,.F.);
#662=ADVANCED_FACE('',(#70),#41,.F.);
#663=ADVANCED_FACE('',(#71),#42,.F.);
#664=ADVANCED_FACE('',(#72),#635,.T.);
#665=ADVANCED_FACE('',(#73),#43,.T.);
#666=ADVANCED_FACE('',(#74),#636,.T.);
#667=ADVANCED_FACE('',(#75),#44,.T.);
#668=ADVANCED_FACE('',(#76),#637,.T.);
#669=ADVANCED_FACE('',(#77),#638,.T.);
#670=ADVANCED_FACE('',(#78),#45,.T.);
#671=ADVANCED_FACE('',(#79,#19,#20,#21,#22),#46,.F.);
#672=CLOSED_SHELL('',(#639,#640,#641,#642,#643,#644,#645,#646,#647,#648,
#649,#650,#651,#652,#653,#654,#655,#656,#657,#658,#659,#660,#661,#662,#663,
#664,#665,#666,#667,#668,#669,#670,#671));
#673=DERIVED_UNIT_ELEMENT(#675,1.);
#674=DERIVED_UNIT_ELEMENT(#1110,-3.);
#675=(
MASS_UNIT()
NAMED_UNIT(*)
SI_UNIT(.KILO.,.GRAM.)
);
#676=DERIVED_UNIT((#673,#674));
#677=MEASURE_REPRESENTATION_ITEM('density measure',
POSITIVE_RATIO_MEASURE(7850.),#676);
#678=PROPERTY_DEFINITION_REPRESENTATION(#683,#680);
#679=PROPERTY_DEFINITION_REPRESENTATION(#684,#681);
#680=REPRESENTATION('material name',(#682),#1107);
#681=REPRESENTATION('density',(#677),#1107);
#682=DESCRIPTIVE_REPRESENTATION_ITEM('Steel','Steel');
#683=PROPERTY_DEFINITION('material property','material name',#1117);
#684=PROPERTY_DEFINITION('material property','density of part',#1117);
#685=AXIS2_PLACEMENT_3D('',#916,#737,#738);
#686=AXIS2_PLACEMENT_3D('',#917,#739,#740);
#687=AXIS2_PLACEMENT_3D('',#919,#741,#742);
#688=AXIS2_PLACEMENT_3D('',#922,#744,#745);
#689=AXIS2_PLACEMENT_3D('',#923,#746,#747);
#690=AXIS2_PLACEMENT_3D('',#925,#748,#749);
#691=AXIS2_PLACEMENT_3D('',#928,#751,#752);
#692=AXIS2_PLACEMENT_3D('',#929,#753,#754);
#693=AXIS2_PLACEMENT_3D('',#931,#755,#756);
#694=AXIS2_PLACEMENT_3D('',#934,#758,#759);
#695=AXIS2_PLACEMENT_3D('',#935,#760,#761);
#696=AXIS2_PLACEMENT_3D('',#937,#762,#763);
#697=AXIS2_PLACEMENT_3D('',#940,#765,#766);
#698=AXIS2_PLACEMENT_3D('',#941,#767,#768);
#699=AXIS2_PLACEMENT_3D('',#950,#773,#774);
#700=AXIS2_PLACEMENT_3D('',#956,#778,#779);
#701=AXIS2_PLACEMENT_3D('',#962,#783,#784);
#702=AXIS2_PLACEMENT_3D('',#971,#789,#790);
#703=AXIS2_PLACEMENT_3D('',#977,#794,#795);
#704=AXIS2_PLACEMENT_3D('',#983,#799,#800);
#705=AXIS2_PLACEMENT_3D('',#989,#803,#804);
#706=AXIS2_PLACEMENT_3D('',#993,#806,#807);
#707=AXIS2_PLACEMENT_3D('',#1005,#813,#814);
#708=AXIS2_PLACEMENT_3D('',#1007,#816,#817);
#709=AXIS2_PLACEMENT_3D('',#1018,#823,#824);
#710=AXIS2_PLACEMENT_3D('',#1032,#832,#833);
#711=AXIS2_PLACEMENT_3D('',#1035,#836,#837);
#712=AXIS2_PLACEMENT_3D('',#1037,#839,#840);
#713=AXIS2_PLACEMENT_3D('',#1038,#841,#842);
#714=AXIS2_PLACEMENT_3D('',#1040,#844,#845);
#715=AXIS2_PLACEMENT_3D('',#1046,#849,#850);
#716=AXIS2_PLACEMENT_3D('',#1048,#852,#853);
#717=AXIS2_PLACEMENT_3D('',#1057,#858,#859);
#718=AXIS2_PLACEMENT_3D('',#1061,#861,#862);
#719=AXIS2_PLACEMENT_3D('',#1063,#864,#865);
#720=AXIS2_PLACEMENT_3D('',#1066,#868,#869);
#721=AXIS2_PLACEMENT_3D('',#1069,#872,#873);
#722=AXIS2_PLACEMENT_3D('',#1075,#877,#878);
#723=AXIS2_PLACEMENT_3D('',#1076,#879,#880);
#724=AXIS2_PLACEMENT_3D('',#1077,#881,#882);
#725=AXIS2_PLACEMENT_3D('',#1078,#883,#884);
#726=AXIS2_PLACEMENT_3D('',#1081,#886,#887);
#727=AXIS2_PLACEMENT_3D('',#1082,#888,#889);
#728=AXIS2_PLACEMENT_3D('',#1086,#892,#893);
#729=AXIS2_PLACEMENT_3D('',#1088,#894,#895);
#730=AXIS2_PLACEMENT_3D('',#1090,#897,#898);
#731=AXIS2_PLACEMENT_3D('',#1094,#901,#902);
#732=AXIS2_PLACEMENT_3D('',#1096,#903,#904);
#733=AXIS2_PLACEMENT_3D('',#1098,#906,#907);
#734=AXIS2_PLACEMENT_3D('',#1101,#909,#910);
#735=AXIS2_PLACEMENT_3D('',#1102,#911,#912);
#736=AXIS2_PLACEMENT_3D('',#1104,#914,#915);
#737=DIRECTION('axis',(0.,0.,1.));
#738=DIRECTION('refdir',(1.,0.,0.));
#739=DIRECTION('center_axis',(0.,0.,-1.));
#740=DIRECTION('ref_axis',(1.,0.,0.));
#741=DIRECTION('center_axis',(0.,0.,-1.));
#742=DIRECTION('ref_axis',(1.,0.,0.));
#743=DIRECTION('',(0.,0.,-1.));
#744=DIRECTION('center_axis',(0.,0.,1.));
#745=DIRECTION('ref_axis',(1.,0.,0.));
#746=DIRECTION('center_axis',(0.,0.,-1.));
#747=DIRECTION('ref_axis',(1.,0.,0.));
#748=DIRECTION('center_axis',(0.,0.,-1.));
#749=DIRECTION('ref_axis',(1.,0.,0.));
#750=DIRECTION('',(0.,0.,-1.));
#751=DIRECTION('center_axis',(0.,0.,1.));
#752=DIRECTION('ref_axis',(1.,0.,0.));
#753=DIRECTION('center_axis',(0.,0.,-1.));
#754=DIRECTION('ref_axis',(1.,0.,0.));
#755=DIRECTION('center_axis',(0.,0.,-1.));
#756=DIRECTION('ref_axis',(1.,0.,0.));
#757=DIRECTION('',(0.,0.,-1.));
#758=DIRECTION('center_axis',(0.,0.,1.));
#759=DIRECTION('ref_axis',(1.,0.,0.));
#760=DIRECTION('center_axis',(0.,0.,-1.));
#761=DIRECTION('ref_axis',(1.,0.,0.));
#762=DIRECTION('center_axis',(0.,0.,-1.));
#763=DIRECTION('ref_axis',(1.,0.,0.));
#764=DIRECTION('',(0.,0.,-1.));
#765=DIRECTION('center_axis',(0.,0.,1.));
#766=DIRECTION('ref_axis',(1.,0.,0.));
#767=DIRECTION('center_axis',(0.,-1.,0.));
#768=DIRECTION('ref_axis',(-1.,0.,0.));
#769=DIRECTION('',(1.,0.,0.));
#770=DIRECTION('',(0.,0.,-1.));
#771=DIRECTION('',(-1.,0.,0.));
#772=DIRECTION('',(0.,0.,-1.));
#773=DIRECTION('center_axis',(-1.,0.,0.));
#774=DIRECTION('ref_axis',(0.,1.,0.));
#775=DIRECTION('',(0.,-1.,0.));
#776=DIRECTION('',(0.,0.,1.));
#777=DIRECTION('',(0.,1.,0.));
#778=DIRECTION('center_axis',(1.,0.,0.));
#779=DIRECTION('ref_axis',(0.,-1.,0.));
#780=DIRECTION('',(0.,-1.,0.));
#781=DIRECTION('',(0.,0.,-1.));
#782=DIRECTION('',(0.,-1.,0.));
#783=DIRECTION('center_axis',(0.,-1.,0.));
#784=DIRECTION('ref_axis',(-1.,0.,0.));
#785=DIRECTION('',(0.,0.,1.));
#786=DIRECTION('',(-1.,0.,0.));
#787=DIRECTION('',(0.,0.,-1.));
#788=DIRECTION('',(1.,0.,0.));
#789=DIRECTION('center_axis',(1.,0.,0.));
#790=DIRECTION('ref_axis',(0.,-1.,0.));
#791=DIRECTION('',(0.,1.,0.));
#792=DIRECTION('',(0.,-1.,0.));
#793=DIRECTION('',(0.,0.,-1.));
#794=DIRECTION('center_axis',(0.,1.,0.));
#795=DIRECTION('ref_axis',(1.,0.,0.));
#796=DIRECTION('',(1.,0.,0.));
#797=DIRECTION('',(0.,0.,1.));
#798=DIRECTION('',(1.,0.,0.));
#799=DIRECTION('center_axis',(0.,0.,1.));
#800=DIRECTION('ref_axis',(1.,0.,0.));
#801=DIRECTION('',(0.,1.,0.));
#802=DIRECTION('',(-1.,0.,0.));
#803=DIRECTION('center_axis',(0.,0.,-1.));
#804=DIRECTION('ref_axis',(-0.707106781186547,0.707106781186547,0.));
#805=DIRECTION('',(0.,-1.,0.));
#806=DIRECTION('center_axis',(0.,0.,-1.));
#807=DIRECTION('ref_axis',(-0.707106781186547,-0.707106781186547,0.));
#808=DIRECTION('',(1.,0.,0.));
#809=DIRECTION('',(0.,1.,0.));
#810=DIRECTION('',(-1.,0.,0.));
#811=DIRECTION('',(0.,1.,0.));
#812=DIRECTION('',(-1.,0.,0.));
#813=DIRECTION('center_axis',(0.,0.,1.));
#814=DIRECTION('ref_axis',(0.,-1.,0.));
#815=DIRECTION('',(0.,-1.,0.));
#816=DIRECTION('center_axis',(0.,0.,-1.));
#817=DIRECTION('ref_axis',(-1.,0.,0.));
#818=DIRECTION('',(1.,0.,0.));
#819=DIRECTION('',(0.,-1.,0.));
#820=DIRECTION('',(1.,0.,0.));
#821=DIRECTION('',(0.,1.,0.));
#822=DIRECTION('',(0.,-1.,0.));
#823=DIRECTION('center_axis',(0.,0.,-1.));
#824=DIRECTION('ref_axis',(0.,-1.,0.));
#825=DIRECTION('',(-1.,0.,0.));
#826=DIRECTION('',(0.,1.,0.));
#827=DIRECTION('',(-1.,0.,0.));
#828=DIRECTION('',(0.,1.,0.));
#829=DIRECTION('',(-1.,0.,0.));
#830=DIRECTION('',(0.,-1.,0.));
#831=DIRECTION('',(-1.,0.,0.));
#832=DIRECTION('center_axis',(0.,-1.,0.));
#833=DIRECTION('ref_axis',(-1.,0.,0.));
#834=DIRECTION('',(0.,0.,1.));
#835=DIRECTION('',(0.,0.,-1.));
#836=DIRECTION('center_axis',(1.,0.,0.));
#837=DIRECTION('ref_axis',(0.,-1.,0.));
#838=DIRECTION('',(0.,0.,-1.));
#839=DIRECTION('center_axis',(0.,0.,-1.));
#840=DIRECTION('ref_axis',(0.,-1.,0.));
#841=DIRECTION('center_axis',(-1.,0.,0.));
#842=DIRECTION('ref_axis',(0.,1.,0.));
#843=DIRECTION('',(0.,0.,-1.));
#844=DIRECTION('center_axis',(1.,0.,0.));
#845=DIRECTION('ref_axis',(0.,-1.,0.));
#846=DIRECTION('',(0.,0.,1.));
#847=DIRECTION('',(0.,0.,-1.));
#848=DIRECTION('',(0.,-1.,0.));
#849=DIRECTION('center_axis',(-1.,0.,0.));
#850=DIRECTION('ref_axis',(0.,1.,0.));
#851=DIRECTION('',(0.,0.,-1.));
#852=DIRECTION('center_axis',(0.,0.,1.));
#853=DIRECTION('ref_axis',(1.,0.,0.));
#854=DIRECTION('',(1.,0.,0.));
#855=DIRECTION('',(-1.,0.,0.));
#856=DIRECTION('',(0.,-1.,0.));
#857=DIRECTION('',(1.,0.,0.));
#858=DIRECTION('center_axis',(0.,0.,-1.));
#859=DIRECTION('ref_axis',(0.707106781186547,-0.707106781186547,0.));
#860=DIRECTION('',(0.,1.,0.));
#861=DIRECTION('center_axis',(0.,0.,-1.));
#862=DIRECTION('ref_axis',(0.707106781186547,0.707106781186547,0.));
#863=DIRECTION('',(-1.,0.,0.));
#864=DIRECTION('center_axis',(-1.,0.,0.));
#865=DIRECTION('ref_axis',(0.,1.,0.));
#866=DIRECTION('',(0.,0.,1.));
#867=DIRECTION('',(0.,0.,-1.));
#868=DIRECTION('center_axis',(1.,0.,0.));
#869=DIRECTION('ref_axis',(0.,-1.,0.));
#870=DIRECTION('',(0.,0.,-1.));
#871=DIRECTION('',(0.,0.,1.));
#872=DIRECTION('center_axis',(0.,-1.,0.));
#873=DIRECTION('ref_axis',(1.,0.,0.));
#874=DIRECTION('',(0.,0.,1.));
#875=DIRECTION('',(1.,0.,0.));
#876=DIRECTION('',(0.,0.,-1.));
#877=DIRECTION('center_axis',(0.,-1.,0.));
#878=DIRECTION('ref_axis',(-1.,0.,0.));
#879=DIRECTION('center_axis',(0.,-1.,0.));
#880=DIRECTION('ref_axis',(-1.,0.,0.));
#881=DIRECTION('center_axis',(0.,1.,0.));
#882=DIRECTION('ref_axis',(1.,0.,0.));
#883=DIRECTION('center_axis',(0.,0.,1.));
#884=DIRECTION('ref_axis',(-0.707106781186547,-0.707106781186547,0.));
#885=DIRECTION('',(0.,0.,-1.));
#886=DIRECTION('center_axis',(0.,0.,1.));
#887=DIRECTION('ref_axis',(-0.707106781186547,-0.707106781186547,0.));
#888=DIRECTION('center_axis',(-1.,0.,0.));
#889=DIRECTION('ref_axis',(0.,-1.,0.));
#890=DIRECTION('',(0.,0.,1.));
#891=DIRECTION('',(0.,-1.,0.));
#892=DIRECTION('center_axis',(0.,0.,1.));
#893=DIRECTION('ref_axis',(0.707106781186547,-0.707106781186547,0.));
#894=DIRECTION('center_axis',(0.,0.,1.));
#895=DIRECTION('ref_axis',(0.707106781186547,-0.707106781186547,0.));
#896=DIRECTION('',(0.,0.,1.));
#897=DIRECTION('center_axis',(1.,0.,0.));
#898=DIRECTION('ref_axis',(0.,1.,0.));
#899=DIRECTION('',(0.,1.,0.));
#900=DIRECTION('',(0.,0.,-1.));
#901=DIRECTION('center_axis',(0.,0.,1.));
#902=DIRECTION('ref_axis',(0.707106781186547,0.707106781186547,0.));
#903=DIRECTION('center_axis',(0.,0.,1.));
#904=DIRECTION('ref_axis',(0.707106781186547,0.707106781186547,0.));
#905=DIRECTION('',(0.,0.,1.));
#906=DIRECTION('center_axis',(0.,0.,1.));
#907=DIRECTION('ref_axis',(-0.707106781186547,0.707106781186547,0.));
#908=DIRECTION('',(0.,0.,-1.));
#909=DIRECTION('center_axis',(0.,0.,1.));
#910=DIRECTION('ref_axis',(-0.707106781186547,0.707106781186547,0.));
#911=DIRECTION('center_axis',(0.,1.,0.));
#912=DIRECTION('ref_axis',(-1.,0.,0.));
#913=DIRECTION('',(-1.,0.,0.));
#914=DIRECTION('center_axis',(0.,0.,1.));
#915=DIRECTION('ref_axis',(1.,0.,0.));
#916=CARTESIAN_POINT('',(0.,0.,0.));
#917=CARTESIAN_POINT('Origin',(50.8,50.8,7.));
#918=CARTESIAN_POINT('',(48.41875,50.8,7.));
#919=CARTESIAN_POINT('Origin',(50.8,50.8,7.));
#920=CARTESIAN_POINT('',(48.41875,50.8,0.));
#921=CARTESIAN_POINT('',(48.41875,50.8,7.));
#922=CARTESIAN_POINT('Origin',(50.8,50.8,0.));
#923=CARTESIAN_POINT('Origin',(-50.8,50.8,7.));
#924=CARTESIAN_POINT('',(-53.18125,50.8,7.));
#925=CARTESIAN_POINT('Origin',(-50.8,50.8,7.));
#926=CARTESIAN_POINT('',(-53.18125,50.8,0.));
#927=CARTESIAN_POINT('',(-53.18125,50.8,7.));
#928=CARTESIAN_POINT('Origin',(-50.8,50.8,0.));
#929=CARTESIAN_POINT('Origin',(50.8,-50.8,7.));
#930=CARTESIAN_POINT('',(48.41875,-50.8,7.));
#931=CARTESIAN_POINT('Origin',(50.8,-50.8,7.));
#932=CARTESIAN_POINT('',(48.41875,-50.8,0.));
#933=CARTESIAN_POINT('',(48.41875,-50.8,7.));
#934=CARTESIAN_POINT('Origin',(50.8,-50.8,0.));
#935=CARTESIAN_POINT('Origin',(-50.8,-50.8,7.));
#936=CARTESIAN_POINT('',(-53.18125,-50.8,7.));
#937=CARTESIAN_POINT('Origin',(-50.8,-50.8,7.));
#938=CARTESIAN_POINT('',(-53.18125,-50.8,0.));
#939=CARTESIAN_POINT('',(-53.18125,-50.8,7.));
#940=CARTESIAN_POINT('Origin',(-50.8,-50.8,0.));
#941=CARTESIAN_POINT('Origin',(52.5,44.91875,7.));
#942=CARTESIAN_POINT('',(44.91875,44.91875,7.));
#943=CARTESIAN_POINT('',(52.5,44.91875,7.));
#944=CARTESIAN_POINT('',(44.91875,44.91875,7.));
#945=CARTESIAN_POINT('',(44.91875,44.91875,5.));
#946=CARTESIAN_POINT('',(44.91875,44.91875,7.));
#947=CARTESIAN_POINT('',(52.5,44.91875,5.));
#948=CARTESIAN_POINT('',(26.25,44.91875,5.));
#949=CARTESIAN_POINT('',(52.5,44.91875,7.));
#950=CARTESIAN_POINT('Origin',(44.91875,44.91875,7.));
#951=CARTESIAN_POINT('',(44.91875,54.,7.));
#952=CARTESIAN_POINT('',(44.91875,54.,7.));
#953=CARTESIAN_POINT('',(44.91875,54.,5.));
#954=CARTESIAN_POINT('',(44.91875,54.,7.));
#955=CARTESIAN_POINT('',(44.91875,24.0941998003889,5.));
#956=CARTESIAN_POINT('Origin',(52.5,54.,7.));
#957=CARTESIAN_POINT('',(52.5,-47.4607007984443,5.));
#958=CARTESIAN_POINT('',(52.5,-47.4607007984443,5.));
#959=CARTESIAN_POINT('',(52.5,-47.4607007984443,7.));
#960=CARTESIAN_POINT('',(52.5,-47.4607007984443,7.));
#961=CARTESIAN_POINT('',(52.5,27.2046875,7.));
#962=CARTESIAN_POINT('Origin',(-44.91875,44.91875,7.));
#963=CARTESIAN_POINT('',(-48.2622171407425,44.91875,5.));
#964=CARTESIAN_POINT('',(-48.2622171407425,44.91875,7.));
#965=CARTESIAN_POINT('',(-48.2622171407425,44.91875,7.));
#966=CARTESIAN_POINT('',(-44.91875,44.91875,5.));
#967=CARTESIAN_POINT('',(-22.459375,44.91875,5.));
#968=CARTESIAN_POINT('',(-44.91875,44.91875,7.));
#969=CARTESIAN_POINT('',(-44.91875,44.91875,7.));
#970=CARTESIAN_POINT('',(-52.5,44.91875,7.));
#971=CARTESIAN_POINT('Origin',(-44.91875,54.,7.));
#972=CARTESIAN_POINT('',(-44.91875,54.,7.));
#973=CARTESIAN_POINT('',(-44.91875,44.91875,7.));
#974=CARTESIAN_POINT('',(-44.91875,54.,5.));
#975=CARTESIAN_POINT('',(-44.91875,28.6348248003889,5.));
#976=CARTESIAN_POINT('',(-44.91875,54.,7.));
#977=CARTESIAN_POINT('Origin',(-52.5,54.,7.));
#978=CARTESIAN_POINT('',(-7.5,54.,5.));
#979=CARTESIAN_POINT('',(52.5,54.,5.));
#980=CARTESIAN_POINT('',(-7.5,54.,7.));
#981=CARTESIAN_POINT('',(-7.5,54.,7.));
#982=CARTESIAN_POINT('',(-26.25,54.,7.));
#983=CARTESIAN_POINT('Origin',(0.,0.409375000000001,7.));
#984=CARTESIAN_POINT('',(-7.5,59.,7.));
#985=CARTESIAN_POINT('',(-7.5,25.7046875,7.));
#986=CARTESIAN_POINT('',(-55.68125,59.,7.));
#987=CARTESIAN_POINT('',(58.18125,59.,7.));
#988=CARTESIAN_POINT('',(-58.18125,56.5,7.));
#989=CARTESIAN_POINT('Origin',(-55.68125,56.5,7.));
#990=CARTESIAN_POINT('',(-58.18125,-55.68125,7.));
#991=CARTESIAN_POINT('',(-58.18125,59.,7.));
#992=CARTESIAN_POINT('',(-55.68125,-58.18125,7.));
#993=CARTESIAN_POINT('Origin',(-55.68125,-55.68125,7.));
#994=CARTESIAN_POINT('',(-7.5,-58.18125,7.));
#995=CARTESIAN_POINT('',(-58.18125,-58.18125,7.));
#996=CARTESIAN_POINT('',(-7.5,-47.4607007984443,7.));
#997=CARTESIAN_POINT('',(-7.5,-29.3859375,7.));
#998=CARTESIAN_POINT('',(-52.5,-47.4607007984443,7.));
#999=CARTESIAN_POINT('',(26.25,-47.4607007984443,7.));
#1000=CARTESIAN_POINT('',(-52.5,12.1997713002286,7.));
#1001=CARTESIAN_POINT('',(-52.5,-23.5256628992222,7.));
#1002=CARTESIAN_POINT('',(-49.2622171407425,12.1997713002286,7.));
#1003=CARTESIAN_POINT('',(-49.2622171407425,12.1997713002286,7.));
#1004=CARTESIAN_POINT('',(-48.2622171407425,13.1997713002286,7.));
#1005=CARTESIAN_POINT('Origin',(-49.2622171407425,13.1997713002286,7.));
#1006=CARTESIAN_POINT('',(-48.2622171407425,20.1997713002286,7.));
#1007=CARTESIAN_POINT('Origin',(0.,3.26964960077783,5.));
#1008=CARTESIAN_POINT('',(7.5,54.,5.));
#1009=CARTESIAN_POINT('',(52.5,54.,5.));
#1010=CARTESIAN_POINT('',(7.5,59.,5.));
#1011=CARTESIAN_POINT('',(7.5,51.,5.));
#1012=CARTESIAN_POINT('',(-7.5,59.,5.));
#1013=CARTESIAN_POINT('',(29.090625,59.,5.));
#1014=CARTESIAN_POINT('',(-7.5,60.,5.));
#1015=CARTESIAN_POINT('',(-48.2622171407425,13.1997713002286,5.));
#1016=CARTESIAN_POINT('',(-48.2622171407425,11.7347104505032,5.));
#1017=CARTESIAN_POINT('',(-49.2622171407425,12.1997713002286,5.));
#1018=CARTESIAN_POINT('Origin',(-49.2622171407425,13.1997713002286,5.));
#1019=CARTESIAN_POINT('',(-52.5,12.1997713002286,5.));
#1020=CARTESIAN_POINT('',(-24.6311085703712,12.1997713002286,5.));
#1021=CARTESIAN_POINT('',(-52.5,-47.4607007984443,5.));
#1022=CARTESIAN_POINT('',(-52.5,54.,5.));
#1023=CARTESIAN_POINT('',(-7.5,-47.4607007984443,5.));
#1024=CARTESIAN_POINT('',(-52.5,-47.4607007984443,5.));
#1025=CARTESIAN_POINT('',(-7.5,-58.18125,5.));
#1026=CARTESIAN_POINT('',(-7.5,-44.4607007984443,5.));
#1027=CARTESIAN_POINT('',(7.5,-58.18125,5.));
#1028=CARTESIAN_POINT('',(-29.090625,-58.18125,5.));
#1029=CARTESIAN_POINT('',(7.5,-47.4607007984443,5.));
#1030=CARTESIAN_POINT('',(7.5,-59.18125,5.));
#1031=CARTESIAN_POINT('',(-52.5,-47.4607007984443,5.));
#1032=CARTESIAN_POINT('Origin',(-49.2622171407425,12.1997713002286,7.));
#1033=CARTESIAN_POINT('',(-52.5,12.1997713002286,7.));
#1034=CARTESIAN_POINT('',(-49.2622171407425,12.1997713002286,7.));
#1035=CARTESIAN_POINT('Origin',(-48.2622171407425,20.1997713002286,7.));
#1036=CARTESIAN_POINT('',(-48.2622171407425,13.1997713002286,7.));
#1037=CARTESIAN_POINT('Origin',(-49.2622171407425,13.1997713002286,7.));
#1038=CARTESIAN_POINT('Origin',(-52.5,-47.4607007984443,7.));
#1039=CARTESIAN_POINT('',(-52.5,-47.4607007984443,7.));
#1040=CARTESIAN_POINT('Origin',(7.5,60.,7.));
#1041=CARTESIAN_POINT('',(7.5,59.,7.));
#1042=CARTESIAN_POINT('',(7.5,59.,3.5));
#1043=CARTESIAN_POINT('',(7.5,54.,7.));
#1044=CARTESIAN_POINT('',(7.5,54.,7.));
#1045=CARTESIAN_POINT('',(7.5,30.2046875,7.));
#1046=CARTESIAN_POINT('Origin',(-7.5,51.,7.));
#1047=CARTESIAN_POINT('',(-7.5,59.,3.5));
#1048=CARTESIAN_POINT('Origin',(0.,0.409375000000001,7.));
#1049=CARTESIAN_POINT('',(-26.25,54.,7.));
#1050=CARTESIAN_POINT('',(7.5,-47.4607007984443,7.));
#1051=CARTESIAN_POINT('',(26.25,-47.4607007984443,7.));
#1052=CARTESIAN_POINT('',(7.5,-58.18125,7.));
#1053=CARTESIAN_POINT('',(7.5,-22.0256628992222,7.));
#1054=CARTESIAN_POINT('',(55.68125,-58.18125,7.));
#1055=CARTESIAN_POINT('',(-58.18125,-58.18125,7.));
#1056=CARTESIAN_POINT('',(58.18125,-55.68125,7.));
#1057=CARTESIAN_POINT('Origin',(55.68125,-55.68125,7.));
#1058=CARTESIAN_POINT('',(58.18125,56.5,7.));
#1059=CARTESIAN_POINT('',(58.18125,-58.18125,7.));
#1060=CARTESIAN_POINT('',(55.68125,59.,7.));
#1061=CARTESIAN_POINT('Origin',(55.68125,56.5,7.));
#1062=CARTESIAN_POINT('',(58.18125,59.,7.));
#1063=CARTESIAN_POINT('Origin',(-7.5,-59.18125,7.));
#1064=CARTESIAN_POINT('',(-7.5,-58.18125,3.5));
#1065=CARTESIAN_POINT('',(-7.5,-47.4607007984443,7.));
#1066=CARTESIAN_POINT('Origin',(7.5,-44.4607007984443,7.));
#1067=CARTESIAN_POINT('',(7.5,-58.18125,3.5));
#1068=CARTESIAN_POINT('',(7.5,-47.4607007984443,7.));
#1069=CARTESIAN_POINT('Origin',(-58.18125,-58.18125,0.));
#1070=CARTESIAN_POINT('',(-55.68125,-58.18125,0.));
#1071=CARTESIAN_POINT('',(-55.68125,-58.18125,0.));
#1072=CARTESIAN_POINT('',(55.68125,-58.18125,0.));
#1073=CARTESIAN_POINT('',(-58.18125,-58.18125,0.));
#1074=CARTESIAN_POINT('',(55.68125,-58.18125,0.));
#1075=CARTESIAN_POINT('Origin',(52.5,-47.4607007984443,7.));
#1076=CARTESIAN_POINT('Origin',(52.5,-47.4607007984443,7.));
#1077=CARTESIAN_POINT('Origin',(-52.5,54.,7.));
#1078=CARTESIAN_POINT('Origin',(-55.68125,-55.68125,0.));
#1079=CARTESIAN_POINT('',(-58.18125,-55.68125,0.));
#1080=CARTESIAN_POINT('',(-58.18125,-55.68125,0.));
#1081=CARTESIAN_POINT('Origin',(-55.68125,-55.68125,0.));
#1082=CARTESIAN_POINT('Origin',(-58.18125,59.,0.));
#1083=CARTESIAN_POINT('',(-58.18125,56.5,0.));
#1084=CARTESIAN_POINT('',(-58.18125,56.5,0.));
#1085=CARTESIAN_POINT('',(-58.18125,59.,0.));
#1086=CARTESIAN_POINT('Origin',(55.68125,-55.68125,0.));
#1087=CARTESIAN_POINT('',(58.18125,-55.68125,0.));
#1088=CARTESIAN_POINT('Origin',(55.68125,-55.68125,0.));
#1089=CARTESIAN_POINT('',(58.18125,-55.68125,0.));
#1090=CARTESIAN_POINT('Origin',(58.18125,-58.18125,0.));
#1091=CARTESIAN_POINT('',(58.18125,56.5,0.));
#1092=CARTESIAN_POINT('',(58.18125,-58.18125,0.));
#1093=CARTESIAN_POINT('',(58.18125,56.5,0.));
#1094=CARTESIAN_POINT('Origin',(55.68125,56.5,0.));
#1095=CARTESIAN_POINT('',(55.68125,59.,0.));
#1096=CARTESIAN_POINT('Origin',(55.68125,56.5,0.));
#1097=CARTESIAN_POINT('',(55.68125,59.,0.));
#1098=CARTESIAN_POINT('Origin',(-55.68125,56.5,0.));
#1099=CARTESIAN_POINT('',(-55.68125,59.,0.));
#1100=CARTESIAN_POINT('',(-55.68125,59.,0.));
#1101=CARTESIAN_POINT('Origin',(-55.68125,56.5,0.));
#1102=CARTESIAN_POINT('Origin',(58.18125,59.,0.));
#1103=CARTESIAN_POINT('',(58.18125,59.,0.));
#1104=CARTESIAN_POINT('Origin',(0.,0.409375000000001,0.));
#1105=UNCERTAINTY_MEASURE_WITH_UNIT(LENGTH_MEASURE(0.01),#1109,
'DISTANCE_ACCURACY_VALUE',
'Maximum model space distance between geometric entities at asserted c
onnectivities');
#1106=UNCERTAINTY_MEASURE_WITH_UNIT(LENGTH_MEASURE(0.01),#1109,
'DISTANCE_ACCURACY_VALUE',
'Maximum model space distance between geometric entities at asserted c
onnectivities');
#1107=(
GEOMETRIC_REPRESENTATION_CONTEXT(3)
GLOBAL_UNCERTAINTY_ASSIGNED_CONTEXT((#1105))
GLOBAL_UNIT_ASSIGNED_CONTEXT((#1109,#1111,#1112))
REPRESENTATION_CONTEXT('','3D')
);
#1108=(
GEOMETRIC_REPRESENTATION_CONTEXT(3)
GLOBAL_UNCERTAINTY_ASSIGNED_CONTEXT((#1106))
GLOBAL_UNIT_ASSIGNED_CONTEXT((#1109,#1111,#1112))
REPRESENTATION_CONTEXT('','3D')
);
#1109=(
LENGTH_UNIT()
NAMED_UNIT(*)
SI_UNIT(.MILLI.,.METRE.)
);
#1110=(
LENGTH_UNIT()
NAMED_UNIT(*)
SI_UNIT($,.METRE.)
);
#1111=(
NAMED_UNIT(*)
PLANE_ANGLE_UNIT()
SI_UNIT($,.RADIAN.)
);
#1112=(
NAMED_UNIT(*)
SI_UNIT($,.STERADIAN.)
SOLID_ANGLE_UNIT()
);
#1113=SHAPE_DEFINITION_REPRESENTATION(#1114,#1115);
#1114=PRODUCT_DEFINITION_SHAPE('',$,#1117);
#1115=SHAPE_REPRESENTATION('',(#685),#1107);
#1116=PRODUCT_DEFINITION_CONTEXT('part definition',#1121,'design');
#1117=PRODUCT_DEFINITION('2026-08-16-02-06-30-470','(Unsaved)',#1118,#1116);
#1118=PRODUCT_DEFINITION_FORMATION('',$,#1123);
#1119=PRODUCT_RELATED_PRODUCT_CATEGORY('(Unsaved)','(Unsaved)',(#1123));
#1120=APPLICATION_PROTOCOL_DEFINITION('international standard',
'automotive_design',2009,#1121);
#1121=APPLICATION_CONTEXT(
'Core Data for Automotive Mechanical Design Process');
#1122=PRODUCT_CONTEXT('part definition',#1121,'mechanical');
#1123=PRODUCT('2026-08-16-02-06-30-470','(Unsaved)',$,(#1122));
#1124=PRESENTATION_STYLE_ASSIGNMENT((#1125));
#1125=SURFACE_STYLE_USAGE(.BOTH.,#1126);
#1126=SURFACE_SIDE_STYLE('',(#1127));
#1127=SURFACE_STYLE_FILL_AREA(#1128);
#1128=FILL_AREA_STYLE('Steel - Satin',(#1129));
#1129=FILL_AREA_STYLE_COLOUR('Steel - Satin',#1130);
#1130=COLOUR_RGB('Steel - Satin',0.627450980392157,0.627450980392157,0.627450980392157);
ENDSEC;
END-ISO-10303-21;
