0
SECTION
2
HEADER
9
$ACADVER
1
AC1006
0
ENDSEC
0
SECTION
2
TABLES
0
TABLE
2
LAYER
70
1
0
LAYER
70
0
62
1
6
CONTINUOUS
2
0
0
ENDTAB
0
ENDSEC
0
SECTION
2
BLOCKS
0
ENDSEC
0
SECTION
2
ENTITIES
0
LWPOLYLINE
8
0
90
4
70
1
43
0
10
-20.025
20
-13.9925
10
-20.025
20
25
10
-19.975
20
25
10
-19.975
20
-13.9925
0
LWPOLYLINE
8
0
90
4
70
1
43
0
10
-10.025
20
-13.9925
10
-10.025
20
25
10
-9.975
20
25
10
-9.975
20
-13.9925
0
LWPOLYLINE
8
0
90
5
70
1
43
0
10
-0.025
20
-12.433264
10
-0.025
20
25
10
0.025
20
25
10
0.025
20
-12.399856
10
0.00066
20
-12.416133
0
LWPOLYLINE
8
0
90
6
70
1
43
0
10
9.975
20
-3.315175
10
9.975
20
25
10
10.025
20
25
10
10.025
20
-3.253307
10
10.003403
20
-3.280059
10
9.981702
20
-3.306898
0
ENDSEC
0
EOF
