0
SECTION
2
HEADER
9
$ACADVER
1
AC1006
0
ENDSEC
0
SECTION
2
TABLES
0
TABLE
2
LAYER
70
1
0
LAYER
70
0
62
1
6
CONTINUOUS
2
0
0
ENDTAB
0
ENDSEC
0
SECTION
2
BLOCKS
0
ENDSEC
0
SECTION
2
ENTITIES
0
LWPOLYLINE
8
0
90
5
70
1
43
0
10
16.4733
20
9.945352
10
16.4733
20
26.8157
10
16.5233
20
26.8157
10
16.5233
20
10.080063
10
16.490573
20
9.991603
0
LWPOLYLINE
8
0
90
4
70
1
43
0
10
6.4733
20
-6.159027
10
6.4733
20
26.8157
10
6.5233
20
26.8157
10
6.5233
20
-6.105697
0
LWPOLYLINE
8
0
90
4
70
1
43
0
10
-3.5267
20
-14.275084
10
-3.5267
20
26.8157
10
-3.4767
20
26.8157
10
-3.4767
20
-14.244591
0
LWPOLYLINE
8
0
90
4
70
1
43
0
10
-13.5267
20
-18.570001
10
-13.5267
20
26.8157
10
-13.4767
20
26.8157
10
-13.4767
20
-18.570001
0
LWPOLYLINE
8
0
90
4
70
1
43
0
10
-23.5267
20
-18.570001
10
-23.5267
20
26.8157
10
-23.4767
20
26.8157
10
-23.4767
20
-18.570001
0
ENDSEC
0
EOF
