0
SECTION
2
HEADER
9
$ACADVER
1
AC1006
0
ENDSEC
0
SECTION
2
TABLES
0
TABLE
2
LAYER
70
1
0
LAYER
70
0
62
1
6
CONTINUOUS
2
0
0
ENDTAB
0
ENDSEC
0
SECTION
2
BLOCKS
0
ENDSEC
0
SECTION
2
ENTITIES
0
LWPOLYLINE
8
0
90
12
70
1
43
0
10
22.3583
20
-24.2143
10
22.3583
20
-24.1393
10
21.1333
20
-24.1393
10
21.1333
20
-24.0893
10
22.3583
20
-24.0893
10
22.3583
20
-22.8643
10
22.4083
20
-22.8643
10
22.4083
20
-24.0893
10
22.4833
20
-24.0893
10
22.4833
20
-24.1393
10
22.4083
20
-24.1393
10
22.4083
20
-24.2143
0
LWPOLYLINE
8
0
90
4
70
1
43
0
10
19.8833
20
5.8607
10
19.8833
20
5.9107
10
22.4833
20
5.9107
10
22.4833
20
5.8607
0
ENDSEC
0
EOF
