0
SECTION
2
HEADER
9
$ACADVER
1
AC1006
0
ENDSEC
0
SECTION
2
TABLES
0
TABLE
2
LAYER
70
1
0
LAYER
70
0
62
1
6
CONTINUOUS
2
0
0
ENDTAB
0
ENDSEC
0
SECTION
2
BLOCKS
0
ENDSEC
0
SECTION
2
ENTITIES
0
LWPOLYLINE
8
0
90
5
70
1
43
0
10
-24.2
20
-43.181063
10
-24.266211
20
-43.143957
10
-24.32
20
-43.113595
10
-24.32
20
-42.69
10
-24.2
20
-42.69
0
LWPOLYLINE
8
0
90
5
70
1
43
0
10
24
20
-43.292607
10
24
20
-42.69
10
24.12
20
-42.69
10
24.12
20
-43.225842
10
24.001028
20
-43.292039
0
LWPOLYLINE
8
0
90
5
70
1
43
0
10
-34.95
20
-35.053413
10
-35.001786
20
-35.001786
10
-35.07
20
-34.933362
10
-35.07
20
-22.57
10
-34.95
20
-22.57
0
LWPOLYLINE
8
0
90
4
70
1
43
0
10
-24.32
20
-42.57
10
-24.32
20
-22.57
10
-24.2
20
-22.57
10
-24.2
20
-42.57
0
LWPOLYLINE
8
0
90
4
70
1
43
0
10
24
20
-42.57
10
24
20
-22.57
10
24.12
20
-22.57
10
24.12
20
-42.57
0
LWPOLYLINE
8
0
90
5
70
1
43
0
10
35.17
20
-34.832678
10
35.17
20
-22.57
10
35.29
20
-22.57
10
35.29
20
-34.711108
10
35.215894
20
-34.78636
0
LWPOLYLINE
8
0
90
4
70
1
43
0
10
-35.07
20
-22.45
10
-35.07
20
22.55
10
-34.95
20
22.55
10
-34.95
20
-22.45
0
LWPOLYLINE
8
0
90
4
70
1
43
0
10
0.05
20
-22.45
10
0.05
20
22.55
10
0.17
20
22.55
10
0.17
20
-22.45
0
LWPOLYLINE
8
0
90
4
70
1
43
0
10
35.17
20
-22.45
10
35.17
20
22.55
10
35.29
20
22.55
10
35.29
20
-22.45
0
LWPOLYLINE
8
0
90
5
70
1
43
0
10
35.17
20
22.67
10
35.17
20
34.832678
10
35.215894
20
34.78636
10
35.29
20
34.711108
10
35.29
20
22.67
0
LWPOLYLINE
8
0
90
5
70
1
43
0
10
-35.07
20
22.67
10
-35.07
20
34.933362
10
-35.001786
20
35.001786
10
-34.95
20
35.053413
10
-34.95
20
22.67
0
LWPOLYLINE
8
0
90
4
70
1
43
0
10
-24.32
20
22.67
10
-24.32
20
42.67
10
-24.2
20
42.67
10
-24.2
20
22.67
0
LWPOLYLINE
8
0
90
4
70
1
43
0
10
24
20
22.67
10
24
20
42.67
10
24.12
20
42.67
10
24.12
20
22.67
0
LWPOLYLINE
8
0
90
5
70
1
43
0
10
-24.32
20
42.79
10
-24.32
20
43.113595
10
-24.266211
20
43.143957
10
-24.2
20
43.181063
10
-24.2
20
42.79
0
LWPOLYLINE
8
0
90
5
70
1
43
0
10
24
20
42.79
10
24
20
43.292607
10
24.001028
20
43.292039
10
24.12
20
43.225842
10
24.12
20
42.79
0
ENDSEC
0
EOF
