0
SECTION
2
HEADER
9
$ACADVER
1
AC1006
0
ENDSEC
0
SECTION
2
TABLES
0
TABLE
2
LAYER
70
1
0
LAYER
70
0
62
1
6
CONTINUOUS
2
0
0
ENDTAB
0
ENDSEC
0
SECTION
2
BLOCKS
0
ENDSEC
0
SECTION
2
ENTITIES
0
LWPOLYLINE
8
0
90
8
70
1
43
0
10
-25.056215
20
-42.69
10
-25.056239
20
-42.689986
10
-25.187092
20
-42.612913
10
-25.259441
20
-42.57
10
25.259441
20
-42.57
10
25.187092
20
-42.612913
10
25.056239
20
-42.689986
10
25.056215
20
-42.69
0
LWPOLYLINE
8
0
90
6
70
1
43
0
10
-44.054967
20
-22.57
10
-44.077212
20
-22.526638
10
-44.116231
20
-22.45
10
44.116231
20
-22.45
10
44.077212
20
-22.526638
10
44.054967
20
-22.57
0
LWPOLYLINE
8
0
90
6
70
1
43
0
10
-44.065227
20
22.55
10
-44.007894
20
22.661759
10
-44.003634
20
22.67
10
44.003634
20
22.67
10
44.007894
20
22.661759
10
44.065227
20
22.55
0
LWPOLYLINE
8
0
90
8
70
1
43
0
10
-25.090171
20
42.67
10
-25.056239
20
42.689986
10
-24.92515
20
42.766656
10
-24.884955
20
42.79
10
24.884955
20
42.79
10
24.92515
20
42.766656
10
25.056239
20
42.689986
10
25.090171
20
42.67
0
ENDSEC
0
EOF
