0
SECTION
2
HEADER
9
$ACADVER
1
AC1006
0
ENDSEC
0
SECTION
2
TABLES
0
TABLE
2
LAYER
70
1
0
LAYER
70
0
62
1
6
CONTINUOUS
2
0
0
ENDTAB
0
ENDSEC
0
SECTION
2
BLOCKS
0
ENDSEC
0
SECTION
2
ENTITIES
0
LWPOLYLINE
8
0
90
6
70
1
43
0
10
-34.975
20
-13.526646
10
-34.98723
20
-13.496064
10
-35.025
20
-13.394453
10
-35.025
20
13.394453
10
-34.98723
20
13.496064
10
-34.975
20
13.526646
0
LWPOLYLINE
8
0
90
6
70
1
43
0
10
34.975
20
-13.526646
10
34.975
20
13.526646
10
34.98723
20
13.496064
10
35.025
20
13.394453
10
35.025
20
-13.394453
10
34.98723
20
-13.496064
0
LWPOLYLINE
8
0
90
4
70
1
43
0
10
-24.975
20
-27.969997
10
-25.025
20
-27.925785
10
-25.025
20
27.925785
10
-24.975
20
27.969997
0
LWPOLYLINE
8
0
90
4
70
1
43
0
10
24.975
20
-27.969997
10
24.975
20
27.969997
10
25.025
20
27.925785
10
25.025
20
-27.925785
0
LWPOLYLINE
8
0
90
4
70
1
43
0
10
-14.975
20
-34.377836
10
-15.025
20
-34.356403
10
-15.025
20
34.356403
10
-14.975
20
34.377836
0
LWPOLYLINE
8
0
90
4
70
1
43
0
10
14.975
20
-34.377836
10
14.975
20
34.377836
10
15.025
20
34.356403
10
15.025
20
-34.356403
0
LWPOLYLINE
8
0
90
4
70
1
43
0
10
-4.975
20
-37.165748
10
-5.025
20
-37.158957
10
-5.025
20
37.158957
10
-4.975
20
37.165748
0
LWPOLYLINE
8
0
90
4
70
1
43
0
10
4.975
20
-37.165748
10
4.975
20
37.165748
10
5.025
20
37.158957
10
5.025
20
-37.158957
0
ENDSEC
0
EOF
