0
SECTION
2
HEADER
9
$ACADVER
1
AC1006
0
ENDSEC
0
SECTION
2
TABLES
0
TABLE
2
LAYER
70
1
0
LAYER
70
0
62
1
6
CONTINUOUS
2
0
0
ENDTAB
0
ENDSEC
0
SECTION
2
BLOCKS
0
ENDSEC
0
SECTION
2
ENTITIES
0
LWPOLYLINE
8
0
90
4
70
1
43
0
10
19.8833
20
-3.3393
10
19.8833
20
-3.2893
10
22.4833
20
-3.2893
10
22.4833
20
-3.3393
0
LWPOLYLINE
8
0
90
12
70
1
43
0
10
22.3583
20
25.4357
10
22.3583
20
26.6607
10
21.1333
20
26.6607
10
21.1333
20
26.7107
10
22.3583
20
26.7107
10
22.3583
20
26.7857
10
22.4083
20
26.7857
10
22.4083
20
26.7107
10
22.4833
20
26.7107
10
22.4833
20
26.6607
10
22.4083
20
26.6607
10
22.4083
20
25.4357
0
ENDSEC
0
EOF
