0
SECTION
2
HEADER
9
$ACADVER
1
AC1006
0
ENDSEC
0
SECTION
2
TABLES
0
TABLE
2
LAYER
70
1
0
LAYER
70
0
62
1
6
CONTINUOUS
2
0
0
ENDTAB
0
ENDSEC
0
SECTION
2
BLOCKS
0
ENDSEC
0
SECTION
2
ENTITIES
0
LWPOLYLINE
8
0
90
5
70
1
43
0
10
-22.5
20
-44.090774
10
-22.526638
20
-44.077212
10
-22.6
20
-44.039577
10
-22.6
20
-9.55
10
-22.5
20
-9.55
0
LWPOLYLINE
8
0
90
5
70
1
43
0
10
22.5
20
-44.090774
10
22.5
20
-9.55
10
22.6
20
-9.55
10
22.6
20
-44.039577
10
22.526638
20
-44.077212
0
LWPOLYLINE
8
0
90
5
70
1
43
0
10
-35.15
20
-9.45
10
-35.15
20
34.852863
10
-35.109005
20
34.894237
10
-35.05
20
34.953424
10
-35.05
20
-9.45
0
LWPOLYLINE
8
0
90
5
70
1
43
0
10
35.05
20
-9.45
10
35.05
20
34.953424
10
35.109005
20
34.894237
10
35.15
20
34.852863
10
35.15
20
-9.45
0
LWPOLYLINE
8
0
90
4
70
1
43
0
10
-0.05
20
-9.45
10
-0.05
20
35.55
10
0.05
20
35.55
10
0.05
20
-9.45
0
LWPOLYLINE
8
0
90
5
70
1
43
0
10
-0.05
20
35.65
10
-0.05
20
49.499923
10
0
20
49.5
10
0.05
20
49.499923
10
0.05
20
35.65
0
ENDSEC
0
EOF
