0
SECTION
2
HEADER
9
$ACADVER
1
AC1006
0
ENDSEC
0
SECTION
2
TABLES
0
TABLE
2
LAYER
70
1
0
LAYER
70
0
62
1
6
CONTINUOUS
2
0
0
ENDTAB
0
ENDSEC
0
SECTION
2
BLOCKS
0
ENDSEC
0
SECTION
2
ENTITIES
0
LWPOLYLINE
8
0
90
8
70
1
43
0
10
-21.368709
20
-44.65
10
-21.438144
20
-44.616768
10
-21.574925
20
-44.550787
10
-21.576544
20
-44.55
10
21.576544
20
-44.55
10
21.574925
20
-44.550787
10
21.438144
20
-44.616768
10
21.368709
20
-44.65
0
LWPOLYLINE
8
0
90
6
70
1
43
0
10
-48.569979
20
-9.55
10
-48.57827
20
-9.50798
10
-48.589526
20
-9.45
10
48.589526
20
-9.45
10
48.57827
20
-9.50798
10
48.569979
20
-9.55
0
LWPOLYLINE
8
0
90
6
70
1
43
0
10
-34.444805
20
35.55
10
-34.351587
20
35.640124
10
-34.341309
20
35.65
10
34.341309
20
35.65
10
34.351587
20
35.640124
10
34.444805
20
35.55
0
ENDSEC
0
EOF
