0
SECTION
2
HEADER
9
$ACADVER
1
AC1006
0
ENDSEC
0
SECTION
2
TABLES
0
TABLE
2
LAYER
70
1
0
LAYER
70
0
62
1
6
CONTINUOUS
2
0
0
ENDTAB
0
ENDSEC
0
SECTION
2
BLOCKS
0
ENDSEC
0
SECTION
2
ENTITIES
0
LWPOLYLINE
8
0
90
5
70
1
43
0
10
16.4733
20
-24.1843
10
16.4733
20
-7.313952
10
16.490573
20
-7.360203
10
16.5233
20
-7.448663
10
16.5233
20
-24.1843
0
LWPOLYLINE
8
0
90
4
70
1
43
0
10
6.4733
20
-24.1843
10
6.4733
20
8.790427
10
6.5233
20
8.737097
10
6.5233
20
-24.1843
0
LWPOLYLINE
8
0
90
4
70
1
43
0
10
-3.5267
20
-24.1843
10
-3.5267
20
16.906484
10
-3.4767
20
16.875991
10
-3.4767
20
-24.1843
0
LWPOLYLINE
8
0
90
4
70
1
43
0
10
-13.5267
20
-24.1843
10
-13.5267
20
21.519912
10
-13.4767
20
21.503479
10
-13.4767
20
-24.1843
0
LWPOLYLINE
8
0
90
5
70
1
43
0
10
-23.5267
20
-24.1843
10
-23.5267
20
23.657155
10
-23.503862
20
23.654799
10
-23.4767
20
23.651913
10
-23.4767
20
-24.1843
0
ENDSEC
0
EOF
