0
SECTION
2
HEADER
9
$ACADVER
1
AC1006
0
ENDSEC
0
SECTION
2
TABLES
0
TABLE
2
LAYER
70
1
0
LAYER
70
0
62
1
6
CONTINUOUS
2
0
0
ENDTAB
0
ENDSEC
0
SECTION
2
BLOCKS
0
ENDSEC
0
SECTION
2
ENTITIES
0
LWPOLYLINE
8
0
90
5
70
1
43
0
10
-22.7267
20
-24.1843
10
-22.7267
20
-7.448663
10
-22.693973
20
-7.360203
10
-22.6767
20
-7.313952
10
-22.6767
20
-24.1843
0
LWPOLYLINE
8
0
90
4
70
1
43
0
10
-12.7267
20
-24.1843
10
-12.7267
20
8.737097
10
-12.6767
20
8.790427
10
-12.6767
20
-24.1843
0
LWPOLYLINE
8
0
90
4
70
1
43
0
10
-2.7267
20
-24.1843
10
-2.7267
20
16.875991
10
-2.6767
20
16.906484
10
-2.6767
20
-24.1843
0
LWPOLYLINE
8
0
90
4
70
1
43
0
10
7.2733
20
-24.1843
10
7.2733
20
21.503479
10
7.3233
20
21.519912
10
7.3233
20
-24.1843
0
LWPOLYLINE
8
0
90
5
70
1
43
0
10
17.2733
20
-24.1843
10
17.2733
20
23.651913
10
17.300462
20
23.654799
10
17.3233
20
23.657155
10
17.3233
20
-24.1843
0
ENDSEC
0
EOF
