0
SECTION
2
HEADER
9
$ACADVER
1
AC1006
0
ENDSEC
0
SECTION
2
TABLES
0
TABLE
2
LAYER
70
1
0
LAYER
70
0
62
1
6
CONTINUOUS
2
0
0
ENDTAB
0
ENDSEC
0
SECTION
2
BLOCKS
0
ENDSEC
0
SECTION
2
ENTITIES
0
LWPOLYLINE
8
0
90
6
70
1
43
0
10
-16.635637
20
-45.025
10
-16.724097
20
-44.992273
10
-16.770348
20
-44.975
10
16.770348
20
-44.975
10
16.724097
20
-44.992273
10
16.635637
20
-45.025
0
LWPOLYLINE
8
0
90
4
70
1
43
0
10
-45.587779
20
-15.025
10
-45.604212
20
-14.975
10
45.604212
20
-14.975
10
45.587779
20
-15.025
0
LWPOLYLINE
8
0
90
4
70
1
43
0
10
-45.604212
20
14.975
10
-45.587779
20
15.025
10
45.587779
20
15.025
10
45.604212
20
14.975
0
LWPOLYLINE
8
0
90
6
70
1
43
0
10
-16.770348
20
44.975
10
-16.724097
20
44.992273
10
-16.635637
20
45.025
10
16.635637
20
45.025
10
16.724097
20
44.992273
10
16.770348
20
44.975
0
ENDSEC
0
EOF
