0
SECTION
2
HEADER
9
$ACADVER
1
AC1006
0
ENDSEC
0
SECTION
2
TABLES
0
TABLE
2
LAYER
70
1
0
LAYER
70
0
62
1
6
CONTINUOUS
2
0
0
ENDTAB
0
ENDSEC
0
SECTION
2
BLOCKS
0
ENDSEC
0
SECTION
2
ENTITIES
0
LWPOLYLINE
8
0
90
4
70
1
43
0
10
-13.9925
20
9.975
10
-13.9925
20
10.025
10
25
20
10.025
10
25
20
9.975
0
LWPOLYLINE
8
0
90
6
70
1
43
0
10
24.75
20
23.75
10
24.75
20
24.75
10
23.75
20
24.75
10
23.75
20
25
10
25
20
25
10
25
20
23.75
0
LWPOLYLINE
8
0
90
8
70
1
43
0
10
-5.25
20
23.75
10
-5.25
20
24.75
10
-6.25
20
24.75
10
-6.25
20
25
10
-3.75
20
25
10
-3.75
20
24.75
10
-4.75
20
24.75
10
-4.75
20
23.75
0
LWPOLYLINE
8
0
90
8
70
1
43
0
10
24.75
20
-6.25
10
24.75
20
-5.25
10
23.75
20
-5.25
10
23.75
20
-4.75
10
24.75
20
-4.75
10
24.75
20
-3.75
10
25
20
-3.75
10
25
20
-6.25
0
ENDSEC
0
EOF
