0
SECTION
2
HEADER
9
$ACADVER
1
AC1006
9
$INSBASE
10
0.000000
20
0.000000
30
0.000000
9
$EXTMIN
10
-27.000000
20
-27.000000
30
0.000000
9
$EXTMAX
10
27.000000
20
27.000000
30
0.000000
9
$LIMMIN
10
-27.000000
20
-27.000000
9
$LIMMAX
10
27.000000
20
27.000000
0
ENDSEC
0
SECTION
2
TABLES
0
TABLE
2
LAYER
70
2
0
LAYER
70
0
62
1
6
CONTINUOUS
2
0
0
LAYER
70
0
62
2
6
CONTINUOUS
2
REGISTRATION_DO_NOT_EXPOSE
0
ENDTAB
0
ENDSEC
0
SECTION
2
BLOCKS
0
ENDSEC
0
SECTION
2
ENTITIES
0
LWPOLYLINE
8
0
90
4
70
1
43
0
10
12.9
20
-19.625
10
12.9
20
-19.575
10
17.9
20
-19.575
10
17.9
20
-19.625
0
LWPOLYLINE
8
0
90
4
70
1
43
0
10
12.9
20
10.375
10
12.9
20
10.425
10
17.9
20
10.425
10
17.9
20
10.375
0
LWPOLYLINE
8
REGISTRATION_DO_NOT_EXPOSE
90
4
70
1
43
0
10
-27
20
-27
10
-27
20
-26.95
10
-26.95
20
-26.95
10
-26.95
20
-27
0
LWPOLYLINE
8
REGISTRATION_DO_NOT_EXPOSE
90
4
70
1
43
0
10
-27
20
26.95
10
-27
20
27
10
-26.95
20
27
10
-26.95
20
26.95
0
LWPOLYLINE
8
REGISTRATION_DO_NOT_EXPOSE
90
4
70
1
43
0
10
26.95
20
-27
10
26.95
20
-26.95
10
27
20
-26.95
10
27
20
-27
0
LWPOLYLINE
8
REGISTRATION_DO_NOT_EXPOSE
90
4
70
1
43
0
10
26.95
20
26.95
10
26.95
20
27
10
27
20
27
10
27
20
26.95
0
ENDSEC
0
EOF
